<svg width="476" height="453" viewBox="0 0 476 453" fill="none" xmlns="http://www.w3.org/2000/svg">
<g opacity="0.8">
<g opacity="0.7" filter="url(#filter0_f_3470_4516)">
<g filter="url(#filter1_f_3470_4516)">
<path d="M279.824 208.254C298.147 247.595 309.85 285.422 313.988 314.75C316.058 329.423 316.221 341.881 314.425 351.306C312.621 360.774 308.914 366.843 303.557 369.338C298.199 371.833 291.169 370.765 282.761 366.054C274.391 361.364 264.96 353.222 255.06 342.195C235.273 320.156 213.85 286.856 195.527 247.515C177.204 208.175 165.5 170.348 161.363 141.02C159.292 126.347 159.129 113.888 160.926 104.463C162.73 94.9959 166.436 88.9272 171.794 86.4319C177.151 83.9366 184.181 85.005 192.589 89.7161C200.96 94.406 210.391 102.548 220.291 113.574C240.077 135.614 261.501 168.914 279.824 208.254Z" stroke="#FF7538" stroke-width="3"/>
<path d="M274.681 241.513C257.052 281.187 236.927 315.198 218.672 338.114C209.537 349.581 200.924 358.2 193.38 363.375C185.755 368.605 179.645 370.037 175.23 368.076C170.815 366.114 167.784 360.619 166.555 351.455C165.339 342.388 165.963 330.219 168.351 315.754C173.124 286.847 184.878 249.116 202.507 209.442C220.136 169.767 240.261 135.756 258.516 112.841C267.651 101.374 276.264 92.754 283.808 87.5798C291.434 82.3498 297.543 80.9169 301.958 82.8786C306.373 84.8403 309.404 90.3352 310.634 99.4999C311.85 108.566 311.225 120.736 308.837 135.201C304.065 164.108 292.311 201.838 274.681 241.513Z" stroke="#FF7538" stroke-width="3"/>
<path d="M281.028 162.848C316.413 187.839 343.274 217.661 358.13 245.612C373.032 273.647 375.655 299.355 363.491 316.579C351.327 333.803 326.221 339.927 294.817 335.259C263.507 330.605 226.42 315.263 191.035 290.272C155.65 265.281 128.789 235.459 113.933 207.509C99.031 179.474 96.4073 153.765 108.572 136.542C120.736 119.318 145.842 113.193 177.246 117.862C208.555 122.516 245.643 137.858 281.028 162.848Z" stroke="#FF7538" stroke-width="3"/>
<path d="M193.348 167.738C227.857 141.534 264.149 124.585 294.881 118.316C325.729 112.025 350.429 116.573 362.534 132.514C374.639 148.456 372.387 173.47 358.043 201.495C343.752 229.415 317.679 259.822 283.171 286.026C248.663 312.23 212.37 329.18 181.639 335.448C150.79 341.74 126.091 337.192 113.986 321.25C101.881 305.309 104.132 280.295 118.477 252.269C132.767 224.35 158.84 193.942 193.348 167.738Z" stroke="#FF7538" stroke-width="3"/>
<path d="M240.606 138.556C283.884 139.647 322.739 150.641 350.569 167.455C378.441 184.296 394.978 206.777 394.372 230.807C393.766 254.838 376.117 276.457 347.431 291.871C318.79 307.261 279.43 316.282 236.152 315.191C192.873 314.1 154.018 303.106 126.189 286.291C98.3168 269.451 81.7796 246.97 82.3856 222.939C82.9916 198.909 100.641 177.29 129.326 161.876C157.968 146.485 197.328 137.464 240.606 138.556Z" stroke="#FF7538" stroke-width="3"/>
<circle cx="235.489" cy="317.437" r="7.35224" transform="rotate(-90 235.489 317.437)" fill="#FF7538"/>
<circle cx="239.165" cy="137.308" r="7.35224" transform="rotate(-90 239.165 137.308)" fill="#FF7538"/>
</g>
<path d="M279.824 208.254C298.147 247.595 309.85 285.422 313.988 314.75C316.058 329.423 316.221 341.881 314.425 351.306C312.621 360.774 308.914 366.843 303.557 369.338C298.199 371.833 291.169 370.765 282.761 366.054C274.391 361.364 264.96 353.222 255.06 342.195C235.273 320.156 213.85 286.856 195.527 247.515C177.204 208.175 165.5 170.348 161.363 141.02C159.292 126.347 159.129 113.888 160.926 104.463C162.73 94.9959 166.436 88.9272 171.794 86.4319C177.151 83.9366 184.181 85.005 192.589 89.7161C200.96 94.406 210.391 102.548 220.291 113.574C240.077 135.614 261.501 168.914 279.824 208.254Z" stroke="#FF7538" stroke-width="3"/>
<path d="M274.681 241.513C257.052 281.187 236.927 315.198 218.672 338.114C209.537 349.581 200.924 358.2 193.38 363.375C185.755 368.605 179.645 370.037 175.23 368.076C170.815 366.114 167.784 360.619 166.555 351.455C165.339 342.388 165.963 330.219 168.351 315.754C173.124 286.847 184.878 249.116 202.507 209.442C220.136 169.767 240.261 135.756 258.516 112.841C267.651 101.374 276.264 92.754 283.808 87.5798C291.434 82.3498 297.543 80.9169 301.958 82.8786C306.373 84.8403 309.404 90.3352 310.634 99.4999C311.85 108.566 311.225 120.736 308.837 135.201C304.065 164.108 292.311 201.838 274.681 241.513Z" stroke="#FF7538" stroke-width="3"/>
<path d="M281.028 162.848C316.413 187.839 343.274 217.661 358.13 245.612C373.032 273.647 375.655 299.355 363.491 316.579C351.327 333.803 326.221 339.927 294.817 335.259C263.507 330.605 226.42 315.263 191.035 290.272C155.65 265.281 128.789 235.459 113.933 207.509C99.031 179.474 96.4073 153.765 108.572 136.542C120.736 119.318 145.842 113.193 177.246 117.862C208.555 122.516 245.643 137.858 281.028 162.848Z" stroke="#FF7538" stroke-width="3"/>
<path d="M193.348 167.738C227.857 141.534 264.149 124.585 294.881 118.316C325.729 112.025 350.429 116.573 362.534 132.514C374.639 148.456 372.387 173.47 358.043 201.495C343.752 229.415 317.679 259.822 283.171 286.026C248.663 312.23 212.37 329.18 181.639 335.448C150.79 341.74 126.091 337.192 113.986 321.25C101.881 305.309 104.132 280.295 118.477 252.269C132.767 224.35 158.84 193.942 193.348 167.738Z" stroke="#FF7538" stroke-width="3"/>
<path d="M240.606 138.556C283.884 139.647 322.739 150.641 350.569 167.455C378.441 184.296 394.978 206.777 394.372 230.807C393.766 254.838 376.117 276.457 347.431 291.871C318.79 307.261 279.43 316.282 236.152 315.191C192.873 314.1 154.018 303.106 126.189 286.291C98.3168 269.451 81.7796 246.97 82.3856 222.939C82.9916 198.909 100.641 177.29 129.326 161.876C157.968 146.485 197.328 137.464 240.606 138.556Z" stroke="#FF7538" stroke-width="3"/>
<circle cx="235.489" cy="317.437" r="7.35224" transform="rotate(-90 235.489 317.437)" fill="#FF7538"/>
<circle cx="239.165" cy="137.308" r="7.35224" transform="rotate(-90 239.165 137.308)" fill="#FF7538"/>
</g>
<g filter="url(#filter2_f_3470_4516)">
<path d="M274.839 210.489C291.132 245.471 301.536 279.101 305.214 305.167C307.054 318.209 307.197 329.271 305.604 337.629C304.003 346.03 300.723 351.362 296.03 353.548C291.336 355.734 285.144 354.813 277.683 350.633C270.26 346.474 261.885 339.246 253.086 329.445C235.5 309.857 216.453 280.253 200.16 245.27C183.867 210.288 173.463 176.658 169.785 150.592C167.945 137.55 167.802 126.488 169.395 118.13C170.996 109.729 174.276 104.397 178.969 102.211C183.663 100.025 189.855 100.946 197.316 105.126C204.739 109.285 213.114 116.512 221.913 126.314C239.499 145.902 258.546 175.506 274.839 210.489Z" stroke="#FF7538" stroke-width="3"/>
<path d="M270.261 239.941C254.584 275.221 236.69 305.46 220.464 325.829C212.343 336.023 204.694 343.676 198.003 348.265C191.231 352.91 185.863 354.139 182.02 352.432C178.177 350.724 175.492 345.916 174.401 337.777C173.322 329.735 173.875 318.93 175.998 306.071C180.24 280.376 190.69 246.83 206.367 211.549C222.044 176.269 239.937 146.03 256.164 125.661C264.284 115.467 271.933 107.814 278.624 103.225C285.397 98.5804 290.764 97.3508 294.607 99.0585C298.45 100.766 301.135 105.574 302.227 113.713C303.305 121.755 302.752 132.56 300.629 145.419C296.388 171.114 285.938 204.66 270.261 239.941Z" stroke="#FF7538" stroke-width="3"/>
<path d="M275.96 170.17C307.418 192.386 331.29 218.894 344.49 243.728C357.735 268.647 360.034 291.436 349.27 306.678C338.505 321.92 316.259 327.374 288.345 323.225C260.527 319.09 227.562 305.456 196.105 283.239C164.648 261.022 140.775 234.515 127.575 209.681C114.33 184.762 112.031 161.972 122.796 146.73C133.56 131.489 155.807 126.034 183.72 130.184C211.538 134.319 244.503 147.953 275.96 170.17Z" stroke="#FF7538" stroke-width="3"/>
<path d="M198.168 174.516C228.847 151.22 261.106 136.157 288.411 130.587C315.834 124.994 337.715 129.054 348.422 143.154C359.129 157.253 357.163 179.422 344.412 204.335C331.714 229.142 308.541 256.171 277.862 279.467C247.183 302.763 214.925 317.826 187.619 323.396C160.197 328.989 138.315 324.929 127.608 310.829C116.902 296.73 118.867 274.561 131.618 249.648C144.316 224.841 167.489 197.812 198.168 174.516Z" stroke="#FF7538" stroke-width="3"/>
<path d="M240.097 148.596C278.569 149.566 313.1 159.339 337.825 174.277C362.592 189.242 377.244 209.192 376.707 230.481C376.17 251.77 360.531 270.957 335.041 284.654C309.595 298.327 274.615 306.347 236.143 305.377C197.672 304.407 163.14 294.634 138.416 279.695C113.648 264.731 98.9969 244.781 99.5337 223.491C100.071 202.202 115.709 183.016 141.199 169.319C166.646 155.645 201.626 147.626 240.097 148.596Z" stroke="#FF7538" stroke-width="3"/>
<circle cx="235.547" cy="307.538" r="6.53964" transform="rotate(-90 235.547 307.538)" fill="#FF7538"/>
<circle cx="238.817" cy="147.312" r="6.53964" transform="rotate(-90 238.817 147.312)" fill="#FF7538"/>
</g>
<g opacity="0.9">
<path d="M274.839 210.489C291.132 245.471 301.536 279.101 305.214 305.167C307.054 318.209 307.197 329.271 305.604 337.629C304.003 346.03 300.723 351.362 296.03 353.548C291.336 355.734 285.144 354.813 277.683 350.633C270.26 346.474 261.885 339.246 253.086 329.445C235.5 309.857 216.453 280.253 200.16 245.27C183.867 210.288 173.463 176.658 169.785 150.592C167.945 137.55 167.802 126.488 169.395 118.13C170.996 109.729 174.276 104.397 178.969 102.211C183.663 100.025 189.855 100.946 197.316 105.126C204.739 109.285 213.114 116.512 221.913 126.314C239.499 145.902 258.546 175.506 274.839 210.489Z" stroke="#FF7538" stroke-width="3"/>
<path d="M270.261 239.941C254.584 275.221 236.69 305.46 220.464 325.829C212.343 336.023 204.694 343.676 198.003 348.265C191.231 352.91 185.863 354.139 182.02 352.432C178.177 350.724 175.492 345.916 174.401 337.777C173.322 329.735 173.875 318.93 175.998 306.071C180.24 280.376 190.69 246.83 206.367 211.549C222.044 176.269 239.937 146.03 256.164 125.661C264.284 115.467 271.933 107.814 278.624 103.225C285.397 98.5804 290.764 97.3508 294.607 99.0585C298.45 100.766 301.135 105.574 302.227 113.713C303.305 121.755 302.752 132.56 300.629 145.419C296.388 171.114 285.938 204.66 270.261 239.941Z" stroke="#FF7538" stroke-width="3"/>
<path d="M275.96 170.17C307.418 192.386 331.29 218.894 344.49 243.728C357.735 268.647 360.034 291.436 349.27 306.678C338.505 321.92 316.259 327.374 288.345 323.225C260.527 319.09 227.562 305.456 196.105 283.239C164.648 261.022 140.775 234.515 127.575 209.681C114.33 184.762 112.031 161.972 122.796 146.73C133.56 131.489 155.807 126.034 183.72 130.184C211.538 134.319 244.503 147.953 275.96 170.17Z" stroke="#FF7538" stroke-width="3"/>
<path d="M198.168 174.516C228.847 151.22 261.106 136.157 288.411 130.587C315.834 124.994 337.715 129.054 348.422 143.154C359.129 157.253 357.163 179.422 344.412 204.335C331.714 229.142 308.541 256.171 277.862 279.467C247.183 302.763 214.925 317.826 187.619 323.396C160.197 328.989 138.315 324.929 127.608 310.829C116.902 296.73 118.867 274.561 131.618 249.648C144.316 224.841 167.489 197.812 198.168 174.516Z" stroke="#FF7538" stroke-width="3"/>
<path d="M240.097 148.596C278.569 149.566 313.1 159.339 337.825 174.277C362.592 189.242 377.244 209.192 376.707 230.481C376.17 251.77 360.531 270.957 335.041 284.654C309.595 298.327 274.615 306.347 236.143 305.377C197.672 304.407 163.14 294.634 138.416 279.695C113.648 264.731 98.9969 244.781 99.5337 223.491C100.071 202.202 115.709 183.016 141.199 169.319C166.646 155.645 201.626 147.626 240.097 148.596Z" stroke="#FF7538" stroke-width="3"/>
<circle cx="235.547" cy="307.538" r="6.53964" transform="rotate(-90 235.547 307.538)" fill="#FF7538"/>
<circle cx="238.817" cy="147.312" r="6.53964" transform="rotate(-90 238.817 147.312)" fill="#FF7538"/>
</g>
</g>
<defs>
<filter id="filter0_f_3470_4516" x="0.871094" y="0.535156" width="475.016" height="451.609" filterUnits="userSpaceOnUse" color-interpolation-filters="sRGB">
<feFlood flood-opacity="0" result="BackgroundImageFix"/>
<feBlend mode="normal" in="SourceGraphic" in2="BackgroundImageFix" result="shape"/>
<feGaussianBlur stdDeviation="40" result="effect1_foregroundBlur_3470_4516"/>
</filter>
<filter id="filter1_f_3470_4516" x="76.8711" y="76.5352" width="323.016" height="299.609" filterUnits="userSpaceOnUse" color-interpolation-filters="sRGB">
<feFlood flood-opacity="0" result="BackgroundImageFix"/>
<feBlend mode="normal" in="SourceGraphic" in2="BackgroundImageFix" result="shape"/>
<feGaussianBlur stdDeviation="2" result="effect1_foregroundBlur_3470_4516"/>
</filter>
<filter id="filter2_f_3470_4516" x="94.0195" y="92.8242" width="288.203" height="267.371" filterUnits="userSpaceOnUse" color-interpolation-filters="sRGB">
<feFlood flood-opacity="0" result="BackgroundImageFix"/>
<feBlend mode="normal" in="SourceGraphic" in2="BackgroundImageFix" result="shape"/>
<feGaussianBlur stdDeviation="2" result="effect1_foregroundBlur_3470_4516"/>
</filter>
</defs>
</svg>
