<svg width="514" height="488" viewBox="0 0 514 488" fill="none" xmlns="http://www.w3.org/2000/svg">
<g opacity="0.7" filter="url(#filter0_f_0_4893)">
<g filter="url(#filter1_f_0_4893)">
<path d="M302.355 224.223C322.838 268.202 335.899 310.443 340.51 343.129C342.819 359.492 342.984 373.286 341.01 383.643C339.02 394.085 335.006 400.361 329.577 402.89C324.148 405.418 316.761 404.453 307.487 399.256C298.289 394.102 287.837 385.1 276.797 372.804C254.745 348.24 230.816 311.062 210.332 267.082C189.849 223.103 176.789 180.863 172.177 148.176C169.869 131.813 169.703 118.02 171.677 107.663C173.668 97.2199 177.682 90.9443 183.111 88.4158C188.54 85.8872 195.926 86.8529 205.2 92.0492C214.399 97.203 224.851 106.206 235.89 118.502C257.943 143.065 281.872 180.244 302.355 224.223Z" stroke="#FF7538" stroke-width="6"/>
<path d="M296.585 260.382C276.871 304.747 254.385 342.737 234.026 368.293C223.832 381.089 214.28 390.63 205.984 396.32C197.525 402.122 191.216 403.369 186.938 401.468C182.659 399.567 179.357 394.049 177.993 383.882C176.656 373.912 177.335 360.428 180 344.286C185.322 312.049 198.445 269.899 218.159 225.533C237.873 181.168 260.36 143.179 280.718 117.623C290.912 104.826 300.464 95.2853 308.76 89.5955C317.219 83.7939 323.528 82.5464 327.807 84.4476C332.085 86.3488 335.388 91.8671 336.751 102.033C338.088 112.004 337.409 125.488 334.745 141.629C329.423 173.867 316.299 216.017 296.585 260.382Z" stroke="#FF7538" stroke-width="6"/>
<path d="M304.137 173.886C343.637 201.783 373.566 235.038 390.09 266.126C406.705 297.384 409.367 325.563 396.182 344.232C382.998 362.9 355.55 369.814 320.536 364.61C285.712 359.433 244.363 342.347 204.863 314.45C165.363 286.553 135.434 253.298 118.91 222.21C102.295 190.953 99.6334 162.773 112.818 144.105C126.002 125.437 153.45 118.522 188.464 123.727C223.288 128.904 264.637 145.989 304.137 173.886Z" stroke="#FF7538" stroke-width="6"/>
<path d="M207.493 179.337C246.021 150.081 286.491 131.198 320.679 124.225C355.099 117.205 382.061 122.412 395.138 139.632C408.215 156.853 405.99 184.223 389.984 215.494C374.087 246.553 345.03 280.466 306.501 309.723C267.973 338.98 227.502 357.862 193.315 364.835C158.895 371.856 131.932 366.649 118.856 349.428C105.779 332.207 108.004 304.837 124.01 273.566C139.907 242.507 168.964 208.594 207.493 179.337Z" stroke="#FF7538" stroke-width="6"/>
<path d="M259.59 146.92C307.877 148.138 351.163 160.405 382.104 179.099C413.129 197.845 431.19 222.657 430.528 248.893C429.867 275.129 410.578 299 378.648 316.157C346.804 333.268 302.954 343.338 254.668 342.12C206.381 340.903 163.094 328.636 132.154 309.941C101.129 291.196 83.0677 266.383 83.7293 240.148C84.3909 213.912 103.679 190.041 135.61 172.883C167.454 155.772 211.303 145.703 259.59 146.92Z" stroke="#FF7538" stroke-width="6"/>
<circle cx="253.891" cy="345.958" r="8.23482" transform="rotate(-90 253.891 345.958)" fill="#FF7538"/>
<circle cx="258.008" cy="144.204" r="8.23482" transform="rotate(-90 258.008 144.204)" fill="#FF7538"/>
</g>
<path d="M302.355 224.223C322.838 268.202 335.899 310.443 340.51 343.129C342.819 359.492 342.984 373.286 341.01 383.643C339.02 394.085 335.006 400.361 329.577 402.89C324.148 405.418 316.761 404.453 307.487 399.256C298.289 394.102 287.837 385.1 276.797 372.804C254.745 348.24 230.816 311.062 210.332 267.082C189.849 223.103 176.789 180.863 172.177 148.176C169.869 131.813 169.703 118.02 171.677 107.663C173.668 97.2199 177.682 90.9443 183.111 88.4158C188.54 85.8872 195.926 86.8529 205.2 92.0492C214.399 97.203 224.851 106.206 235.89 118.502C257.943 143.065 281.872 180.244 302.355 224.223Z" stroke="#FF7538" stroke-width="6"/>
<path d="M296.585 260.382C276.871 304.747 254.385 342.737 234.026 368.293C223.832 381.089 214.28 390.63 205.984 396.32C197.525 402.122 191.216 403.369 186.938 401.468C182.659 399.567 179.357 394.049 177.993 383.882C176.656 373.912 177.335 360.428 180 344.286C185.322 312.049 198.445 269.899 218.159 225.533C237.873 181.168 260.36 143.179 280.718 117.623C290.912 104.826 300.464 95.2853 308.76 89.5955C317.219 83.7939 323.528 82.5464 327.807 84.4476C332.085 86.3488 335.388 91.8671 336.751 102.033C338.088 112.004 337.409 125.488 334.745 141.629C329.423 173.867 316.299 216.017 296.585 260.382Z" stroke="#FF7538" stroke-width="6"/>
<path d="M304.137 173.886C343.637 201.783 373.566 235.038 390.09 266.126C406.705 297.384 409.367 325.563 396.182 344.232C382.998 362.9 355.55 369.814 320.536 364.61C285.712 359.433 244.363 342.347 204.863 314.45C165.363 286.553 135.434 253.298 118.91 222.21C102.295 190.953 99.6334 162.773 112.818 144.105C126.002 125.437 153.45 118.522 188.464 123.727C223.288 128.904 264.637 145.989 304.137 173.886Z" stroke="#FF7538" stroke-width="6"/>
<path d="M207.493 179.337C246.021 150.081 286.491 131.198 320.679 124.225C355.099 117.205 382.061 122.412 395.138 139.632C408.215 156.853 405.99 184.223 389.984 215.494C374.087 246.553 345.03 280.466 306.501 309.723C267.973 338.98 227.502 357.862 193.315 364.835C158.895 371.856 131.932 366.649 118.856 349.428C105.779 332.207 108.004 304.837 124.01 273.566C139.907 242.507 168.964 208.594 207.493 179.337Z" stroke="#FF7538" stroke-width="6"/>
<path d="M259.59 146.92C307.877 148.138 351.163 160.405 382.104 179.099C413.129 197.845 431.19 222.657 430.528 248.893C429.867 275.129 410.578 299 378.648 316.157C346.804 333.268 302.954 343.338 254.668 342.12C206.381 340.903 163.094 328.636 132.154 309.941C101.129 291.196 83.0677 266.383 83.7293 240.148C84.3909 213.912 103.679 190.041 135.61 172.883C167.454 155.772 211.303 145.703 259.59 146.92Z" stroke="#FF7538" stroke-width="6"/>
<circle cx="253.891" cy="345.958" r="8.23482" transform="rotate(-90 253.891 345.958)" fill="#FF7538"/>
<circle cx="258.008" cy="144.204" r="8.23482" transform="rotate(-90 258.008 144.204)" fill="#FF7538"/>
</g>
<g filter="url(#filter2_f_0_4893)">
<path d="M296.765 226.732C314.975 265.829 326.579 303.369 330.676 332.403C332.726 346.939 332.869 359.167 331.123 368.33C329.36 377.578 325.824 383.029 321.139 385.211C316.453 387.393 310.006 386.592 301.793 381.991C293.655 377.431 284.387 369.453 274.58 358.529C254.992 336.711 233.724 303.672 215.514 264.574C197.305 225.477 185.7 187.937 181.604 158.904C179.553 144.368 179.411 132.139 181.157 122.976C182.919 113.728 186.455 108.277 191.141 106.095C195.826 103.913 202.274 104.714 210.487 109.316C218.624 113.875 227.893 121.853 237.7 132.777C257.288 154.595 278.556 187.635 296.765 226.732Z" stroke="#FF7538" stroke-width="6"/>
<path d="M291.631 258.621C274.104 298.064 254.116 331.829 236.03 354.533C226.972 365.903 218.499 374.361 211.159 379.396C203.655 384.542 198.178 385.562 194.54 383.945C190.901 382.328 187.987 377.58 186.778 368.562C185.594 359.74 186.193 347.783 188.561 333.44C193.289 304.801 204.952 267.337 222.479 227.893C240.006 188.449 259.994 154.684 278.08 131.981C287.138 120.611 295.611 112.153 302.951 107.118C310.454 101.972 315.932 100.952 319.57 102.569C323.208 104.185 326.123 108.934 327.332 117.952C328.515 126.774 327.916 138.731 325.549 153.074C320.821 181.713 309.158 219.177 291.631 258.621Z" stroke="#FF7538" stroke-width="6"/>
<path d="M298.459 182.09C333.56 206.88 360.143 236.423 374.812 264.02C389.57 291.787 391.869 316.698 380.252 333.146C368.635 349.594 344.39 355.759 313.286 351.135C282.373 346.539 245.642 331.366 210.541 306.576C175.44 281.786 148.857 252.244 134.188 224.647C119.43 196.88 117.131 171.969 128.748 155.52C140.365 139.072 164.61 132.908 195.714 137.531C226.627 142.127 263.358 157.3 298.459 182.09Z" stroke="#FF7538" stroke-width="6"/>
<path d="M212.889 186.931C247.128 160.931 283.08 144.161 313.431 137.971C344.014 131.733 367.82 136.392 379.33 151.55C390.84 166.708 388.936 190.891 374.715 218.676C360.601 246.249 334.793 276.378 300.553 302.377C266.314 328.377 230.361 345.147 200.011 351.338C169.428 357.576 145.622 352.916 134.112 337.758C122.601 322.6 124.506 298.417 138.727 270.632C152.84 243.059 178.649 212.931 212.889 186.931Z" stroke="#FF7538" stroke-width="6"/>
<path d="M259.019 158.165C301.923 159.247 340.366 170.146 367.829 186.74C395.377 203.384 411.326 225.362 410.742 248.527C410.158 271.693 393.121 292.839 364.77 308.074C336.505 323.262 297.561 332.21 254.658 331.128C211.755 330.046 173.311 319.146 145.848 302.553C118.3 285.908 102.351 263.931 102.935 240.765C103.519 217.6 120.556 196.454 148.907 181.219C177.172 166.031 216.116 157.083 259.019 158.165Z" stroke="#FF7538" stroke-width="6"/>
<circle cx="253.957" cy="334.871" r="7.32467" transform="rotate(-90 253.957 334.871)" fill="#FF7538"/>
<circle cx="257.62" cy="155.416" r="7.32467" transform="rotate(-90 257.62 155.416)" fill="#FF7538"/>
</g>
<path d="M296.765 226.732C314.975 265.829 326.579 303.369 330.676 332.403C332.726 346.939 332.869 359.167 331.123 368.33C329.36 377.578 325.824 383.029 321.139 385.211C316.453 387.393 310.006 386.592 301.793 381.991C293.655 377.431 284.387 369.453 274.58 358.529C254.992 336.711 233.724 303.672 215.514 264.574C197.305 225.477 185.7 187.937 181.604 158.904C179.553 144.368 179.411 132.139 181.157 122.976C182.919 113.728 186.455 108.277 191.141 106.095C195.826 103.913 202.274 104.714 210.487 109.316C218.624 113.875 227.893 121.853 237.7 132.777C257.288 154.595 278.556 187.635 296.765 226.732Z" stroke="#FF7538" stroke-width="6"/>
<path d="M291.631 258.621C274.104 298.064 254.116 331.829 236.03 354.533C226.972 365.903 218.499 374.361 211.159 379.396C203.655 384.542 198.178 385.562 194.54 383.945C190.901 382.328 187.987 377.58 186.778 368.562C185.594 359.74 186.193 347.783 188.561 333.44C193.289 304.801 204.952 267.337 222.479 227.893C240.006 188.449 259.994 154.684 278.08 131.981C287.138 120.611 295.611 112.153 302.951 107.118C310.454 101.972 315.932 100.952 319.57 102.569C323.208 104.185 326.123 108.934 327.332 117.952C328.515 126.774 327.916 138.731 325.549 153.074C320.821 181.713 309.158 219.177 291.631 258.621Z" stroke="#FF7538" stroke-width="6"/>
<path d="M298.459 182.09C333.56 206.88 360.143 236.423 374.812 264.02C389.57 291.787 391.869 316.698 380.252 333.146C368.635 349.594 344.39 355.759 313.286 351.135C282.373 346.539 245.642 331.366 210.541 306.576C175.44 281.786 148.857 252.244 134.188 224.647C119.43 196.88 117.131 171.969 128.748 155.52C140.365 139.072 164.61 132.908 195.714 137.531C226.627 142.127 263.358 157.3 298.459 182.09Z" stroke="#FF7538" stroke-width="6"/>
<path d="M212.889 186.931C247.128 160.931 283.08 144.161 313.431 137.971C344.014 131.733 367.82 136.392 379.33 151.55C390.84 166.708 388.936 190.891 374.715 218.676C360.601 246.249 334.793 276.378 300.553 302.377C266.314 328.377 230.361 345.147 200.011 351.338C169.428 357.576 145.622 352.916 134.112 337.758C122.601 322.6 124.506 298.417 138.727 270.632C152.84 243.059 178.649 212.931 212.889 186.931Z" stroke="#FF7538" stroke-width="6"/>
<path d="M259.019 158.165C301.923 159.247 340.366 170.146 367.829 186.74C395.377 203.384 411.326 225.362 410.742 248.527C410.158 271.693 393.121 292.839 364.77 308.074C336.505 323.262 297.561 332.21 254.658 331.128C211.755 330.046 173.311 319.146 145.848 302.553C118.3 285.908 102.351 263.931 102.935 240.765C103.519 217.6 120.556 196.454 148.907 181.219C177.172 166.031 216.116 157.083 259.019 158.165Z" stroke="#FF7538" stroke-width="6"/>
<circle cx="253.957" cy="334.871" r="7.32467" transform="rotate(-90 253.957 334.871)" fill="#FF7538"/>
<circle cx="257.62" cy="155.416" r="7.32467" transform="rotate(-90 257.62 155.416)" fill="#FF7538"/>
<defs>
<filter id="filter0_f_0_4893" x="0.710938" y="0.617188" width="512.836" height="486.614" filterUnits="userSpaceOnUse" color-interpolation-filters="sRGB">
<feFlood flood-opacity="0" result="BackgroundImageFix"/>
<feBlend mode="normal" in="SourceGraphic" in2="BackgroundImageFix" result="shape"/>
<feGaussianBlur stdDeviation="40" result="effect1_foregroundBlur_0_4893"/>
</filter>
<filter id="filter1_f_0_4893" x="76.7109" y="76.6172" width="360.836" height="334.614" filterUnits="userSpaceOnUse" color-interpolation-filters="sRGB">
<feFlood flood-opacity="0" result="BackgroundImageFix"/>
<feBlend mode="normal" in="SourceGraphic" in2="BackgroundImageFix" result="shape"/>
<feGaussianBlur stdDeviation="2" result="effect1_foregroundBlur_0_4893"/>
</filter>
<filter id="filter2_f_0_4893" x="95.9199" y="94.8584" width="321.838" height="298.516" filterUnits="userSpaceOnUse" color-interpolation-filters="sRGB">
<feFlood flood-opacity="0" result="BackgroundImageFix"/>
<feBlend mode="normal" in="SourceGraphic" in2="BackgroundImageFix" result="shape"/>
<feGaussianBlur stdDeviation="2" result="effect1_foregroundBlur_0_4893"/>
</filter>
</defs>
</svg>
