<svg width="258" height="346" viewBox="0 0 258 346" fill="none" xmlns="http://www.w3.org/2000/svg">
<g filter="url(#filter0_f_0_2493)">
<path d="M80.0001 161.917C80.0001 161.917 109.856 165.894 118.08 173.849C126.856 182.339 131.06 265.958 131.06 265.958C131.06 265.958 135.107 183.826 142.993 175.537C151.725 166.359 178 161.985 178 161.985C178 161.985 153.257 157.765 143.601 149.114C133.945 140.463 131.131 80 131.131 80C131.131 80 127.108 141.295 118.32 149.877C110.06 157.942 80.0001 161.917 80.0001 161.917Z" fill="#FF7538"/>
</g>
<path d="M80.0001 151.917C80.0001 151.917 109.856 155.894 118.08 163.849C126.856 172.339 131.06 255.958 131.06 255.958C131.06 255.958 135.107 173.826 142.993 165.537C151.725 156.359 178 151.985 178 151.985C178 151.985 153.257 147.765 143.601 139.114C133.945 130.463 131.131 70 131.131 70C131.131 70 127.108 131.295 118.32 139.877C110.06 147.942 80.0001 151.917 80.0001 151.917Z" fill="#FF7538"/>
<defs>
<filter id="filter0_f_0_2493" x="0" y="0" width="258" height="345.958" filterUnits="userSpaceOnUse" color-interpolation-filters="sRGB">
<feFlood flood-opacity="0" result="BackgroundImageFix"/>
<feBlend mode="normal" in="SourceGraphic" in2="BackgroundImageFix" result="shape"/>
<feGaussianBlur stdDeviation="40" result="effect1_foregroundBlur_0_2493"/>
</filter>
</defs>
</svg>
