<svg width="63" height="63" viewBox="0 0 63 63" fill="none" xmlns="http://www.w3.org/2000/svg">
<g opacity="0.8" filter="url(#filter0_f_2583_2191)">
<path d="M54.1142 32.0592C54.1142 44.8382 43.9615 55.1477 31.4985 55.1477C19.0355 55.1477 8.88281 44.8382 8.88281 32.0592C8.88281 19.2802 19.0355 8.9707 31.4985 8.9707C43.9615 8.9707 54.1142 19.2802 54.1142 32.0592Z" stroke="#FFF8DC" stroke-width="3"/>
<path d="M34.3865 55.5292C34.3865 57.1975 33.0677 58.4999 31.5019 58.4999C29.936 58.4999 28.6172 57.1975 28.6172 55.5292C28.6172 53.861 29.936 52.5586 31.5019 52.5586C33.0677 52.5586 34.3865 53.861 34.3865 55.5292Z" fill="#FFF8DC" stroke="#FFF8DC" stroke-width="3"/>
<path d="M34.3865 7.47063C34.3865 9.13886 33.0677 10.4413 31.5019 10.4413C29.936 10.4413 28.6172 9.13886 28.6172 7.47063C28.6172 5.80241 29.936 4.5 31.5019 4.5C33.0677 4.5 34.3865 5.80241 34.3865 7.47063Z" fill="#FFF8DC" stroke="#FFF8DC" stroke-width="3"/>
<path d="M10.2693 30.5683C10.2693 32.2365 8.95051 33.5389 7.38467 33.5389C5.81883 33.5389 4.5 32.2365 4.5 30.5683C4.5 28.9001 5.81883 27.5977 7.38467 27.5977C8.95051 27.5977 10.2693 28.9001 10.2693 30.5683Z" fill="#FFF8DC" stroke="#FFF8DC" stroke-width="3"/>
<path d="M58.4998 30.5683C58.4998 32.2365 57.181 33.5389 55.6151 33.5389C54.0493 33.5389 52.7305 32.2365 52.7305 30.5683C52.7305 28.9001 54.0493 27.5977 55.6151 27.5977C57.181 27.5977 58.4998 28.9001 58.4998 30.5683Z" fill="#FFF8DC" stroke="#FFF8DC" stroke-width="3"/>
<path d="M16.117 47.707C16.117 49.3752 14.7982 50.6776 13.2323 50.6776C11.6665 50.6776 10.3477 49.3752 10.3477 47.707C10.3477 46.0387 11.6665 44.7363 13.2323 44.7363C14.7982 44.7363 16.117 46.0387 16.117 47.707Z" fill="#FFF8DC" stroke="#FFF8DC" stroke-width="3"/>
<path d="M51.1912 47.707C51.1912 49.3752 49.8724 50.6776 48.3065 50.6776C46.7407 50.6776 45.4219 49.3752 45.4219 47.707C45.4219 46.0387 46.7407 44.7363 48.3065 44.7363C49.8724 44.7363 51.1912 46.0387 51.1912 47.707Z" fill="#FFF8DC" stroke="#FFF8DC" stroke-width="3"/>
<path d="M51.1912 13.4316C51.1912 15.0998 49.8724 16.4022 48.3065 16.4022C46.7407 16.4022 45.4219 15.0998 45.4219 13.4316C45.4219 11.7633 46.7407 10.4609 48.3065 10.4609C49.8724 10.4609 51.1912 11.7633 51.1912 13.4316Z" fill="#FFF8DC" stroke="#FFF8DC" stroke-width="3"/>
<path d="M17.5779 13.4316C17.5779 15.0998 16.2591 16.4022 14.6933 16.4022C13.1274 16.4022 11.8086 15.0998 11.8086 13.4316C11.8086 11.7633 13.1274 10.4609 14.6933 10.4609C16.2591 10.4609 17.5779 11.7633 17.5779 13.4316Z" fill="#FFF8DC" stroke="#FFF8DC" stroke-width="3"/>
</g>
<path d="M54.1142 32.0592C54.1142 44.8382 43.9615 55.1477 31.4985 55.1477C19.0355 55.1477 8.88281 44.8382 8.88281 32.0592C8.88281 19.2802 19.0355 8.9707 31.4985 8.9707C43.9615 8.9707 54.1142 19.2802 54.1142 32.0592Z" stroke="#FFF8DC" stroke-width="3"/>
<path d="M34.3865 55.5292C34.3865 57.1975 33.0677 58.4999 31.5019 58.4999C29.936 58.4999 28.6172 57.1975 28.6172 55.5292C28.6172 53.861 29.936 52.5586 31.5019 52.5586C33.0677 52.5586 34.3865 53.861 34.3865 55.5292Z" fill="#FFF8DC" stroke="#FFF8DC" stroke-width="3"/>
<path d="M34.3865 7.47063C34.3865 9.13886 33.0677 10.4413 31.5019 10.4413C29.936 10.4413 28.6172 9.13886 28.6172 7.47063C28.6172 5.80241 29.936 4.5 31.5019 4.5C33.0677 4.5 34.3865 5.80241 34.3865 7.47063Z" fill="#FFF8DC" stroke="#FFF8DC" stroke-width="3"/>
<path d="M10.2693 30.5683C10.2693 32.2365 8.95051 33.5389 7.38467 33.5389C5.81883 33.5389 4.5 32.2365 4.5 30.5683C4.5 28.9001 5.81883 27.5977 7.38467 27.5977C8.95051 27.5977 10.2693 28.9001 10.2693 30.5683Z" fill="#FFF8DC" stroke="#FFF8DC" stroke-width="3"/>
<path d="M58.4998 30.5683C58.4998 32.2365 57.181 33.5389 55.6151 33.5389C54.0493 33.5389 52.7305 32.2365 52.7305 30.5683C52.7305 28.9001 54.0493 27.5977 55.6151 27.5977C57.181 27.5977 58.4998 28.9001 58.4998 30.5683Z" fill="#FFF8DC" stroke="#FFF8DC" stroke-width="3"/>
<path d="M16.117 47.707C16.117 49.3752 14.7982 50.6776 13.2323 50.6776C11.6665 50.6776 10.3477 49.3752 10.3477 47.707C10.3477 46.0387 11.6665 44.7363 13.2323 44.7363C14.7982 44.7363 16.117 46.0387 16.117 47.707Z" fill="#FFF8DC" stroke="#FFF8DC" stroke-width="3"/>
<path d="M51.1912 47.707C51.1912 49.3752 49.8724 50.6776 48.3065 50.6776C46.7407 50.6776 45.4219 49.3752 45.4219 47.707C45.4219 46.0387 46.7407 44.7363 48.3065 44.7363C49.8724 44.7363 51.1912 46.0387 51.1912 47.707Z" fill="#FFF8DC" stroke="#FFF8DC" stroke-width="3"/>
<path d="M51.1912 13.4316C51.1912 15.0998 49.8724 16.4022 48.3065 16.4022C46.7407 16.4022 45.4219 15.0998 45.4219 13.4316C45.4219 11.7633 46.7407 10.4609 48.3065 10.4609C49.8724 10.4609 51.1912 11.7633 51.1912 13.4316Z" fill="#FFF8DC" stroke="#FFF8DC" stroke-width="3"/>
<path d="M17.5779 13.4316C17.5779 15.0998 16.2591 16.4022 14.6933 16.4022C13.1274 16.4022 11.8086 15.0998 11.8086 13.4316C11.8086 11.7633 13.1274 10.4609 14.6933 10.4609C16.2591 10.4609 17.5779 11.7633 17.5779 13.4316Z" fill="#FFF8DC" stroke="#FFF8DC" stroke-width="3"/>
<defs>
<filter id="filter0_f_2583_2191" x="0" y="0" width="63" height="63" filterUnits="userSpaceOnUse" color-interpolation-filters="sRGB">
<feFlood flood-opacity="0" result="BackgroundImageFix"/>
<feBlend mode="normal" in="SourceGraphic" in2="BackgroundImageFix" result="shape"/>
<feGaussianBlur stdDeviation="1.5" result="effect1_foregroundBlur_2583_2191"/>
</filter>
</defs>
</svg>
