<svg width="66" height="55" viewBox="0 0 66 55" fill="none" xmlns="http://www.w3.org/2000/svg">
<g filter="url(#filter0_f_2583_2154)">
<path d="M27.9953 38.5609C24.7151 38.5536 22.0705 35.9172 22.0777 32.683C22.0849 29.4489 24.7411 26.8242 28.0214 26.8314C31.3016 26.8387 33.9462 29.4752 33.939 32.7093C33.9318 35.9435 31.2756 38.5682 27.9953 38.5609Z" fill="#FFF8DC" stroke="#FFF8DC"/>
<path d="M43.4639 49.5896C41.329 49.5849 39.5833 47.8079 39.5882 45.5968C39.5931 43.3857 41.3467 41.6164 43.4815 41.6211C45.6164 41.6259 47.3621 43.4029 47.3572 45.614C47.3523 47.8251 45.5987 49.5944 43.4639 49.5896Z" fill="#FFF8DC" stroke="#FFF8DC"/>
<path d="M19.0571 47.7992C17.927 47.7967 17.0744 46.9496 17.0765 45.9803C17.0787 45.011 17.9351 44.1678 19.0651 44.1703C20.1951 44.1728 21.0478 45.0198 21.0457 45.9891C21.0435 46.9584 20.1871 47.8017 19.0571 47.7992Z" fill="#FFF8DC" stroke="#FFF8DC"/>
<path d="M8.45215 19.9998C6.31731 19.9951 4.57154 18.218 4.57644 16.0069C4.58134 13.7958 6.33498 12.0266 8.46982 12.0313C10.6047 12.036 12.3504 13.8131 12.3455 16.0242C12.3406 18.2353 10.587 20.0045 8.45215 19.9998Z" fill="#FFF8DC" stroke="#FFF8DC"/>
<path d="M52.7355 20.0989C48.4059 20.0893 44.9125 16.6091 44.922 12.3363C44.9315 8.06362 48.4402 4.59888 52.7698 4.60848C57.0994 4.61808 60.5928 8.09834 60.5833 12.3711C60.5738 16.6438 57.0651 20.1085 52.7355 20.0989Z" fill="#FFF8DC" stroke="#FFF8DC"/>
<line y1="-0.5" x2="26.1969" y2="-0.5" transform="matrix(-0.76399 0.645228 -0.652974 -0.75738 48.0312 15.8008)" stroke="#FFF8DC"/>
<line y1="-0.5" x2="13.0003" y2="-0.5" transform="matrix(-0.782617 -0.622503 0.63034 -0.77632 40.6289 44.0293)" stroke="#FFF8DC"/>
<line y1="-0.5" x2="23.2358" y2="-0.5" transform="matrix(0.717827 0.696222 -0.703579 0.710617 9.30078 16.5215)" stroke="#FFF8DC"/>
<line y1="-0.5" x2="11.3437" y2="-0.5" transform="matrix(-0.576843 0.816855 -0.82239 -0.568924 24.7461 36.7305)" stroke="#FFF8DC"/>
</g>
<path d="M27.9953 38.5609C24.7151 38.5536 22.0705 35.9172 22.0777 32.683C22.0849 29.4489 24.7411 26.8242 28.0214 26.8314C31.3016 26.8387 33.9462 29.4752 33.939 32.7093C33.9318 35.9435 31.2756 38.5682 27.9953 38.5609Z" fill="#FFF8DC" stroke="#FFF8DC"/>
<path d="M43.4639 49.5896C41.329 49.5849 39.5833 47.8079 39.5882 45.5968C39.5931 43.3857 41.3467 41.6164 43.4815 41.6211C45.6164 41.6259 47.3621 43.4029 47.3572 45.614C47.3523 47.8251 45.5987 49.5944 43.4639 49.5896Z" fill="#FFF8DC" stroke="#FFF8DC"/>
<path d="M19.0571 47.7992C17.927 47.7967 17.0744 46.9496 17.0765 45.9803C17.0787 45.011 17.9351 44.1678 19.0651 44.1703C20.1951 44.1728 21.0478 45.0198 21.0457 45.9891C21.0435 46.9584 20.1871 47.8017 19.0571 47.7992Z" fill="#FFF8DC" stroke="#FFF8DC"/>
<path d="M8.45215 19.9998C6.31731 19.9951 4.57154 18.218 4.57644 16.0069C4.58134 13.7958 6.33498 12.0266 8.46982 12.0313C10.6047 12.036 12.3504 13.8131 12.3455 16.0242C12.3406 18.2353 10.587 20.0045 8.45215 19.9998Z" fill="#FFF8DC" stroke="#FFF8DC"/>
<path d="M52.7355 20.0989C48.4059 20.0893 44.9125 16.6091 44.922 12.3363C44.9315 8.06362 48.4402 4.59888 52.7698 4.60848C57.0994 4.61808 60.5928 8.09834 60.5833 12.3711C60.5738 16.6438 57.0651 20.1085 52.7355 20.0989Z" fill="#FFF8DC" stroke="#FFF8DC"/>
<line y1="-0.5" x2="26.1969" y2="-0.5" transform="matrix(-0.76399 0.645228 -0.652974 -0.75738 48.0312 15.8008)" stroke="#FFF8DC"/>
<line y1="-0.5" x2="13.0003" y2="-0.5" transform="matrix(-0.782617 -0.622503 0.63034 -0.77632 40.6289 44.0293)" stroke="#FFF8DC"/>
<line y1="-0.5" x2="23.2358" y2="-0.5" transform="matrix(0.717827 0.696222 -0.703579 0.710617 9.30078 16.5215)" stroke="#FFF8DC"/>
<line y1="-0.5" x2="11.3437" y2="-0.5" transform="matrix(-0.576843 0.816855 -0.82239 -0.568924 24.7461 36.7305)" stroke="#FFF8DC"/>
<defs>
<filter id="filter0_f_2583_2154" x="0.078125" y="0.109375" width="65.0039" height="53.9805" filterUnits="userSpaceOnUse" color-interpolation-filters="sRGB">
<feFlood flood-opacity="0" result="BackgroundImageFix"/>
<feBlend mode="normal" in="SourceGraphic" in2="BackgroundImageFix" result="shape"/>
<feGaussianBlur stdDeviation="2" result="effect1_foregroundBlur_2583_2154"/>
</filter>
</defs>
</svg>
