<svg width="65" height="65" viewBox="0 0 65 65" fill="none" xmlns="http://www.w3.org/2000/svg">
<g filter="url(#filter0_f_2583_2300)">
<path d="M32.5126 31.3823C31.0375 31.3823 29.8407 32.5779 29.8407 34.0541C29.9677 42.0976 28.9345 49.8516 26.7569 57.6056C26.453 58.6877 26.9963 61 29.3309 61C30.4976 61 31.5697 60.2296 31.9014 59.0495C33.4077 53.7158 35.3571 45.0879 35.1834 34.0541C35.1846 32.579 33.9889 31.3823 32.5126 31.3823ZM32.4169 22.2834C25.5969 22.2756 20.8375 27.5236 20.9322 33.5376C21.0157 38.8746 20.5147 44.2151 19.4437 49.4074C19.1442 50.8524 20.0749 52.2674 21.5189 52.5647C22.9717 52.8619 24.3767 51.9346 24.6762 50.4895C25.8273 44.9131 26.365 39.1808 26.276 33.4541C26.2303 30.5651 28.4937 27.6105 32.3379 27.6272C35.8236 27.6795 38.7003 30.4482 38.7527 33.8025C38.8384 39.1519 38.4398 44.5268 37.5715 49.7837C37.3299 51.2376 38.3162 52.6137 39.7713 52.8541C41.9946 53.2248 42.7561 51.1731 42.8418 50.6532C43.7636 45.0834 44.1844 39.3856 44.0965 33.719C43.9985 27.5069 38.7593 22.3769 32.4169 22.2834ZM20.0938 20.0813C18.9472 19.1529 17.2694 19.3243 16.3354 20.4688C13.4831 23.9756 11.9501 28.4042 12.0214 32.9375C12.087 37.1212 11.7464 41.3172 11.0071 45.4118C10.7466 46.8647 11.7096 48.254 13.1625 48.5168C15.4013 48.9064 16.1762 46.868 16.2675 46.3615C17.0679 41.9262 17.4364 37.3817 17.3652 32.854C17.3128 29.5275 18.3894 26.4103 20.4824 23.8398C21.412 22.6953 21.2383 21.0132 20.0938 20.0813ZM32.2811 13.1423C30.5655 13.0966 28.8443 13.3026 27.1844 13.6956C25.7494 14.0362 24.861 15.4746 25.1994 16.9118C25.5401 18.3469 26.9807 19.2308 28.4157 18.8968C29.6459 18.6062 30.9173 18.4771 32.2009 18.486C40.5985 18.6118 47.5343 25.3327 47.6624 33.4686C47.728 37.6857 47.5199 41.9417 47.0411 46.1188C46.8741 47.585 47.9262 48.9109 49.3913 49.0779C51.2527 49.295 52.2313 47.7553 52.3504 46.7277C52.8563 42.299 53.0753 37.8421 53.0062 33.3851C52.8325 22.3914 43.5354 13.3093 32.2811 13.1423ZM60.3439 26.6631C60.0255 25.2247 58.6172 24.3029 57.1588 24.6291C55.7182 24.9475 54.8075 26.3725 55.1259 27.8142C55.6502 30.1977 55.6725 31.979 55.6491 34.672C55.6369 36.1493 56.8237 37.3539 58.2988 37.3661H58.321C59.7872 37.3661 60.9807 36.185 60.9929 34.7165C61.013 32.2473 61.0375 29.8059 60.3439 26.6631ZM55.8774 16.5634C50.4556 8.83831 41.5838 4.14361 32.1441 4.00222C24.3745 3.9087 17.1882 6.77318 11.8432 12.1203C6.68088 17.2892 3.89876 24.1548 4.01454 31.4591L4.00118 33.8493C3.95776 35.3244 5.11781 36.5557 6.59293 36.598C6.61854 36.6002 6.64637 36.6002 6.67309 36.6002C8.11146 36.6002 9.29935 35.4535 9.34165 34.0063L9.35947 31.3745C9.26706 25.5297 11.4925 20.0346 15.6251 15.8999C19.9402 11.5803 25.7939 9.25691 32.0662 9.34708C39.798 9.46175 47.0656 13.3059 51.5066 19.6327C52.3538 20.8417 54.0182 21.1301 55.2272 20.2851C56.434 19.4368 56.7257 17.7702 55.8774 16.5634Z" fill="#FFFAE6" fill-opacity="0.8"/>
</g>
<path d="M32.5126 31.3823C31.0375 31.3823 29.8407 32.5779 29.8407 34.0541C29.9677 42.0976 28.9345 49.8516 26.7569 57.6056C26.453 58.6877 26.9963 61 29.3309 61C30.4976 61 31.5697 60.2296 31.9014 59.0495C33.4077 53.7158 35.3571 45.0879 35.1834 34.0541C35.1846 32.579 33.9889 31.3823 32.5126 31.3823ZM32.4169 22.2834C25.5969 22.2756 20.8375 27.5236 20.9322 33.5376C21.0157 38.8746 20.5147 44.2151 19.4437 49.4074C19.1442 50.8524 20.0749 52.2674 21.5189 52.5647C22.9717 52.8619 24.3767 51.9346 24.6762 50.4895C25.8273 44.9131 26.365 39.1808 26.276 33.4541C26.2303 30.5651 28.4937 27.6105 32.3379 27.6272C35.8236 27.6795 38.7003 30.4482 38.7527 33.8025C38.8384 39.1519 38.4398 44.5268 37.5715 49.7837C37.3299 51.2376 38.3162 52.6137 39.7713 52.8541C41.9946 53.2248 42.7561 51.1731 42.8418 50.6532C43.7636 45.0834 44.1844 39.3856 44.0965 33.719C43.9985 27.5069 38.7593 22.3769 32.4169 22.2834ZM20.0938 20.0813C18.9472 19.1529 17.2694 19.3243 16.3354 20.4688C13.4831 23.9756 11.9501 28.4042 12.0214 32.9375C12.087 37.1212 11.7464 41.3172 11.0071 45.4118C10.7466 46.8647 11.7096 48.254 13.1625 48.5168C15.4013 48.9064 16.1762 46.868 16.2675 46.3615C17.0679 41.9262 17.4364 37.3817 17.3652 32.854C17.3128 29.5275 18.3894 26.4103 20.4824 23.8398C21.412 22.6953 21.2383 21.0132 20.0938 20.0813ZM32.2811 13.1423C30.5655 13.0966 28.8443 13.3026 27.1844 13.6956C25.7494 14.0362 24.861 15.4746 25.1994 16.9118C25.5401 18.3469 26.9807 19.2308 28.4157 18.8968C29.6459 18.6062 30.9173 18.4771 32.2009 18.486C40.5985 18.6118 47.5343 25.3327 47.6624 33.4686C47.728 37.6857 47.5199 41.9417 47.0411 46.1188C46.8741 47.585 47.9262 48.9109 49.3913 49.0779C51.2527 49.295 52.2313 47.7553 52.3504 46.7277C52.8563 42.299 53.0753 37.8421 53.0062 33.3851C52.8325 22.3914 43.5354 13.3093 32.2811 13.1423ZM60.3439 26.6631C60.0255 25.2247 58.6172 24.3029 57.1588 24.6291C55.7182 24.9475 54.8075 26.3725 55.1259 27.8142C55.6502 30.1977 55.6725 31.979 55.6491 34.672C55.6369 36.1493 56.8237 37.3539 58.2988 37.3661H58.321C59.7872 37.3661 60.9807 36.185 60.9929 34.7165C61.013 32.2473 61.0375 29.8059 60.3439 26.6631ZM55.8774 16.5634C50.4556 8.83831 41.5838 4.14361 32.1441 4.00222C24.3745 3.9087 17.1882 6.77318 11.8432 12.1203C6.68088 17.2892 3.89876 24.1548 4.01454 31.4591L4.00118 33.8493C3.95776 35.3244 5.11781 36.5557 6.59293 36.598C6.61854 36.6002 6.64637 36.6002 6.67309 36.6002C8.11146 36.6002 9.29935 35.4535 9.34165 34.0063L9.35947 31.3745C9.26706 25.5297 11.4925 20.0346 15.6251 15.8999C19.9402 11.5803 25.7939 9.25691 32.0662 9.34708C39.798 9.46175 47.0656 13.3059 51.5066 19.6327C52.3538 20.8417 54.0182 21.1301 55.2272 20.2851C56.434 19.4368 56.7257 17.7702 55.8774 16.5634Z" fill="#FFFAE6"/>
<defs>
<filter id="filter0_f_2583_2300" x="0" y="0" width="65" height="65" filterUnits="userSpaceOnUse" color-interpolation-filters="sRGB">
<feFlood flood-opacity="0" result="BackgroundImageFix"/>
<feBlend mode="normal" in="SourceGraphic" in2="BackgroundImageFix" result="shape"/>
<feGaussianBlur stdDeviation="2" result="effect1_foregroundBlur_2583_2300"/>
</filter>
</defs>
</svg>
