<svg width="72" height="72" viewBox="0 0 72 72" fill="none" xmlns="http://www.w3.org/2000/svg">
<g filter="url(#filter0_f_2583_2123)">
<path d="M50.6196 57.3807C55.2321 54.2269 58.701 49.666 60.5085 44.3788C62.3161 39.0916 62.3654 33.3617 60.6491 28.0441C58.9328 22.7266 55.5428 18.1067 50.9853 14.874C46.4278 11.6413 40.947 9.96906 35.3611 10.107C29.7752 10.2448 24.3836 12.1855 19.9911 15.6391C15.5987 19.0928 12.4408 23.8743 10.989 29.2701C9.53711 34.6658 9.86908 40.3863 11.9353 45.5779C14.0016 50.7695 17.6913 55.1536 22.4538 58.076L29.2138 47.0596C26.8279 45.5955 24.9795 43.3991 23.9443 40.7983C22.9092 38.1974 22.7429 35.3316 23.4702 32.6285C24.1976 29.9253 25.7796 27.5299 27.9801 25.7997C30.1806 24.0695 32.8816 23.0973 35.6801 23.0282C38.4785 22.9591 41.2242 23.7969 43.5074 25.4164C45.7906 27.0359 47.4889 29.3504 48.3488 32.0143C49.2086 34.6782 49.1839 37.5488 48.2783 40.1976C47.3728 42.8463 45.635 45.1312 43.3242 46.7112L50.6196 57.3807Z" fill="#FFF8DC"/>
</g>
<path d="M50.6196 57.3807C55.2321 54.2269 58.701 49.666 60.5085 44.3788C62.3161 39.0916 62.3654 33.3617 60.6491 28.0441C58.9328 22.7266 55.5428 18.1067 50.9853 14.874C46.4278 11.6413 40.947 9.96906 35.3611 10.107C29.7752 10.2448 24.3836 12.1855 19.9911 15.6391C15.5987 19.0928 12.4408 23.8743 10.989 29.2701C9.53711 34.6658 9.86908 40.3863 11.9353 45.5779C14.0016 50.7695 17.6913 55.1536 22.4538 58.076L29.2138 47.0596C26.8279 45.5955 24.9795 43.3991 23.9443 40.7983C22.9092 38.1974 22.7429 35.3316 23.4702 32.6285C24.1976 29.9253 25.7796 27.5299 27.9801 25.7997C30.1806 24.0695 32.8816 23.0973 35.6801 23.0282C38.4785 22.9591 41.2242 23.7969 43.5074 25.4164C45.7906 27.0359 47.4889 29.3504 48.3488 32.0143C49.2086 34.6782 49.1839 37.5488 48.2783 40.1976C47.3728 42.8463 45.635 45.1312 43.3242 46.7112L50.6196 57.3807Z" fill="#FFF8DC"/>
<defs>
<filter id="filter0_f_2583_2123" x="4.09766" y="4.09961" width="63.8047" height="59.9766" filterUnits="userSpaceOnUse" color-interpolation-filters="sRGB">
<feFlood flood-opacity="0" result="BackgroundImageFix"/>
<feBlend mode="normal" in="SourceGraphic" in2="BackgroundImageFix" result="shape"/>
<feGaussianBlur stdDeviation="3" result="effect1_foregroundBlur_2583_2123"/>
</filter>
</defs>
</svg>
