<svg width="49" height="72" viewBox="0 0 49 72" fill="none" xmlns="http://www.w3.org/2000/svg">
<g filter="url(#filter0_f_2583_2232)">
<path d="M20.2812 40.541L24.2644 43.2317L28.5938 40.7204" stroke="#FFF8DC"/>
<path d="M4 50.9453L24.3277 37.7825L44.6554 50.9453L24.3277 65.0485L4 50.9453Z" fill="#FFF8DC"/>
<path d="M24.3277 52.487L4.90376 39.0108L24.3277 26.4332L43.7516 39.0108L24.3277 52.487Z" stroke="#FFF8DC"/>
<path d="M24.6754 43.1589L5.25141 29.6827L24.6754 17.1051L44.0993 29.6827L24.6754 43.1589Z" stroke="#FFF8DC"/>
<path d="M24.3277 34.5495L4.90376 21.0733L24.3277 8.49568L43.7516 21.0733L24.3277 34.5495Z" stroke="#FFF8DC"/>
</g>
<path d="M20.2812 40.541L24.2644 43.2317L28.5938 40.7204" stroke="#FFF8DC"/>
<path d="M4 50.9453L24.3277 37.7825L44.6554 50.9453L24.3277 65.0485L4 50.9453Z" fill="#FFF8DC"/>
<path d="M24.3277 52.487L4.90376 39.0108L24.3277 26.4332L43.7516 39.0108L24.3277 52.487Z" stroke="#FFF8DC"/>
<path d="M24.6754 43.1589L5.25141 29.6827L24.6754 17.1051L44.0993 29.6827L24.6754 43.1589Z" stroke="#FFF8DC"/>
<path d="M24.3277 34.5495L4.90376 21.0733L24.3277 8.49568L43.7516 21.0733L24.3277 34.5495Z" stroke="#FFF8DC"/>
<defs>
<filter id="filter0_f_2583_2232" x="0" y="3.89648" width="49.0039" height="65.1523" filterUnits="userSpaceOnUse" color-interpolation-filters="sRGB">
<feFlood flood-opacity="0" result="BackgroundImageFix"/>
<feBlend mode="normal" in="SourceGraphic" in2="BackgroundImageFix" result="shape"/>
<feGaussianBlur stdDeviation="2" result="effect1_foregroundBlur_2583_2232"/>
</filter>
</defs>
</svg>
