<svg width="32" height="24" viewBox="0 0 32 24" fill="none" xmlns="http://www.w3.org/2000/svg">
<path d="M26.5478 1.98948C24.549 1.06863 22.4056 0.390164 20.1645 0.00163923C20.1237 -0.00588723 20.0829 0.0128728 20.0619 0.050334C19.7863 0.542633 19.4809 1.18483 19.267 1.68956C16.8566 1.32727 14.4586 1.32727 12.0976 1.68956C11.8838 1.1736 11.5673 0.542633 11.2904 0.050334C11.2694 0.0141272 11.2286 -0.00463282 11.1878 0.00163923C8.94798 0.388967 6.80459 1.06738 4.80455 1.98948C4.78722 1.99695 4.77239 2.00944 4.76253 2.02569C0.696985 8.12412 -0.41676 14.0727 0.129593 19.9475C0.132044 19.9762 0.148123 20.0037 0.17036 20.0212C2.85275 21.999 5.45109 23.1997 8.00113 23.9956C8.04196 24.0082 8.08518 23.9932 8.11118 23.9594C8.71438 23.1323 9.25212 22.2602 9.71312 21.3431C9.74037 21.2894 9.71437 21.2256 9.65878 21.2044C8.80584 20.8795 7.99372 20.4835 7.21251 20.0337C7.1507 19.9975 7.14574 19.9087 7.20259 19.8663C7.36703 19.7426 7.53147 19.6139 7.68844 19.4839C7.71684 19.4602 7.75641 19.4552 7.78976 19.4702C12.9221 21.8229 18.4784 21.8229 23.5502 19.4702C23.5836 19.454 23.6232 19.459 23.6528 19.4827C23.8098 19.6126 23.9742 19.7426 24.1399 19.8663C24.1967 19.9087 24.1929 19.9975 24.1312 20.0337C23.35 20.4922 22.5378 20.8795 21.6837 21.2032C21.6281 21.2244 21.6033 21.2894 21.6305 21.3431C22.1014 22.2589 22.6392 23.131 23.2313 23.9581C23.256 23.9932 23.3005 24.0082 23.3413 23.9956C25.9037 23.1997 28.5021 21.999 31.1844 20.0212C31.2079 20.0037 31.2228 19.9775 31.2252 19.9488C31.8791 13.1568 30.13 7.25704 26.5885 2.02694C26.5799 2.00944 26.5651 1.99695 26.5478 1.98948ZM10.4796 16.3703C8.93441 16.3703 7.66119 14.9461 7.66119 13.1968C7.66119 11.4476 8.90972 10.0233 10.4796 10.0233C12.0618 10.0233 13.3226 11.4601 13.2979 13.1968C13.2979 14.9461 12.0494 16.3703 10.4796 16.3703ZM20.8999 16.3703C19.3549 16.3703 18.0816 14.9461 18.0816 13.1968C18.0816 11.4476 19.3301 10.0233 20.8999 10.0233C22.4822 10.0233 23.743 11.4601 23.7183 13.1968C23.7183 14.9461 22.4822 16.3703 20.8999 16.3703Z" fill="#FFF8DC"/>
</svg>
