<svg width="13" height="10" viewBox="0 0 13 10" fill="none" xmlns="http://www.w3.org/2000/svg">
<path opacity="0.6" d="M11.005 0.828951C10.1765 0.445263 9.28795 0.162568 8.35895 0.000683014C8.34202 -0.00245301 8.32512 0.00536366 8.3164 0.0209725C8.20214 0.226097 8.07555 0.493681 7.98691 0.703984C6.98771 0.553028 5.99363 0.553028 5.01492 0.703984C4.92626 0.489 4.79508 0.226097 4.6803 0.0209725C4.67158 0.00588633 4.65468 -0.00193034 4.63778 0.000683014C3.70927 0.16207 2.82076 0.44474 1.99167 0.828951C1.98448 0.832063 1.97834 0.837266 1.97425 0.844037C0.288926 3.38505 -0.172763 5.86363 0.053721 8.31146C0.0547373 8.32344 0.0614025 8.33489 0.0706207 8.34216C1.18257 9.16627 2.25968 9.66656 3.31677 9.99817C3.33369 10.0034 3.35161 9.99715 3.36239 9.98308C3.61244 9.63845 3.83535 9.27508 4.02645 8.89296C4.03775 8.87058 4.02697 8.84402 4.00392 8.83518C3.65035 8.69981 3.3137 8.53479 2.98985 8.34738C2.96423 8.33227 2.96218 8.29531 2.98574 8.27761C3.05391 8.22608 3.12208 8.17246 3.18715 8.11831C3.19892 8.10843 3.21532 8.10634 3.22915 8.11259C5.35668 9.09288 7.66 9.09288 9.76243 8.11259C9.77628 8.10581 9.79268 8.10791 9.80497 8.11779C9.87005 8.17193 9.93821 8.22608 10.0069 8.27761C10.0304 8.29531 10.0289 8.33227 10.0033 8.34738C9.67944 8.53842 9.34276 8.69981 8.98869 8.83466C8.96565 8.84349 8.95539 8.87058 8.96666 8.89296C9.16188 9.27456 9.38479 9.63793 9.63023 9.98256C9.64049 9.99715 9.65893 10.0034 9.67585 9.99817C10.7381 9.66656 11.8152 9.16627 12.9271 8.34216C12.9368 8.33489 12.943 8.32396 12.944 8.31199C13.2151 5.48201 12.49 3.02377 11.0219 0.84456C11.0183 0.837266 11.0122 0.832063 11.005 0.828951ZM4.34417 6.82097C3.70365 6.82097 3.17585 6.22752 3.17585 5.49868C3.17585 4.76984 3.69341 4.17637 4.34417 4.17637C5.00006 4.17637 5.52273 4.77504 5.51247 5.49868C5.51247 6.22752 4.99493 6.82097 4.34417 6.82097ZM8.66381 6.82097C8.02331 6.82097 7.49551 6.22752 7.49551 5.49868C7.49551 4.76984 8.01305 4.17637 8.66381 4.17637C9.31972 4.17637 9.84237 4.77504 9.83213 5.49868C9.83213 6.22752 9.31972 6.82097 8.66381 6.82097Z" fill="#FFF8DC"/>
</svg>
