<svg width="17" height="10" viewBox="0 0 17 10" fill="none" xmlns="http://www.w3.org/2000/svg">
<path opacity="0.6" d="M4.79459 0C7.44257 0 9.58902 2.23872 9.58902 5.0001C9.58902 7.76148 7.44242 10 4.79459 10C2.14676 10 0 7.76148 0 5.0001C0 2.23872 2.14661 0 4.79459 0ZM12.4512 0.292898C13.7752 0.292898 14.8485 2.40016 14.8485 5.0001C14.8485 7.59932 13.7754 9.7073 12.4514 9.7073C11.1274 9.7073 10.0541 7.59932 10.0541 5.0001C10.0541 2.40084 11.1272 0.292898 12.4512 0.292898ZM16.1569 0.783194C16.6224 0.783194 17 2.67113 17 5.0001C17 7.32839 16.6226 9.217 16.1569 9.217C15.6912 9.217 15.3139 7.32887 15.3139 5.0001C15.3139 2.67129 15.6913 0.783194 16.1569 0.783194Z" fill="#FFF8DC"/>
</svg>
