<svg width="42" height="24" viewBox="0 0 42 24" fill="none" xmlns="http://www.w3.org/2000/svg">
<path d="M11.8455 0C18.3875 0 23.6905 5.34003 23.6905 11.9268C23.6905 18.5135 18.3871 23.8531 11.8455 23.8531C5.30376 23.8531 0 18.5135 0 11.9268C0 5.34003 5.30338 0 11.8455 0ZM30.7618 0.698652C34.0328 0.698652 36.6846 5.72514 36.6846 11.9268C36.6846 18.1267 34.0333 23.1549 30.7623 23.1549C27.4912 23.1549 24.8395 18.1267 24.8395 11.9268C24.8395 5.72674 27.4908 0.698652 30.7618 0.698652ZM39.917 1.86816C41.0671 1.86816 42 6.37148 42 11.9268C42 17.4805 41.0675 21.9854 39.917 21.9854C38.7664 21.9854 37.8344 17.4816 37.8344 11.9268C37.8344 6.37186 38.7668 1.86816 39.917 1.86816Z" fill="#FFF8DC"/>
</svg>
