<svg width="11" height="10" viewBox="0 0 11 10" fill="none" xmlns="http://www.w3.org/2000/svg">
<path opacity="0.6" d="M10.197 0.110996L0.428084 4.14335C0.428084 4.14335 -0.0337766 4.30986 0.00197324 4.61695C0.0386856 4.9246 0.415571 5.06533 0.415571 5.06533L2.87365 5.93562C2.87365 5.93562 3.61559 8.49549 3.76162 8.98259C3.90764 9.46833 4.02479 9.47978 4.02479 9.47978C4.16078 9.54196 4.28439 9.44296 4.28439 9.44296L5.87251 7.91988L8.34764 9.91656C9.01712 10.2238 9.26077 9.58369 9.26077 9.58369L11 0.354683C11 -0.260057 10.197 0.110996 10.197 0.110996ZM8.46754 8.84145L5.81957 6.70595L4.99788 7.49374L5.17855 5.81766L8.70816 2.5L3.89692 5.33288L1.76279 4.57741L9.90509 1.21625L8.46754 8.84145Z" fill="#FFF8DC"/>
</svg>
