<svg width="26" height="24" viewBox="0 0 26 24" fill="none" xmlns="http://www.w3.org/2000/svg">
<path d="M24.102 0.26639L1.01183 9.94404C1.01183 9.94404 -0.0798356 10.3437 0.00466402 11.0807C0.0914386 11.819 0.98226 12.1568 0.98226 12.1568L6.79226 14.2455C6.79226 14.2455 8.54595 20.3892 8.8911 21.5582C9.23625 22.724 9.51315 22.7515 9.51315 22.7515C9.83457 22.9007 10.1267 22.6631 10.1267 22.6631L13.8805 19.0077L19.7308 23.7997C21.3132 24.5371 21.8891 23.0009 21.8891 23.0009L26 0.851239C26 -0.624137 24.102 0.26639 24.102 0.26639ZM20.0142 21.2195L13.7554 16.0943L11.8132 17.985L12.2402 13.9624L20.5829 6L9.2109 12.7989L4.1666 10.9858L23.412 2.91899L20.0142 21.2195Z" fill="#FFF8DC"/>
</svg>
