<svg width="1182" height="166" viewBox="0 0 1182 166" fill="none" xmlns="http://www.w3.org/2000/svg">
<g filter="url(#filter0_f_2583_1907)">
<path d="M300.393 9V113.733C300.393 115.802 299.51 117.694 297.763 119.431C296.233 120.894 294.114 121.635 291.425 121.635H204.004V9H170.508V154.843H291.425C302.905 154.843 312.932 150.531 321.507 141.926C329.769 133.732 333.89 123.586 333.89 111.529V9H300.393Z" fill="#FFF8DC" fill-opacity="0.8"/>
<path d="M396.116 9C384.288 9 374.268 13.1363 365.996 21.3893C357.665 29.6033 353.5 39.5733 353.5 51.2992V154.843H387.255V51.1041C387.255 48.7043 388.119 46.6362 389.868 44.8997C391.617 43.1632 393.699 42.3048 396.116 42.3048H480.326V154.843H514.081V9H396.116Z" fill="#FFF8DC" fill-opacity="0.8"/>
<path d="M768.957 81.4474C768.957 69.6487 778.582 60.0918 790.44 60.0918C802.298 60.0918 811.903 69.6487 811.903 81.4474C811.903 93.2461 802.298 102.823 790.44 102.823C778.582 102.823 768.957 93.2461 768.957 81.4474Z" fill="#FFF8DC" fill-opacity="0.8"/>
<path d="M752.001 9C740.451 9 730.345 13.2924 721.682 21.8966C713.376 30.0911 709.203 40.2366 709.203 52.3138V111.529C709.203 123.606 713.376 133.732 721.682 141.926C730.345 150.531 740.451 154.843 752.001 154.843H828.854C840.423 154.843 850.529 150.531 859.172 141.926C867.498 133.732 871.651 123.606 871.651 111.529V9H752.001ZM841.748 100.622C841.748 108.251 839.118 114.65 833.857 119.84C828.399 125.264 822.011 127.996 814.694 127.996H766.141C758.843 127.996 752.455 125.264 746.977 119.84C741.736 114.65 739.106 108.251 739.106 100.622V63.2007C739.106 55.5721 741.736 49.1725 746.977 43.9827C752.455 38.5587 758.843 35.8467 766.141 35.8467H841.748V100.622Z" fill="#FFF8DC" fill-opacity="0.8"/>
<path d="M811.903 81.4474C811.903 93.2461 802.298 102.823 790.44 102.823C778.582 102.823 768.957 93.2461 768.957 81.4474C768.957 69.6487 778.582 60.0918 790.44 60.0918C802.298 60.0918 811.903 69.6487 811.903 81.4474Z" fill="#FFF8DC" fill-opacity="0.8"/>
<path d="M116.484 9V42.3109L116.445 42.3499V113.75C116.445 115.739 115.581 117.651 113.833 119.445C112.222 120.908 110.101 121.649 107.488 121.649H9V154.843H107.488C118.959 154.843 128.997 150.552 137.6 141.951C145.85 133.74 149.975 123.618 149.975 111.546V9.05851L116.484 9Z" fill="#FFF8DC" fill-opacity="0.8"/>
<path d="M104.236 9H36.082V42.4416H104.236V9Z" fill="#FFF8DC" fill-opacity="0.8"/>
<path d="M811.903 81.4474C811.903 93.2461 802.298 102.823 790.44 102.823C778.582 102.823 768.957 93.2461 768.957 81.4474C768.957 69.6487 778.582 60.0918 790.44 60.0918C802.298 60.0918 811.903 69.6487 811.903 81.4474Z" fill="#FFF8DC" fill-opacity="0.8"/>
<path d="M686.811 74.1267V154.843H530.898V51.9236C530.898 40.1196 535.142 30.013 543.648 21.6039C552.134 13.2143 562.298 9 574.1 9H680.555V42.3048H574.1C571.673 42.3048 569.482 43.3193 567.528 45.3094C565.574 47.1825 564.587 49.3872 564.587 51.9236V121.635H653.122V106.554H616.769V74.1267H686.811Z" fill="#FFF8DC" fill-opacity="0.8"/>
</g>
<g filter="url(#filter1_i_2583_1907)">
<path d="M300.393 9V113.733C300.393 115.802 299.51 117.694 297.763 119.431C296.233 120.894 294.114 121.635 291.425 121.635H204.004V9H170.508V154.843H291.425C302.905 154.843 312.932 150.531 321.507 141.926C329.769 133.732 333.89 123.586 333.89 111.529V9H300.393Z" fill="#FFF8DC"/>
<path d="M396.116 9C384.288 9 374.268 13.1363 365.996 21.3893C357.665 29.6033 353.5 39.5733 353.5 51.2992V154.843H387.255V51.1041C387.255 48.7043 388.119 46.6362 389.868 44.8997C391.617 43.1632 393.699 42.3048 396.116 42.3048H480.326V154.843H514.081V9H396.116Z" fill="#FFF8DC"/>
<path d="M768.957 81.4474C768.957 69.6487 778.582 60.0918 790.44 60.0918C802.298 60.0918 811.903 69.6487 811.903 81.4474C811.903 93.2461 802.298 102.823 790.44 102.823C778.582 102.823 768.957 93.2461 768.957 81.4474Z" fill="#FFF8DC"/>
<path d="M752.001 9C740.451 9 730.345 13.2924 721.682 21.8966C713.376 30.0911 709.203 40.2366 709.203 52.3138V111.529C709.203 123.606 713.376 133.732 721.682 141.926C730.345 150.531 740.451 154.843 752.001 154.843H828.854C840.423 154.843 850.529 150.531 859.172 141.926C867.498 133.732 871.651 123.606 871.651 111.529V9H752.001ZM841.748 100.622C841.748 108.251 839.118 114.65 833.857 119.84C828.399 125.264 822.011 127.996 814.694 127.996H766.141C758.843 127.996 752.455 125.264 746.977 119.84C741.736 114.65 739.106 108.251 739.106 100.622V63.2007C739.106 55.5721 741.736 49.1725 746.977 43.9827C752.455 38.5587 758.843 35.8467 766.141 35.8467H841.748V100.622Z" fill="#FFF8DC"/>
<path d="M811.903 81.4474C811.903 93.2461 802.298 102.823 790.44 102.823C778.582 102.823 768.957 93.2461 768.957 81.4474C768.957 69.6487 778.582 60.0918 790.44 60.0918C802.298 60.0918 811.903 69.6487 811.903 81.4474Z" fill="#FFF8DC"/>
<path d="M116.484 9V42.3109L116.445 42.3499V113.75C116.445 115.739 115.581 117.651 113.833 119.445C112.222 120.908 110.101 121.649 107.488 121.649H9V154.843H107.488C118.959 154.843 128.997 150.552 137.6 141.951C145.85 133.74 149.975 123.618 149.975 111.546V9.05851L116.484 9Z" fill="#FFF8DC"/>
<path d="M104.236 9H36.082V42.4416H104.236V9Z" fill="#FFF8DC"/>
<path d="M811.903 81.4474C811.903 93.2461 802.298 102.823 790.44 102.823C778.582 102.823 768.957 93.2461 768.957 81.4474C768.957 69.6487 778.582 60.0918 790.44 60.0918C802.298 60.0918 811.903 69.6487 811.903 81.4474Z" fill="#FFF8DC"/>
<path d="M686.811 74.1267V154.843H530.898V51.9236C530.898 40.1196 535.142 30.013 543.648 21.6039C552.134 13.2143 562.298 9 574.1 9H680.555V42.3048H574.1C571.673 42.3048 569.482 43.3193 567.528 45.3094C565.574 47.1825 564.587 49.3872 564.587 51.9236V121.635H653.122V106.554H616.769V74.1267H686.811Z" fill="#FFF8DC"/>
</g>
<g filter="url(#filter2_if_2583_1907)">
<path d="M959.58 41.3965H1008.37V57.6256H1024.63V73.8547H1040.89V155H1008.37V122.542H959.58V155H927.055V73.8547H943.318V57.6256H959.58V41.3965ZM992.106 57.6256H975.843V73.8547H959.58V106.313H1008.37V73.8547H992.106V57.6256ZM1073.42 41.3965H1171V57.6256H1138.47V138.771H1171V155H1073.42V138.771H1105.95V57.6256H1073.42V41.3965Z" stroke="#9C7BDF" stroke-width="4"/>
</g>
<path d="M959.58 41.3965H1008.37V57.6256H1024.63V73.8547H1040.89V155H1008.37V122.542H959.58V155H927.055V73.8547H943.318V57.6256H959.58V41.3965ZM992.106 57.6256H975.843V73.8547H959.58V106.313H1008.37V73.8547H992.106V57.6256ZM1073.42 41.3965H1171V57.6256H1138.47V138.771H1171V155H1073.42V138.771H1105.95V57.6256H1073.42V41.3965Z" stroke="#FFF8DC" stroke-width="4"/>
<defs>
<filter id="filter0_f_2583_1907" x="0.6" y="0.6" width="879.452" height="162.642" filterUnits="userSpaceOnUse" color-interpolation-filters="sRGB">
<feFlood flood-opacity="0" result="BackgroundImageFix"/>
<feBlend mode="normal" in="SourceGraphic" in2="BackgroundImageFix" result="shape"/>
<feGaussianBlur stdDeviation="4.2" result="effect1_foregroundBlur_2583_1907"/>
</filter>
<filter id="filter1_i_2583_1907" x="9" y="9" width="863.652" height="145.842" filterUnits="userSpaceOnUse" color-interpolation-filters="sRGB">
<feFlood flood-opacity="0" result="BackgroundImageFix"/>
<feBlend mode="normal" in="SourceGraphic" in2="BackgroundImageFix" result="shape"/>
<feColorMatrix in="SourceAlpha" type="matrix" values="0 0 0 0 0 0 0 0 0 0 0 0 0 0 0 0 0 0 127 0" result="hardAlpha"/>
<feOffset dx="1"/>
<feGaussianBlur stdDeviation="5"/>
<feComposite in2="hardAlpha" operator="arithmetic" k2="-1" k3="1"/>
<feColorMatrix type="matrix" values="0 0 0 0 0.611765 0 0 0 0 0.482353 0 0 0 0 0.87451 0 0 0 1 0"/>
<feBlend mode="normal" in2="shape" result="effect1_innerShadow_2583_1907"/>
</filter>
<filter id="filter2_if_2583_1907" x="916.855" y="31.1965" width="264.341" height="134.004" filterUnits="userSpaceOnUse" color-interpolation-filters="sRGB">
<feFlood flood-opacity="0" result="BackgroundImageFix"/>
<feBlend mode="normal" in="SourceGraphic" in2="BackgroundImageFix" result="shape"/>
<feColorMatrix in="SourceAlpha" type="matrix" values="0 0 0 0 0 0 0 0 0 0 0 0 0 0 0 0 0 0 127 0" result="hardAlpha"/>
<feOffset dy="4"/>
<feGaussianBlur stdDeviation="6.15"/>
<feComposite in2="hardAlpha" operator="arithmetic" k2="-1" k3="1"/>
<feColorMatrix type="matrix" values="0 0 0 0 0.611765 0 0 0 0 0.482353 0 0 0 0 0.87451 0 0 0 1 0"/>
<feBlend mode="normal" in2="shape" result="effect1_innerShadow_2583_1907"/>
<feGaussianBlur stdDeviation="4.1" result="effect2_foregroundBlur_2583_1907"/>
</filter>
</defs>
</svg>
