<svg width="310" height="111" viewBox="0 0 310 111" fill="none" xmlns="http://www.w3.org/2000/svg">
<g filter="url(#filter0_i_3611_1037)">
<path d="M104.714 0V37.6367C104.714 38.3799 104.397 39.06 103.769 39.684C103.219 40.2099 102.458 40.4763 101.492 40.4763H70.0763V0H58.0391V52.4096H101.492C105.617 52.4096 109.22 50.8601 112.302 47.7681C115.271 44.8233 116.751 41.1775 116.751 36.8445V0H104.714Z" fill="#FFF8DC"/>
<path d="M139.111 0C134.861 0 131.26 1.4864 128.287 4.45219C125.294 7.40395 123.797 10.9867 123.797 15.2005V52.4096H135.927V15.1304C135.927 14.268 136.238 13.5248 136.866 12.9008C137.494 12.2768 138.243 11.9683 139.111 11.9683H169.373V52.4096H181.503V0H139.111Z" fill="#FFF8DC"/>
<path d="M273.098 26.0337C273.098 21.7937 276.556 18.3594 280.818 18.3594C285.079 18.3594 288.531 21.7937 288.531 26.0337C288.531 30.2736 285.079 33.7151 280.818 33.7151C276.556 33.7151 273.098 30.2736 273.098 26.0337Z" fill="#FFF8DC"/>
<path d="M267.001 0C262.85 0 259.218 1.54249 256.106 4.63448C253.121 7.57923 251.621 11.2251 251.621 15.5651V36.8445C251.621 41.1845 253.121 44.8233 256.106 47.7681C259.218 50.8601 262.85 52.4096 267.001 52.4096H294.618C298.776 52.4096 302.408 50.8601 305.513 47.7681C308.506 44.8233 309.998 41.1845 309.998 36.8445V0H267.001ZM299.252 32.9251C299.252 35.6666 298.307 37.9663 296.417 39.8313C294.455 41.7804 292.159 42.762 289.53 42.762H272.082C269.46 42.762 267.164 41.7804 265.195 39.8313C263.312 37.9663 262.367 35.6666 262.367 32.9251V19.4774C262.367 16.736 263.312 14.4363 265.195 12.5713C267.164 10.6221 269.46 9.64757 272.082 9.64757H299.252V32.9251Z" fill="#FFF8DC"/>
<path d="M288.531 26.0337C288.531 30.2736 285.079 33.7151 280.818 33.7151C276.556 33.7151 273.098 30.2736 273.098 26.0337C273.098 21.7937 276.556 18.3594 280.818 18.3594C285.079 18.3594 288.531 21.7937 288.531 26.0337Z" fill="#FFF8DC"/>
<path d="M38.6253 0V11.9705L38.6112 11.9845V37.6427C38.6112 38.3575 38.3006 39.0444 37.6724 39.6892C37.0936 40.2148 36.3312 40.4811 35.3924 40.4811H0V52.4096H35.3924C39.5147 52.4096 43.1217 50.8677 46.2134 47.777C49.1781 44.8264 50.6604 41.189 50.6604 36.8507V0.0210255L38.6253 0Z" fill="#FFF8DC"/>
<path d="M34.2258 0H9.73438V12.0175H34.2258V0Z" fill="#FFF8DC"/>
<path d="M288.531 26.0337C288.531 30.2736 285.079 33.7151 280.818 33.7151C276.556 33.7151 273.098 30.2736 273.098 26.0337C273.098 21.7937 276.556 18.3594 280.818 18.3594C285.079 18.3594 288.531 21.7937 288.531 26.0337Z" fill="#FFF8DC"/>
<path d="M243.579 23.4038V52.4096H187.551V15.4249C187.551 11.183 189.076 7.55119 192.132 4.52931C195.182 1.51444 198.834 0 203.076 0H241.331V11.9683H203.076C202.203 11.9683 201.416 12.3329 200.714 13.0481C200.012 13.7211 199.657 14.5134 199.657 15.4249V40.4763H231.473V35.0566H218.409V23.4038H243.579Z" fill="#FFF8DC"/>
</g>
<path d="M232.5 75V69.5H249.5V75V75.5H250H255.5V81V81.5H256H261.5V110.5H250.5V99V98.5H250H232H231.5V99V110.5H220.5V81.5H226H226.5V81V75.5H232H232.5V75ZM244.5 75V74.5H244H238H237.5V75V80.5H232H231.5V81V93V93.5H232H250H250.5V93V81V80.5H250H244.5V75ZM286 74.5H274.5V69.5H309.5V74.5H298H297.5V75V105V105.5H298H309.5V110.5H274.5V105.5H286H286.5V105V75V74.5H286Z" stroke="#FFF8DC"/>
<defs>
<filter id="filter0_i_3611_1037" x="0" y="0" width="310.996" height="52.4102" filterUnits="userSpaceOnUse" color-interpolation-filters="sRGB">
<feFlood flood-opacity="0" result="BackgroundImageFix"/>
<feBlend mode="normal" in="SourceGraphic" in2="BackgroundImageFix" result="shape"/>
<feColorMatrix in="SourceAlpha" type="matrix" values="0 0 0 0 0 0 0 0 0 0 0 0 0 0 0 0 0 0 127 0" result="hardAlpha"/>
<feOffset dx="1"/>
<feGaussianBlur stdDeviation="2"/>
<feComposite in2="hardAlpha" operator="arithmetic" k2="-1" k3="1"/>
<feColorMatrix type="matrix" values="0 0 0 0 0.611765 0 0 0 0 0.482353 0 0 0 0 0.87451 0 0 0 0.3 0"/>
<feBlend mode="normal" in2="shape" result="effect1_innerShadow_3611_1037"/>
</filter>
</defs>
</svg>
