<svg width="172" height="287" viewBox="0 0 172 287" fill="none" xmlns="http://www.w3.org/2000/svg">
<g opacity="0.8" filter="url(#filter0_f_2455_3444)">
<path d="M91.9999 162.876C91.9999 162.876 70.065 166.853 64.023 174.808C57.5749 183.298 54.4863 266.917 54.4863 266.917C54.4863 266.917 51.5134 184.785 45.7192 176.496C39.3037 167.317 20 162.944 20 162.944C20 162.944 38.1787 158.724 45.2729 150.073C52.3672 141.422 54.4341 80.959 54.4341 80.959C54.4341 80.959 57.3899 142.254 63.8469 150.836C69.9152 158.901 91.9999 162.876 91.9999 162.876Z" fill="#FF7538"/>
</g>
<path d="M91.9999 152.876C91.9999 152.876 66.0828 153.004 60.0408 160.959C53.5927 169.449 54.4863 199.959 54.4863 199.959C54.4863 199.959 55.5493 169.249 49.7551 160.959C43.3397 151.781 20 152.944 20 152.944C20 152.944 42.6608 154.11 49.7551 145.459C56.8493 136.808 54.4341 105.459 54.4341 105.459C54.4341 105.459 53.5839 136.877 60.0408 145.459C66.1091 153.524 91.9999 152.876 91.9999 152.876Z" fill="#FF7538"/>
<defs>
<filter id="filter0_f_2455_3444" x="-60" y="0.958984" width="232" height="345.959" filterUnits="userSpaceOnUse" color-interpolation-filters="sRGB">
<feFlood flood-opacity="0" result="BackgroundImageFix"/>
<feBlend mode="normal" in="SourceGraphic" in2="BackgroundImageFix" result="shape"/>
<feGaussianBlur stdDeviation="40" result="effect1_foregroundBlur_2455_3444"/>
</filter>
</defs>
</svg>
