<svg width="232" height="346" viewBox="0 0 232 346" fill="none" xmlns="http://www.w3.org/2000/svg">
<g opacity="0.8" filter="url(#filter0_f_2583_1946)">
<path d="M152 161.917C152 161.917 130.065 165.894 124.023 173.849C117.575 182.339 114.486 265.958 114.486 265.958C114.486 265.958 111.513 183.826 105.719 175.537C99.3037 166.359 80 161.985 80 161.985C80 161.985 98.1787 157.765 105.273 149.114C112.367 140.463 114.434 80 114.434 80C114.434 80 117.39 141.295 123.847 149.877C129.915 157.942 152 161.917 152 161.917Z" fill="#FF7538"/>
</g>
<path d="M152 151.917C152 151.917 126.083 152.045 120.041 160C113.593 168.49 114.486 199 114.486 199C114.486 199 115.549 168.29 109.755 160C103.34 150.822 80 151.985 80 151.985C80 151.985 102.661 153.151 109.755 144.5C116.849 135.849 114.434 104.5 114.434 104.5C114.434 104.5 113.584 135.918 120.041 144.5C126.109 152.565 152 151.917 152 151.917Z" fill="#FF7538"/>
<defs>
<filter id="filter0_f_2583_1946" x="0" y="0" width="232" height="345.959" filterUnits="userSpaceOnUse" color-interpolation-filters="sRGB">
<feFlood flood-opacity="0" result="BackgroundImageFix"/>
<feBlend mode="normal" in="SourceGraphic" in2="BackgroundImageFix" result="shape"/>
<feGaussianBlur stdDeviation="40" result="effect1_foregroundBlur_2583_1946"/>
</filter>
</defs>
</svg>
