<svg width="1466" height="343" viewBox="0 0 1466 343" fill="none" xmlns="http://www.w3.org/2000/svg">
<g opacity="0.6" filter="url(#filter0_f_11_61)">
<rect x="193.109" y="6.33008" width="3.89812" height="3.88235" fill="#FFF8DC"/>
<rect x="6" y="6.33008" width="3.89812" height="3.88235" fill="#FFF8DC"/>
<rect x="567.33" y="6.33008" width="3.89812" height="3.88235" fill="#FFF8DC"/>
<rect x="380.221" y="6.33008" width="3.89812" height="3.88235" fill="#FFF8DC"/>
<rect x="754.439" y="6.33008" width="3.89812" height="3.88235" fill="#FFF8DC"/>
<rect x="1081.88" y="6.33008" width="3.89812" height="3.88235" fill="#FFF8DC"/>
<rect x="1315.77" y="6.33008" width="3.89812" height="3.88235" fill="#FFF8DC"/>
<rect x="286.664" y="6.33008" width="3.89812" height="3.88235" fill="#FFF8DC"/>
<rect x="99.5547" y="6.33008" width="3.89812" height="3.88235" fill="#FFF8DC"/>
<rect x="660.885" y="6.33008" width="3.89812" height="3.88235" fill="#FFF8DC"/>
<rect x="988.326" y="6.33008" width="3.89812" height="3.88235" fill="#FFF8DC"/>
<rect x="473.775" y="6.33008" width="3.89812" height="3.88235" fill="#FFF8DC"/>
<rect x="847.994" y="6.33008" width="3.89812" height="3.88235" fill="#FFF8DC"/>
<rect x="1175.44" y="6.33008" width="3.89812" height="3.88235" fill="#FFF8DC"/>
<rect x="1409.32" y="6.33008" width="3.89812" height="3.88235" fill="#FFF8DC"/>
<rect x="239.887" y="6.33008" width="3.89812" height="3.88235" fill="#FFF8DC"/>
<rect x="52.7773" y="6.33008" width="3.89812" height="3.88235" fill="#FFF8DC"/>
<rect x="614.107" y="6.33008" width="3.89812" height="3.88235" fill="#FFF8DC"/>
<rect x="941.549" y="6.33008" width="3.89812" height="3.88235" fill="#FFF8DC"/>
<rect x="426.998" y="6.33008" width="3.89812" height="3.88235" fill="#FFF8DC"/>
<rect x="801.217" y="6.33008" width="3.89812" height="3.88235" fill="#FFF8DC"/>
<rect x="1128.66" y="6.33008" width="3.89812" height="3.88235" fill="#FFF8DC"/>
<rect x="1362.55" y="6.33008" width="3.89812" height="3.88235" fill="#FFF8DC"/>
<rect x="333.441" y="6.33008" width="3.89812" height="3.88235" fill="#FFF8DC"/>
<rect x="146.332" y="6.33008" width="3.89812" height="3.88235" fill="#FFF8DC"/>
<rect x="707.662" y="6.33008" width="3.89812" height="3.88235" fill="#FFF8DC"/>
<rect x="1035.11" y="6.33008" width="3.89812" height="3.88235" fill="#FFF8DC"/>
<rect x="1268.99" y="6.33008" width="3.89812" height="3.88235" fill="#FFF8DC"/>
<rect x="520.553" y="6.33008" width="3.89812" height="3.88235" fill="#FFF8DC"/>
<rect x="894.771" y="6.33008" width="3.89812" height="3.88235" fill="#FFF8DC"/>
<rect x="1222.21" y="6.33008" width="3.89812" height="3.88235" fill="#FFF8DC"/>
<rect x="1456.1" y="6.33008" width="3.89812" height="3.88235" fill="#FFF8DC"/>
<rect x="193.109" y="146.094" width="3.89812" height="3.88235" fill="#FFF8DC"/>
<rect x="6" y="146.094" width="3.89812" height="3.88235" fill="#FFF8DC"/>
<rect x="567.33" y="146.094" width="3.89812" height="3.88235" fill="#FFF8DC"/>
<rect x="380.221" y="146.094" width="3.89812" height="3.88235" fill="#FFF8DC"/>
<rect x="754.439" y="146.094" width="3.89812" height="3.88235" fill="#FFF8DC"/>
<rect x="1081.88" y="146.094" width="3.89812" height="3.88235" fill="#FFF8DC"/>
<rect x="1315.77" y="146.094" width="3.89812" height="3.88235" fill="#FFF8DC"/>
<rect x="286.664" y="146.094" width="3.89812" height="3.88235" fill="#FFF8DC"/>
<rect x="99.5547" y="146.094" width="3.89812" height="3.88235" fill="#FFF8DC"/>
<rect x="660.885" y="146.094" width="3.89812" height="3.88235" fill="#FFF8DC"/>
<rect x="988.326" y="146.094" width="3.89812" height="3.88235" fill="#FFF8DC"/>
<rect x="473.775" y="146.094" width="3.89812" height="3.88235" fill="#FFF8DC"/>
<rect x="847.994" y="146.094" width="3.89812" height="3.88235" fill="#FFF8DC"/>
<rect x="1175.44" y="146.094" width="3.89812" height="3.88235" fill="#FFF8DC"/>
<rect x="1409.32" y="146.094" width="3.89812" height="3.88235" fill="#FFF8DC"/>
<rect x="239.887" y="146.094" width="3.89812" height="3.88235" fill="#FFF8DC"/>
<rect x="52.7773" y="146.094" width="3.89812" height="3.88235" fill="#FFF8DC"/>
<rect x="614.107" y="146.094" width="3.89812" height="3.88235" fill="#FFF8DC"/>
<rect x="941.549" y="146.094" width="3.89812" height="3.88235" fill="#FFF8DC"/>
<rect x="426.998" y="146.094" width="3.89812" height="3.88235" fill="#FFF8DC"/>
<rect x="801.217" y="146.094" width="3.89812" height="3.88235" fill="#FFF8DC"/>
<rect x="1128.66" y="146.094" width="3.89812" height="3.88235" fill="#FFF8DC"/>
<rect x="1362.55" y="146.094" width="3.89812" height="3.88235" fill="#FFF8DC"/>
<rect x="333.441" y="146.094" width="3.89812" height="3.88235" fill="#FFF8DC"/>
<rect x="146.332" y="146.094" width="3.89812" height="3.88235" fill="#FFF8DC"/>
<rect x="707.662" y="146.094" width="3.89812" height="3.88235" fill="#FFF8DC"/>
<rect x="1035.11" y="146.094" width="3.89812" height="3.88235" fill="#FFF8DC"/>
<rect x="1268.99" y="146.094" width="3.89812" height="3.88235" fill="#FFF8DC"/>
<rect x="520.553" y="146.094" width="3.89812" height="3.88235" fill="#FFF8DC"/>
<rect x="894.771" y="146.094" width="3.89812" height="3.88235" fill="#FFF8DC"/>
<rect x="1222.21" y="146.094" width="3.89812" height="3.88235" fill="#FFF8DC"/>
<rect x="1456.1" y="146.094" width="3.89812" height="3.88235" fill="#FFF8DC"/>
<rect x="193.109" y="52.918" width="3.89812" height="3.88235" fill="#FFF8DC"/>
<rect x="6" y="52.918" width="3.89812" height="3.88235" fill="#FFF8DC"/>
<rect x="567.33" y="52.918" width="3.89812" height="3.88235" fill="#FFF8DC"/>
<rect x="380.221" y="52.918" width="3.89812" height="3.88235" fill="#FFF8DC"/>
<rect x="754.439" y="52.918" width="3.89812" height="3.88235" fill="#FFF8DC"/>
<rect x="1081.88" y="52.918" width="3.89812" height="3.88235" fill="#FFF8DC"/>
<rect x="1315.77" y="52.918" width="3.89812" height="3.88235" fill="#FFF8DC"/>
<rect x="286.664" y="52.918" width="3.89812" height="3.88235" fill="#FFF8DC"/>
<rect x="99.5547" y="52.918" width="3.89812" height="3.88235" fill="#FFF8DC"/>
<rect x="660.885" y="52.918" width="3.89812" height="3.88235" fill="#FFF8DC"/>
<rect x="988.326" y="52.918" width="3.89812" height="3.88235" fill="#FFF8DC"/>
<rect x="473.775" y="52.918" width="3.89812" height="3.88235" fill="#FFF8DC"/>
<rect x="847.994" y="52.918" width="3.89812" height="3.88235" fill="#FFF8DC"/>
<rect x="1175.44" y="52.918" width="3.89812" height="3.88235" fill="#FFF8DC"/>
<rect x="1409.32" y="52.918" width="3.89812" height="3.88235" fill="#FFF8DC"/>
<rect x="239.887" y="52.918" width="3.89812" height="3.88235" fill="#FFF8DC"/>
<rect x="52.7773" y="52.918" width="3.89812" height="3.88235" fill="#FFF8DC"/>
<rect x="614.107" y="52.918" width="3.89812" height="3.88235" fill="#FFF8DC"/>
<rect x="941.549" y="52.918" width="3.89812" height="3.88235" fill="#FFF8DC"/>
<rect x="426.998" y="52.918" width="3.89812" height="3.88235" fill="#FFF8DC"/>
<rect x="801.217" y="52.918" width="3.89812" height="3.88235" fill="#FFF8DC"/>
<rect x="1128.66" y="52.918" width="3.89812" height="3.88235" fill="#FFF8DC"/>
<rect x="1362.55" y="52.918" width="3.89812" height="3.88235" fill="#FFF8DC"/>
<rect x="333.441" y="52.918" width="3.89812" height="3.88235" fill="#FFF8DC"/>
<rect x="146.332" y="52.918" width="3.89812" height="3.88235" fill="#FFF8DC"/>
<rect x="707.662" y="52.918" width="3.89812" height="3.88235" fill="#FFF8DC"/>
<rect x="1035.11" y="52.918" width="3.89812" height="3.88235" fill="#FFF8DC"/>
<rect x="1268.99" y="52.918" width="3.89812" height="3.88235" fill="#FFF8DC"/>
<rect x="520.553" y="52.918" width="3.89812" height="3.88235" fill="#FFF8DC"/>
<rect x="894.771" y="52.918" width="3.89812" height="3.88235" fill="#FFF8DC"/>
<rect x="1222.21" y="52.918" width="3.89812" height="3.88235" fill="#FFF8DC"/>
<rect x="1456.1" y="52.918" width="3.89812" height="3.88235" fill="#FFF8DC"/>
<rect x="193.109" y="192.682" width="3.89812" height="3.88235" fill="#FFF8DC"/>
<rect x="6" y="192.682" width="3.89812" height="3.88235" fill="#FFF8DC"/>
<rect x="567.33" y="192.682" width="3.89812" height="3.88235" fill="#FFF8DC"/>
<rect x="380.221" y="192.682" width="3.89812" height="3.88235" fill="#FFF8DC"/>
<rect x="754.439" y="192.682" width="3.89812" height="3.88235" fill="#FFF8DC"/>
<rect x="1081.88" y="192.682" width="3.89812" height="3.88235" fill="#FFF8DC"/>
<rect x="1315.77" y="192.682" width="3.89812" height="3.88235" fill="#FFF8DC"/>
<rect x="286.664" y="192.682" width="3.89812" height="3.88235" fill="#FFF8DC"/>
<rect x="99.5547" y="192.682" width="3.89812" height="3.88235" fill="#FFF8DC"/>
<rect x="660.885" y="192.682" width="3.89812" height="3.88235" fill="#FFF8DC"/>
<rect x="988.326" y="192.682" width="3.89812" height="3.88235" fill="#FFF8DC"/>
<rect x="473.775" y="192.682" width="3.89812" height="3.88235" fill="#FFF8DC"/>
<rect x="847.994" y="192.682" width="3.89812" height="3.88235" fill="#FFF8DC"/>
<rect x="1175.44" y="192.682" width="3.89812" height="3.88235" fill="#FFF8DC"/>
<rect x="1409.32" y="192.682" width="3.89812" height="3.88235" fill="#FFF8DC"/>
<rect x="239.887" y="192.682" width="3.89812" height="3.88235" fill="#FFF8DC"/>
<rect x="52.7773" y="192.682" width="3.89812" height="3.88235" fill="#FFF8DC"/>
<rect x="614.107" y="192.682" width="3.89812" height="3.88235" fill="#FFF8DC"/>
<rect x="941.549" y="192.682" width="3.89812" height="3.88235" fill="#FFF8DC"/>
<rect x="426.998" y="192.682" width="3.89812" height="3.88235" fill="#FFF8DC"/>
<rect x="801.217" y="192.682" width="3.89812" height="3.88235" fill="#FFF8DC"/>
<rect x="1128.66" y="192.682" width="3.89812" height="3.88235" fill="#FFF8DC"/>
<rect x="1362.55" y="192.682" width="3.89812" height="3.88235" fill="#FFF8DC"/>
<rect x="333.441" y="192.682" width="3.89812" height="3.88235" fill="#FFF8DC"/>
<rect x="146.332" y="192.682" width="3.89812" height="3.88235" fill="#FFF8DC"/>
<rect x="707.662" y="192.682" width="3.89812" height="3.88235" fill="#FFF8DC"/>
<rect x="1035.11" y="192.682" width="3.89812" height="3.88235" fill="#FFF8DC"/>
<rect x="1268.99" y="192.682" width="3.89812" height="3.88235" fill="#FFF8DC"/>
<rect x="520.553" y="192.682" width="3.89812" height="3.88235" fill="#FFF8DC"/>
<rect x="894.771" y="192.682" width="3.89812" height="3.88235" fill="#FFF8DC"/>
<rect x="1222.21" y="192.682" width="3.89812" height="3.88235" fill="#FFF8DC"/>
<rect x="1456.1" y="192.682" width="3.89812" height="3.88235" fill="#FFF8DC"/>
<rect x="193.109" y="285.859" width="3.89812" height="3.88235" fill="#FFF8DC"/>
<rect x="6" y="285.859" width="3.89812" height="3.88235" fill="#FFF8DC"/>
<rect x="567.33" y="285.859" width="3.89812" height="3.88235" fill="#FFF8DC"/>
<rect x="380.221" y="285.859" width="3.89812" height="3.88235" fill="#FFF8DC"/>
<rect x="754.439" y="285.859" width="3.89812" height="3.88235" fill="#FFF8DC"/>
<rect x="1081.88" y="285.859" width="3.89812" height="3.88235" fill="#FFF8DC"/>
<rect x="1315.77" y="285.859" width="3.89812" height="3.88235" fill="#FFF8DC"/>
<rect x="286.664" y="285.859" width="3.89812" height="3.88235" fill="#FFF8DC"/>
<rect x="99.5547" y="285.859" width="3.89812" height="3.88235" fill="#FFF8DC"/>
<rect x="660.885" y="285.859" width="3.89812" height="3.88235" fill="#FFF8DC"/>
<rect x="988.326" y="285.859" width="3.89812" height="3.88235" fill="#FFF8DC"/>
<rect x="473.775" y="285.859" width="3.89812" height="3.88235" fill="#FFF8DC"/>
<rect x="847.994" y="285.859" width="3.89812" height="3.88235" fill="#FFF8DC"/>
<rect x="1175.44" y="285.859" width="3.89812" height="3.88235" fill="#FFF8DC"/>
<rect x="1409.32" y="285.859" width="3.89812" height="3.88235" fill="#FFF8DC"/>
<rect x="239.887" y="285.859" width="3.89812" height="3.88235" fill="#FFF8DC"/>
<rect x="52.7773" y="285.859" width="3.89812" height="3.88235" fill="#FFF8DC"/>
<rect x="614.107" y="285.859" width="3.89812" height="3.88235" fill="#FFF8DC"/>
<rect x="941.549" y="285.859" width="3.89812" height="3.88235" fill="#FFF8DC"/>
<rect x="426.998" y="285.859" width="3.89812" height="3.88235" fill="#FFF8DC"/>
<rect x="801.217" y="285.859" width="3.89812" height="3.88235" fill="#FFF8DC"/>
<rect x="1128.66" y="285.859" width="3.89812" height="3.88235" fill="#FFF8DC"/>
<rect x="1362.55" y="285.859" width="3.89812" height="3.88235" fill="#FFF8DC"/>
<rect x="333.441" y="285.859" width="3.89812" height="3.88235" fill="#FFF8DC"/>
<rect x="146.332" y="285.859" width="3.89812" height="3.88235" fill="#FFF8DC"/>
<rect x="707.662" y="285.859" width="3.89812" height="3.88235" fill="#FFF8DC"/>
<rect x="1035.11" y="285.859" width="3.89812" height="3.88235" fill="#FFF8DC"/>
<rect x="1268.99" y="285.859" width="3.89812" height="3.88235" fill="#FFF8DC"/>
<rect x="520.553" y="285.859" width="3.89812" height="3.88235" fill="#FFF8DC"/>
<rect x="894.771" y="285.859" width="3.89812" height="3.88235" fill="#FFF8DC"/>
<rect x="1222.21" y="285.859" width="3.89812" height="3.88235" fill="#FFF8DC"/>
<rect x="1456.1" y="285.859" width="3.89812" height="3.88235" fill="#FFF8DC"/>
<rect x="193.109" y="99.5059" width="3.89812" height="3.88235" fill="#FFF8DC"/>
<rect x="6" y="99.5059" width="3.89812" height="3.88235" fill="#FFF8DC"/>
<rect x="567.33" y="99.5059" width="3.89812" height="3.88235" fill="#FFF8DC"/>
<rect x="380.221" y="99.5059" width="3.89812" height="3.88235" fill="#FFF8DC"/>
<rect x="754.439" y="99.5059" width="3.89812" height="3.88235" fill="#FFF8DC"/>
<rect x="1081.88" y="99.5059" width="3.89812" height="3.88235" fill="#FFF8DC"/>
<rect x="1315.77" y="99.5059" width="3.89812" height="3.88235" fill="#FFF8DC"/>
<rect x="286.664" y="99.5059" width="3.89812" height="3.88235" fill="#FFF8DC"/>
<rect x="99.5547" y="99.5059" width="3.89812" height="3.88235" fill="#FFF8DC"/>
<rect x="660.885" y="99.5059" width="3.89812" height="3.88235" fill="#FFF8DC"/>
<rect x="988.326" y="99.5059" width="3.89812" height="3.88235" fill="#FFF8DC"/>
<rect x="473.775" y="99.5059" width="3.89812" height="3.88235" fill="#FFF8DC"/>
<rect x="847.994" y="99.5059" width="3.89812" height="3.88235" fill="#FFF8DC"/>
<rect x="1175.44" y="99.5059" width="3.89812" height="3.88235" fill="#FFF8DC"/>
<rect x="1409.32" y="99.5059" width="3.89812" height="3.88235" fill="#FFF8DC"/>
<rect x="239.887" y="99.5059" width="3.89812" height="3.88235" fill="#FFF8DC"/>
<rect x="52.7773" y="99.5059" width="3.89812" height="3.88235" fill="#FFF8DC"/>
<rect x="614.107" y="99.5059" width="3.89812" height="3.88235" fill="#FFF8DC"/>
<rect x="941.549" y="99.5059" width="3.89812" height="3.88235" fill="#FFF8DC"/>
<rect x="426.998" y="99.5059" width="3.89812" height="3.88235" fill="#FFF8DC"/>
<rect x="801.217" y="99.5059" width="3.89812" height="3.88235" fill="#FFF8DC"/>
<rect x="1128.66" y="99.5059" width="3.89812" height="3.88235" fill="#FFF8DC"/>
<rect x="1362.55" y="99.5059" width="3.89812" height="3.88235" fill="#FFF8DC"/>
<rect x="333.441" y="99.5059" width="3.89812" height="3.88235" fill="#FFF8DC"/>
<rect x="146.332" y="99.5059" width="3.89812" height="3.88235" fill="#FFF8DC"/>
<rect x="707.662" y="99.5059" width="3.89812" height="3.88235" fill="#FFF8DC"/>
<rect x="1035.11" y="99.5059" width="3.89812" height="3.88235" fill="#FFF8DC"/>
<rect x="1268.99" y="99.5059" width="3.89812" height="3.88235" fill="#FFF8DC"/>
<rect x="520.553" y="99.5059" width="3.89812" height="3.88235" fill="#FFF8DC"/>
<rect x="894.771" y="99.5059" width="3.89812" height="3.88235" fill="#FFF8DC"/>
<rect x="1222.21" y="99.5059" width="3.89812" height="3.88235" fill="#FFF8DC"/>
<rect x="1456.1" y="99.5059" width="3.89812" height="3.88235" fill="#FFF8DC"/>
<rect x="193.109" y="239.271" width="3.89812" height="3.88235" fill="#FFF8DC"/>
<rect x="6" y="239.271" width="3.89812" height="3.88235" fill="#FFF8DC"/>
<rect x="567.33" y="239.271" width="3.89812" height="3.88235" fill="#FFF8DC"/>
<rect x="380.221" y="239.271" width="3.89812" height="3.88235" fill="#FFF8DC"/>
<rect x="754.439" y="239.271" width="3.89812" height="3.88235" fill="#FFF8DC"/>
<rect x="1081.88" y="239.271" width="3.89812" height="3.88235" fill="#FFF8DC"/>
<rect x="1315.77" y="239.271" width="3.89812" height="3.88235" fill="#FFF8DC"/>
<rect x="286.664" y="239.271" width="3.89812" height="3.88235" fill="#FFF8DC"/>
<rect x="99.5547" y="239.271" width="3.89812" height="3.88235" fill="#FFF8DC"/>
<rect x="660.885" y="239.271" width="3.89812" height="3.88235" fill="#FFF8DC"/>
<rect x="988.326" y="239.271" width="3.89812" height="3.88235" fill="#FFF8DC"/>
<rect x="473.775" y="239.271" width="3.89812" height="3.88235" fill="#FFF8DC"/>
<rect x="847.994" y="239.271" width="3.89812" height="3.88235" fill="#FFF8DC"/>
<rect x="1175.44" y="239.271" width="3.89812" height="3.88235" fill="#FFF8DC"/>
<rect x="1409.32" y="239.271" width="3.89812" height="3.88235" fill="#FFF8DC"/>
<rect x="239.887" y="239.271" width="3.89812" height="3.88235" fill="#FFF8DC"/>
<rect x="52.7773" y="239.271" width="3.89812" height="3.88235" fill="#FFF8DC"/>
<rect x="614.107" y="239.271" width="3.89812" height="3.88235" fill="#FFF8DC"/>
<rect x="941.549" y="239.271" width="3.89812" height="3.88235" fill="#FFF8DC"/>
<rect x="426.998" y="239.271" width="3.89812" height="3.88235" fill="#FFF8DC"/>
<rect x="801.217" y="239.271" width="3.89812" height="3.88235" fill="#FFF8DC"/>
<rect x="1128.66" y="239.271" width="3.89812" height="3.88235" fill="#FFF8DC"/>
<rect x="1362.55" y="239.271" width="3.89812" height="3.88235" fill="#FFF8DC"/>
<rect x="333.441" y="239.271" width="3.89812" height="3.88235" fill="#FFF8DC"/>
<rect x="146.332" y="239.271" width="3.89812" height="3.88235" fill="#FFF8DC"/>
<rect x="707.662" y="239.271" width="3.89812" height="3.88235" fill="#FFF8DC"/>
<rect x="1035.11" y="239.271" width="3.89812" height="3.88235" fill="#FFF8DC"/>
<rect x="1268.99" y="239.271" width="3.89812" height="3.88235" fill="#FFF8DC"/>
<rect x="520.553" y="239.271" width="3.89812" height="3.88235" fill="#FFF8DC"/>
<rect x="894.771" y="239.271" width="3.89812" height="3.88235" fill="#FFF8DC"/>
<rect x="1222.21" y="239.271" width="3.89812" height="3.88235" fill="#FFF8DC"/>
<rect x="1456.1" y="239.271" width="3.89812" height="3.88235" fill="#FFF8DC"/>
<rect x="193.109" y="332.447" width="3.89812" height="3.88235" fill="#FFF8DC"/>
<rect x="6" y="332.447" width="3.89812" height="3.88235" fill="#FFF8DC"/>
<rect x="567.33" y="332.447" width="3.89812" height="3.88235" fill="#FFF8DC"/>
<rect x="380.221" y="332.447" width="3.89812" height="3.88235" fill="#FFF8DC"/>
<rect x="754.439" y="332.447" width="3.89812" height="3.88235" fill="#FFF8DC"/>
<rect x="1081.88" y="332.447" width="3.89812" height="3.88235" fill="#FFF8DC"/>
<rect x="1315.77" y="332.447" width="3.89812" height="3.88235" fill="#FFF8DC"/>
<rect x="286.664" y="332.447" width="3.89812" height="3.88235" fill="#FFF8DC"/>
<rect x="99.5547" y="332.447" width="3.89812" height="3.88235" fill="#FFF8DC"/>
<rect x="660.885" y="332.447" width="3.89812" height="3.88235" fill="#FFF8DC"/>
<rect x="988.326" y="332.447" width="3.89812" height="3.88235" fill="#FFF8DC"/>
<rect x="473.775" y="332.447" width="3.89812" height="3.88235" fill="#FFF8DC"/>
<rect x="847.994" y="332.447" width="3.89812" height="3.88235" fill="#FFF8DC"/>
<rect x="1175.44" y="332.447" width="3.89812" height="3.88235" fill="#FFF8DC"/>
<rect x="1409.32" y="332.447" width="3.89812" height="3.88235" fill="#FFF8DC"/>
<rect x="239.887" y="332.447" width="3.89812" height="3.88235" fill="#FFF8DC"/>
<rect x="52.7773" y="332.447" width="3.89812" height="3.88235" fill="#FFF8DC"/>
<rect x="614.107" y="332.447" width="3.89812" height="3.88235" fill="#FFF8DC"/>
<rect x="941.549" y="332.447" width="3.89812" height="3.88235" fill="#FFF8DC"/>
<rect x="426.998" y="332.447" width="3.89812" height="3.88235" fill="#FFF8DC"/>
<rect x="801.217" y="332.447" width="3.89812" height="3.88235" fill="#FFF8DC"/>
<rect x="1128.66" y="332.447" width="3.89812" height="3.88235" fill="#FFF8DC"/>
<rect x="1362.55" y="332.447" width="3.89812" height="3.88235" fill="#FFF8DC"/>
<rect x="333.441" y="332.447" width="3.89812" height="3.88235" fill="#FFF8DC"/>
<rect x="146.332" y="332.447" width="3.89812" height="3.88235" fill="#FFF8DC"/>
<rect x="707.662" y="332.447" width="3.89812" height="3.88235" fill="#FFF8DC"/>
<rect x="1035.11" y="332.447" width="3.89812" height="3.88235" fill="#FFF8DC"/>
<rect x="1268.99" y="332.447" width="3.89812" height="3.88235" fill="#FFF8DC"/>
<rect x="520.553" y="332.447" width="3.89812" height="3.88235" fill="#FFF8DC"/>
<rect x="894.771" y="332.447" width="3.89812" height="3.88235" fill="#FFF8DC"/>
<rect x="1222.21" y="332.447" width="3.89812" height="3.88235" fill="#FFF8DC"/>
<rect x="1456.1" y="332.447" width="3.89812" height="3.88235" fill="#FFF8DC"/>
<rect x="193.109" y="6.33008" width="3.89812" height="3.88235" fill="#FFF8DC"/>
<rect x="6" y="6.33008" width="3.89812" height="3.88235" fill="#FFF8DC"/>
<rect x="567.33" y="6.33008" width="3.89812" height="3.88235" fill="#FFF8DC"/>
<rect x="380.221" y="6.33008" width="3.89812" height="3.88235" fill="#FFF8DC"/>
<rect x="754.439" y="6.33008" width="3.89812" height="3.88235" fill="#FFF8DC"/>
<rect x="1081.88" y="6.33008" width="3.89812" height="3.88235" fill="#FFF8DC"/>
<rect x="1315.77" y="6.33008" width="3.89812" height="3.88235" fill="#FFF8DC"/>
<rect x="286.664" y="6.33008" width="3.89812" height="3.88235" fill="#FFF8DC"/>
<rect x="99.5547" y="6.33008" width="3.89812" height="3.88235" fill="#FFF8DC"/>
<rect x="660.885" y="6.33008" width="3.89812" height="3.88235" fill="#FFF8DC"/>
<rect x="988.326" y="6.33008" width="3.89812" height="3.88235" fill="#FFF8DC"/>
<rect x="473.775" y="6.33008" width="3.89812" height="3.88235" fill="#FFF8DC"/>
<rect x="847.994" y="6.33008" width="3.89812" height="3.88235" fill="#FFF8DC"/>
<rect x="1175.44" y="6.33008" width="3.89812" height="3.88235" fill="#FFF8DC"/>
<rect x="1409.32" y="6.33008" width="3.89812" height="3.88235" fill="#FFF8DC"/>
<rect x="239.887" y="6.33008" width="3.89812" height="3.88235" fill="#FFF8DC"/>
<rect x="52.7773" y="6.33008" width="3.89812" height="3.88235" fill="#FFF8DC"/>
<rect x="614.107" y="6.33008" width="3.89812" height="3.88235" fill="#FFF8DC"/>
<rect x="941.549" y="6.33008" width="3.89812" height="3.88235" fill="#FFF8DC"/>
<rect x="426.998" y="6.33008" width="3.89812" height="3.88235" fill="#FFF8DC"/>
<rect x="801.217" y="6.33008" width="3.89812" height="3.88235" fill="#FFF8DC"/>
<rect x="1128.66" y="6.33008" width="3.89812" height="3.88235" fill="#FFF8DC"/>
<rect x="1362.55" y="6.33008" width="3.89812" height="3.88235" fill="#FFF8DC"/>
<rect x="333.441" y="6.33008" width="3.89812" height="3.88235" fill="#FFF8DC"/>
<rect x="146.332" y="6.33008" width="3.89812" height="3.88235" fill="#FFF8DC"/>
<rect x="707.662" y="6.33008" width="3.89812" height="3.88235" fill="#FFF8DC"/>
<rect x="1035.11" y="6.33008" width="3.89812" height="3.88235" fill="#FFF8DC"/>
<rect x="1268.99" y="6.33008" width="3.89812" height="3.88235" fill="#FFF8DC"/>
<rect x="520.553" y="6.33008" width="3.89812" height="3.88235" fill="#FFF8DC"/>
<rect x="894.771" y="6.33008" width="3.89812" height="3.88235" fill="#FFF8DC"/>
<rect x="1222.21" y="6.33008" width="3.89812" height="3.88235" fill="#FFF8DC"/>
<rect x="1456.1" y="6.33008" width="3.89812" height="3.88235" fill="#FFF8DC"/>
<rect x="193.109" y="146.094" width="3.89812" height="3.88235" fill="#FFF8DC"/>
<rect x="6" y="146.094" width="3.89812" height="3.88235" fill="#FFF8DC"/>
<rect x="567.33" y="146.094" width="3.89812" height="3.88235" fill="#FFF8DC"/>
<rect x="380.221" y="146.094" width="3.89812" height="3.88235" fill="#FFF8DC"/>
<rect x="754.439" y="146.094" width="3.89812" height="3.88235" fill="#FFF8DC"/>
<rect x="1081.88" y="146.094" width="3.89812" height="3.88235" fill="#FFF8DC"/>
<rect x="1315.77" y="146.094" width="3.89812" height="3.88235" fill="#FFF8DC"/>
<rect x="286.664" y="146.094" width="3.89812" height="3.88235" fill="#FFF8DC"/>
<rect x="99.5547" y="146.094" width="3.89812" height="3.88235" fill="#FFF8DC"/>
<rect x="660.885" y="146.094" width="3.89812" height="3.88235" fill="#FFF8DC"/>
<rect x="988.326" y="146.094" width="3.89812" height="3.88235" fill="#FFF8DC"/>
<rect x="473.775" y="146.094" width="3.89812" height="3.88235" fill="#FFF8DC"/>
<rect x="847.994" y="146.094" width="3.89812" height="3.88235" fill="#FFF8DC"/>
<rect x="1175.44" y="146.094" width="3.89812" height="3.88235" fill="#FFF8DC"/>
<rect x="1409.32" y="146.094" width="3.89812" height="3.88235" fill="#FFF8DC"/>
<rect x="239.887" y="146.094" width="3.89812" height="3.88235" fill="#FFF8DC"/>
<rect x="52.7773" y="146.094" width="3.89812" height="3.88235" fill="#FFF8DC"/>
<rect x="614.107" y="146.094" width="3.89812" height="3.88235" fill="#FFF8DC"/>
<rect x="941.549" y="146.094" width="3.89812" height="3.88235" fill="#FFF8DC"/>
<rect x="426.998" y="146.094" width="3.89812" height="3.88235" fill="#FFF8DC"/>
<rect x="801.217" y="146.094" width="3.89812" height="3.88235" fill="#FFF8DC"/>
<rect x="1128.66" y="146.094" width="3.89812" height="3.88235" fill="#FFF8DC"/>
<rect x="1362.55" y="146.094" width="3.89812" height="3.88235" fill="#FFF8DC"/>
<rect x="333.441" y="146.094" width="3.89812" height="3.88235" fill="#FFF8DC"/>
<rect x="146.332" y="146.094" width="3.89812" height="3.88235" fill="#FFF8DC"/>
<rect x="707.662" y="146.094" width="3.89812" height="3.88235" fill="#FFF8DC"/>
<rect x="1035.11" y="146.094" width="3.89812" height="3.88235" fill="#FFF8DC"/>
<rect x="1268.99" y="146.094" width="3.89812" height="3.88235" fill="#FFF8DC"/>
<rect x="520.553" y="146.094" width="3.89812" height="3.88235" fill="#FFF8DC"/>
<rect x="894.771" y="146.094" width="3.89812" height="3.88235" fill="#FFF8DC"/>
<rect x="1222.21" y="146.094" width="3.89812" height="3.88235" fill="#FFF8DC"/>
<rect x="1456.1" y="146.094" width="3.89812" height="3.88235" fill="#FFF8DC"/>
<rect x="193.109" y="52.918" width="3.89812" height="3.88235" fill="#FFF8DC"/>
<rect x="6" y="52.918" width="3.89812" height="3.88235" fill="#FFF8DC"/>
<rect x="567.33" y="52.918" width="3.89812" height="3.88235" fill="#FFF8DC"/>
<rect x="380.221" y="52.918" width="3.89812" height="3.88235" fill="#FFF8DC"/>
<rect x="754.439" y="52.918" width="3.89812" height="3.88235" fill="#FFF8DC"/>
<rect x="1081.88" y="52.918" width="3.89812" height="3.88235" fill="#FFF8DC"/>
<rect x="1315.77" y="52.918" width="3.89812" height="3.88235" fill="#FFF8DC"/>
<rect x="286.664" y="52.918" width="3.89812" height="3.88235" fill="#FFF8DC"/>
<rect x="99.5547" y="52.918" width="3.89812" height="3.88235" fill="#FFF8DC"/>
<rect x="660.885" y="52.918" width="3.89812" height="3.88235" fill="#FFF8DC"/>
<rect x="988.326" y="52.918" width="3.89812" height="3.88235" fill="#FFF8DC"/>
<rect x="473.775" y="52.918" width="3.89812" height="3.88235" fill="#FFF8DC"/>
<rect x="847.994" y="52.918" width="3.89812" height="3.88235" fill="#FFF8DC"/>
<rect x="1175.44" y="52.918" width="3.89812" height="3.88235" fill="#FFF8DC"/>
<rect x="1409.32" y="52.918" width="3.89812" height="3.88235" fill="#FFF8DC"/>
<rect x="239.887" y="52.918" width="3.89812" height="3.88235" fill="#FFF8DC"/>
<rect x="52.7773" y="52.918" width="3.89812" height="3.88235" fill="#FFF8DC"/>
<rect x="614.107" y="52.918" width="3.89812" height="3.88235" fill="#FFF8DC"/>
<rect x="941.549" y="52.918" width="3.89812" height="3.88235" fill="#FFF8DC"/>
<rect x="426.998" y="52.918" width="3.89812" height="3.88235" fill="#FFF8DC"/>
<rect x="801.217" y="52.918" width="3.89812" height="3.88235" fill="#FFF8DC"/>
<rect x="1128.66" y="52.918" width="3.89812" height="3.88235" fill="#FFF8DC"/>
<rect x="1362.55" y="52.918" width="3.89812" height="3.88235" fill="#FFF8DC"/>
<rect x="333.441" y="52.918" width="3.89812" height="3.88235" fill="#FFF8DC"/>
<rect x="146.332" y="52.918" width="3.89812" height="3.88235" fill="#FFF8DC"/>
<rect x="707.662" y="52.918" width="3.89812" height="3.88235" fill="#FFF8DC"/>
<rect x="1035.11" y="52.918" width="3.89812" height="3.88235" fill="#FFF8DC"/>
<rect x="1268.99" y="52.918" width="3.89812" height="3.88235" fill="#FFF8DC"/>
<rect x="520.553" y="52.918" width="3.89812" height="3.88235" fill="#FFF8DC"/>
<rect x="894.771" y="52.918" width="3.89812" height="3.88235" fill="#FFF8DC"/>
<rect x="1222.21" y="52.918" width="3.89812" height="3.88235" fill="#FFF8DC"/>
<rect x="1456.1" y="52.918" width="3.89812" height="3.88235" fill="#FFF8DC"/>
<rect x="193.109" y="192.682" width="3.89812" height="3.88235" fill="#FFF8DC"/>
<rect x="6" y="192.682" width="3.89812" height="3.88235" fill="#FFF8DC"/>
<rect x="567.33" y="192.682" width="3.89812" height="3.88235" fill="#FFF8DC"/>
<rect x="380.221" y="192.682" width="3.89812" height="3.88235" fill="#FFF8DC"/>
<rect x="754.439" y="192.682" width="3.89812" height="3.88235" fill="#FFF8DC"/>
<rect x="1081.88" y="192.682" width="3.89812" height="3.88235" fill="#FFF8DC"/>
<rect x="1315.77" y="192.682" width="3.89812" height="3.88235" fill="#FFF8DC"/>
<rect x="286.664" y="192.682" width="3.89812" height="3.88235" fill="#FFF8DC"/>
<rect x="99.5547" y="192.682" width="3.89812" height="3.88235" fill="#FFF8DC"/>
<rect x="660.885" y="192.682" width="3.89812" height="3.88235" fill="#FFF8DC"/>
<rect x="988.326" y="192.682" width="3.89812" height="3.88235" fill="#FFF8DC"/>
<rect x="473.775" y="192.682" width="3.89812" height="3.88235" fill="#FFF8DC"/>
<rect x="847.994" y="192.682" width="3.89812" height="3.88235" fill="#FFF8DC"/>
<rect x="1175.44" y="192.682" width="3.89812" height="3.88235" fill="#FFF8DC"/>
<rect x="1409.32" y="192.682" width="3.89812" height="3.88235" fill="#FFF8DC"/>
<rect x="239.887" y="192.682" width="3.89812" height="3.88235" fill="#FFF8DC"/>
<rect x="52.7773" y="192.682" width="3.89812" height="3.88235" fill="#FFF8DC"/>
<rect x="614.107" y="192.682" width="3.89812" height="3.88235" fill="#FFF8DC"/>
<rect x="941.549" y="192.682" width="3.89812" height="3.88235" fill="#FFF8DC"/>
<rect x="426.998" y="192.682" width="3.89812" height="3.88235" fill="#FFF8DC"/>
<rect x="801.217" y="192.682" width="3.89812" height="3.88235" fill="#FFF8DC"/>
<rect x="1128.66" y="192.682" width="3.89812" height="3.88235" fill="#FFF8DC"/>
<rect x="1362.55" y="192.682" width="3.89812" height="3.88235" fill="#FFF8DC"/>
<rect x="333.441" y="192.682" width="3.89812" height="3.88235" fill="#FFF8DC"/>
<rect x="146.332" y="192.682" width="3.89812" height="3.88235" fill="#FFF8DC"/>
<rect x="707.662" y="192.682" width="3.89812" height="3.88235" fill="#FFF8DC"/>
<rect x="1035.11" y="192.682" width="3.89812" height="3.88235" fill="#FFF8DC"/>
<rect x="1268.99" y="192.682" width="3.89812" height="3.88235" fill="#FFF8DC"/>
<rect x="520.553" y="192.682" width="3.89812" height="3.88235" fill="#FFF8DC"/>
<rect x="894.771" y="192.682" width="3.89812" height="3.88235" fill="#FFF8DC"/>
<rect x="1222.21" y="192.682" width="3.89812" height="3.88235" fill="#FFF8DC"/>
<rect x="1456.1" y="192.682" width="3.89812" height="3.88235" fill="#FFF8DC"/>
<rect x="193.109" y="285.859" width="3.89812" height="3.88235" fill="#FFF8DC"/>
<rect x="6" y="285.859" width="3.89812" height="3.88235" fill="#FFF8DC"/>
<rect x="567.33" y="285.859" width="3.89812" height="3.88235" fill="#FFF8DC"/>
<rect x="380.221" y="285.859" width="3.89812" height="3.88235" fill="#FFF8DC"/>
<rect x="754.439" y="285.859" width="3.89812" height="3.88235" fill="#FFF8DC"/>
<rect x="1081.88" y="285.859" width="3.89812" height="3.88235" fill="#FFF8DC"/>
<rect x="1315.77" y="285.859" width="3.89812" height="3.88235" fill="#FFF8DC"/>
<rect x="286.664" y="285.859" width="3.89812" height="3.88235" fill="#FFF8DC"/>
<rect x="99.5547" y="285.859" width="3.89812" height="3.88235" fill="#FFF8DC"/>
<rect x="660.885" y="285.859" width="3.89812" height="3.88235" fill="#FFF8DC"/>
<rect x="988.326" y="285.859" width="3.89812" height="3.88235" fill="#FFF8DC"/>
<rect x="473.775" y="285.859" width="3.89812" height="3.88235" fill="#FFF8DC"/>
<rect x="847.994" y="285.859" width="3.89812" height="3.88235" fill="#FFF8DC"/>
<rect x="1175.44" y="285.859" width="3.89812" height="3.88235" fill="#FFF8DC"/>
<rect x="1409.32" y="285.859" width="3.89812" height="3.88235" fill="#FFF8DC"/>
<rect x="239.887" y="285.859" width="3.89812" height="3.88235" fill="#FFF8DC"/>
<rect x="52.7773" y="285.859" width="3.89812" height="3.88235" fill="#FFF8DC"/>
<rect x="614.107" y="285.859" width="3.89812" height="3.88235" fill="#FFF8DC"/>
<rect x="941.549" y="285.859" width="3.89812" height="3.88235" fill="#FFF8DC"/>
<rect x="426.998" y="285.859" width="3.89812" height="3.88235" fill="#FFF8DC"/>
<rect x="801.217" y="285.859" width="3.89812" height="3.88235" fill="#FFF8DC"/>
<rect x="1128.66" y="285.859" width="3.89812" height="3.88235" fill="#FFF8DC"/>
<rect x="1362.55" y="285.859" width="3.89812" height="3.88235" fill="#FFF8DC"/>
<rect x="333.441" y="285.859" width="3.89812" height="3.88235" fill="#FFF8DC"/>
<rect x="146.332" y="285.859" width="3.89812" height="3.88235" fill="#FFF8DC"/>
<rect x="707.662" y="285.859" width="3.89812" height="3.88235" fill="#FFF8DC"/>
<rect x="1035.11" y="285.859" width="3.89812" height="3.88235" fill="#FFF8DC"/>
<rect x="1268.99" y="285.859" width="3.89812" height="3.88235" fill="#FFF8DC"/>
<rect x="520.553" y="285.859" width="3.89812" height="3.88235" fill="#FFF8DC"/>
<rect x="894.771" y="285.859" width="3.89812" height="3.88235" fill="#FFF8DC"/>
<rect x="1222.21" y="285.859" width="3.89812" height="3.88235" fill="#FFF8DC"/>
<rect x="1456.1" y="285.859" width="3.89812" height="3.88235" fill="#FFF8DC"/>
<rect x="193.109" y="99.5059" width="3.89812" height="3.88235" fill="#FFF8DC"/>
<rect x="6" y="99.5059" width="3.89812" height="3.88235" fill="#FFF8DC"/>
<rect x="567.33" y="99.5059" width="3.89812" height="3.88235" fill="#FFF8DC"/>
<rect x="380.221" y="99.5059" width="3.89812" height="3.88235" fill="#FFF8DC"/>
<rect x="754.439" y="99.5059" width="3.89812" height="3.88235" fill="#FFF8DC"/>
<rect x="1081.88" y="99.5059" width="3.89812" height="3.88235" fill="#FFF8DC"/>
<rect x="1315.77" y="99.5059" width="3.89812" height="3.88235" fill="#FFF8DC"/>
<rect x="286.664" y="99.5059" width="3.89812" height="3.88235" fill="#FFF8DC"/>
<rect x="99.5547" y="99.5059" width="3.89812" height="3.88235" fill="#FFF8DC"/>
<rect x="660.885" y="99.5059" width="3.89812" height="3.88235" fill="#FFF8DC"/>
<rect x="988.326" y="99.5059" width="3.89812" height="3.88235" fill="#FFF8DC"/>
<rect x="473.775" y="99.5059" width="3.89812" height="3.88235" fill="#FFF8DC"/>
<rect x="847.994" y="99.5059" width="3.89812" height="3.88235" fill="#FFF8DC"/>
<rect x="1175.44" y="99.5059" width="3.89812" height="3.88235" fill="#FFF8DC"/>
<rect x="1409.32" y="99.5059" width="3.89812" height="3.88235" fill="#FFF8DC"/>
<rect x="239.887" y="99.5059" width="3.89812" height="3.88235" fill="#FFF8DC"/>
<rect x="52.7773" y="99.5059" width="3.89812" height="3.88235" fill="#FFF8DC"/>
<rect x="614.107" y="99.5059" width="3.89812" height="3.88235" fill="#FFF8DC"/>
<rect x="941.549" y="99.5059" width="3.89812" height="3.88235" fill="#FFF8DC"/>
<rect x="426.998" y="99.5059" width="3.89812" height="3.88235" fill="#FFF8DC"/>
<rect x="801.217" y="99.5059" width="3.89812" height="3.88235" fill="#FFF8DC"/>
<rect x="1128.66" y="99.5059" width="3.89812" height="3.88235" fill="#FFF8DC"/>
<rect x="1362.55" y="99.5059" width="3.89812" height="3.88235" fill="#FFF8DC"/>
<rect x="333.441" y="99.5059" width="3.89812" height="3.88235" fill="#FFF8DC"/>
<rect x="146.332" y="99.5059" width="3.89812" height="3.88235" fill="#FFF8DC"/>
<rect x="707.662" y="99.5059" width="3.89812" height="3.88235" fill="#FFF8DC"/>
<rect x="1035.11" y="99.5059" width="3.89812" height="3.88235" fill="#FFF8DC"/>
<rect x="1268.99" y="99.5059" width="3.89812" height="3.88235" fill="#FFF8DC"/>
<rect x="520.553" y="99.5059" width="3.89812" height="3.88235" fill="#FFF8DC"/>
<rect x="894.771" y="99.5059" width="3.89812" height="3.88235" fill="#FFF8DC"/>
<rect x="1222.21" y="99.5059" width="3.89812" height="3.88235" fill="#FFF8DC"/>
<rect x="1456.1" y="99.5059" width="3.89812" height="3.88235" fill="#FFF8DC"/>
<rect x="193.109" y="239.271" width="3.89812" height="3.88235" fill="#FFF8DC"/>
<rect x="6" y="239.271" width="3.89812" height="3.88235" fill="#FFF8DC"/>
<rect x="567.33" y="239.271" width="3.89812" height="3.88235" fill="#FFF8DC"/>
<rect x="380.221" y="239.271" width="3.89812" height="3.88235" fill="#FFF8DC"/>
<rect x="754.439" y="239.271" width="3.89812" height="3.88235" fill="#FFF8DC"/>
<rect x="1081.88" y="239.271" width="3.89812" height="3.88235" fill="#FFF8DC"/>
<rect x="1315.77" y="239.271" width="3.89812" height="3.88235" fill="#FFF8DC"/>
<rect x="286.664" y="239.271" width="3.89812" height="3.88235" fill="#FFF8DC"/>
<rect x="99.5547" y="239.271" width="3.89812" height="3.88235" fill="#FFF8DC"/>
<rect x="660.885" y="239.271" width="3.89812" height="3.88235" fill="#FFF8DC"/>
<rect x="988.326" y="239.271" width="3.89812" height="3.88235" fill="#FFF8DC"/>
<rect x="473.775" y="239.271" width="3.89812" height="3.88235" fill="#FFF8DC"/>
<rect x="847.994" y="239.271" width="3.89812" height="3.88235" fill="#FFF8DC"/>
<rect x="1175.44" y="239.271" width="3.89812" height="3.88235" fill="#FFF8DC"/>
<rect x="1409.32" y="239.271" width="3.89812" height="3.88235" fill="#FFF8DC"/>
<rect x="239.887" y="239.271" width="3.89812" height="3.88235" fill="#FFF8DC"/>
<rect x="52.7773" y="239.271" width="3.89812" height="3.88235" fill="#FFF8DC"/>
<rect x="614.107" y="239.271" width="3.89812" height="3.88235" fill="#FFF8DC"/>
<rect x="941.549" y="239.271" width="3.89812" height="3.88235" fill="#FFF8DC"/>
<rect x="426.998" y="239.271" width="3.89812" height="3.88235" fill="#FFF8DC"/>
<rect x="801.217" y="239.271" width="3.89812" height="3.88235" fill="#FFF8DC"/>
<rect x="1128.66" y="239.271" width="3.89812" height="3.88235" fill="#FFF8DC"/>
<rect x="1362.55" y="239.271" width="3.89812" height="3.88235" fill="#FFF8DC"/>
<rect x="333.441" y="239.271" width="3.89812" height="3.88235" fill="#FFF8DC"/>
<rect x="146.332" y="239.271" width="3.89812" height="3.88235" fill="#FFF8DC"/>
<rect x="707.662" y="239.271" width="3.89812" height="3.88235" fill="#FFF8DC"/>
<rect x="1035.11" y="239.271" width="3.89812" height="3.88235" fill="#FFF8DC"/>
<rect x="1268.99" y="239.271" width="3.89812" height="3.88235" fill="#FFF8DC"/>
<rect x="520.553" y="239.271" width="3.89812" height="3.88235" fill="#FFF8DC"/>
<rect x="894.771" y="239.271" width="3.89812" height="3.88235" fill="#FFF8DC"/>
<rect x="1222.21" y="239.271" width="3.89812" height="3.88235" fill="#FFF8DC"/>
<rect x="1456.1" y="239.271" width="3.89812" height="3.88235" fill="#FFF8DC"/>
<rect x="193.109" y="332.447" width="3.89812" height="3.88235" fill="#FFF8DC"/>
<rect x="6" y="332.447" width="3.89812" height="3.88235" fill="#FFF8DC"/>
<rect x="567.33" y="332.447" width="3.89812" height="3.88235" fill="#FFF8DC"/>
<rect x="380.221" y="332.447" width="3.89812" height="3.88235" fill="#FFF8DC"/>
<rect x="754.439" y="332.447" width="3.89812" height="3.88235" fill="#FFF8DC"/>
<rect x="1081.88" y="332.447" width="3.89812" height="3.88235" fill="#FFF8DC"/>
<rect x="1315.77" y="332.447" width="3.89812" height="3.88235" fill="#FFF8DC"/>
<rect x="286.664" y="332.447" width="3.89812" height="3.88235" fill="#FFF8DC"/>
<rect x="99.5547" y="332.447" width="3.89812" height="3.88235" fill="#FFF8DC"/>
<rect x="660.885" y="332.447" width="3.89812" height="3.88235" fill="#FFF8DC"/>
<rect x="988.326" y="332.447" width="3.89812" height="3.88235" fill="#FFF8DC"/>
<rect x="473.775" y="332.447" width="3.89812" height="3.88235" fill="#FFF8DC"/>
<rect x="847.994" y="332.447" width="3.89812" height="3.88235" fill="#FFF8DC"/>
<rect x="1175.44" y="332.447" width="3.89812" height="3.88235" fill="#FFF8DC"/>
<rect x="1409.32" y="332.447" width="3.89812" height="3.88235" fill="#FFF8DC"/>
<rect x="239.887" y="332.447" width="3.89812" height="3.88235" fill="#FFF8DC"/>
<rect x="52.7773" y="332.447" width="3.89812" height="3.88235" fill="#FFF8DC"/>
<rect x="614.107" y="332.447" width="3.89812" height="3.88235" fill="#FFF8DC"/>
<rect x="941.549" y="332.447" width="3.89812" height="3.88235" fill="#FFF8DC"/>
<rect x="426.998" y="332.447" width="3.89812" height="3.88235" fill="#FFF8DC"/>
<rect x="801.217" y="332.447" width="3.89812" height="3.88235" fill="#FFF8DC"/>
<rect x="1128.66" y="332.447" width="3.89812" height="3.88235" fill="#FFF8DC"/>
<rect x="1362.55" y="332.447" width="3.89812" height="3.88235" fill="#FFF8DC"/>
<rect x="333.441" y="332.447" width="3.89812" height="3.88235" fill="#FFF8DC"/>
<rect x="146.332" y="332.447" width="3.89812" height="3.88235" fill="#FFF8DC"/>
<rect x="707.662" y="332.447" width="3.89812" height="3.88235" fill="#FFF8DC"/>
<rect x="1035.11" y="332.447" width="3.89812" height="3.88235" fill="#FFF8DC"/>
<rect x="1268.99" y="332.447" width="3.89812" height="3.88235" fill="#FFF8DC"/>
<rect x="520.553" y="332.447" width="3.89812" height="3.88235" fill="#FFF8DC"/>
<rect x="894.771" y="332.447" width="3.89812" height="3.88235" fill="#FFF8DC"/>
<rect x="1222.21" y="332.447" width="3.89812" height="3.88235" fill="#FFF8DC"/>
<rect x="1456.1" y="332.447" width="3.89812" height="3.88235" fill="#FFF8DC"/>
</g>
<defs>
<filter id="filter0_f_11_61" x="0" y="0.330078" width="1466" height="342" filterUnits="userSpaceOnUse" color-interpolation-filters="sRGB">
<feFlood flood-opacity="0" result="BackgroundImageFix"/>
<feBlend mode="normal" in="SourceGraphic" in2="BackgroundImageFix" result="shape"/>
<feGaussianBlur stdDeviation="3" result="effect1_foregroundBlur_11_61"/>
</filter>
</defs>
</svg>
