<svg width="1327" height="1026" viewBox="0 0 1327 1026" fill="none" xmlns="http://www.w3.org/2000/svg">
<g opacity="0.4" filter="url(#filter0_f_3585_1086)">
<path d="M559.078 776.053C506.296 789.917 464.766 806.377 444 826L559.078 776.053C859.113 697.245 1522.73 702.307 802.889 687C790.529 686.737 778.404 686.411 766.508 686.024L1073 553L1012.32 200V455.496C1011.81 454.993 946.172 413.079 881.891 368.025C921.206 333.832 904.374 296.396 802.889 265.5C704.264 235.475 791.741 304.838 881.891 368.025C839.131 405.214 729.951 438.568 591.026 455.5C377.702 481.5 551.658 360.167 347.506 338.5C208.727 354.431 -36.3051 659.884 766.508 686.024L559.078 776.053Z" fill="#FFFAE6" fill-opacity="0.5"/>
</g>
<defs>
<filter id="filter0_f_3585_1086" x="0.773438" y="0" width="1325.57" height="1026" filterUnits="userSpaceOnUse" color-interpolation-filters="sRGB">
<feFlood flood-opacity="0" result="BackgroundImageFix"/>
<feBlend mode="normal" in="SourceGraphic" in2="BackgroundImageFix" result="shape"/>
<feGaussianBlur stdDeviation="100" result="effect1_foregroundBlur_3585_1086"/>
</filter>
</defs>
</svg>
