<svg width="1120" height="343" viewBox="0 0 1120 343" fill="none" xmlns="http://www.w3.org/2000/svg">
<g opacity="0.6" filter="url(#filter0_f_3824_1045)">
<rect x="175.324" y="48" width="2.77755" height="2.90588" fill="#E2E2E2"/>
<rect x="42" y="48" width="2.77755" height="2.90588" fill="#E2E2E2"/>
<rect x="441.957" y="48" width="2.77755" height="2.90588" fill="#E2E2E2"/>
<rect x="308.637" y="48" width="2.77755" height="2.90588" fill="#E2E2E2"/>
<rect x="575.277" y="48" width="2.77755" height="2.90588" fill="#E2E2E2"/>
<rect x="808.586" y="48" width="2.77755" height="2.90588" fill="#E2E2E2"/>
<rect x="975.234" y="48" width="2.77755" height="2.90588" fill="#E2E2E2"/>
<rect x="241.977" y="48" width="2.77755" height="2.90588" fill="#E2E2E2"/>
<rect x="108.656" y="48" width="2.77755" height="2.90588" fill="#E2E2E2"/>
<rect x="508.613" y="48" width="2.77755" height="2.90588" fill="#E2E2E2"/>
<rect x="741.926" y="48" width="2.77755" height="2.90588" fill="#E2E2E2"/>
<rect x="375.301" y="48" width="2.77755" height="2.90588" fill="#E2E2E2"/>
<rect x="641.938" y="48" width="2.77755" height="2.90588" fill="#E2E2E2"/>
<rect x="875.242" y="48" width="2.77755" height="2.90588" fill="#E2E2E2"/>
<rect x="1041.89" y="48" width="2.77755" height="2.90588" fill="#E2E2E2"/>
<rect x="208.645" y="48" width="2.77755" height="2.90588" fill="#E2E2E2"/>
<rect x="75.3281" y="48" width="2.77755" height="2.90588" fill="#E2E2E2"/>
<rect x="475.289" y="48" width="2.77755" height="2.90588" fill="#E2E2E2"/>
<rect x="708.594" y="48" width="2.77755" height="2.90588" fill="#E2E2E2"/>
<rect x="341.969" y="48" width="2.77755" height="2.90588" fill="#E2E2E2"/>
<rect x="608.605" y="48" width="2.77755" height="2.90588" fill="#E2E2E2"/>
<rect x="841.914" y="48" width="2.77755" height="2.90588" fill="#E2E2E2"/>
<rect x="1008.57" y="48" width="2.77755" height="2.90588" fill="#E2E2E2"/>
<rect x="275.305" y="48" width="2.77755" height="2.90588" fill="#E2E2E2"/>
<rect x="141.992" y="48" width="2.77755" height="2.90588" fill="#E2E2E2"/>
<rect x="541.945" y="48" width="2.77755" height="2.90588" fill="#E2E2E2"/>
<rect x="775.254" y="48" width="2.77755" height="2.90588" fill="#E2E2E2"/>
<rect x="941.902" y="48" width="2.77755" height="2.90588" fill="#E2E2E2"/>
<rect x="408.629" y="48" width="2.77755" height="2.90588" fill="#E2E2E2"/>
<rect x="675.266" y="48" width="2.77755" height="2.90588" fill="#E2E2E2"/>
<rect x="908.57" y="48" width="2.77755" height="2.90588" fill="#E2E2E2"/>
<rect x="1075.22" y="48" width="2.77755" height="2.90588" fill="#E2E2E2"/>
<rect x="175.324" y="152.613" width="2.77755" height="2.90588" fill="#E2E2E2"/>
<rect x="42" y="152.613" width="2.77755" height="2.90588" fill="#E2E2E2"/>
<rect x="441.957" y="152.613" width="2.77755" height="2.90588" fill="#E2E2E2"/>
<rect x="308.637" y="152.613" width="2.77755" height="2.90588" fill="#E2E2E2"/>
<rect x="575.277" y="152.613" width="2.77755" height="2.90588" fill="#E2E2E2"/>
<rect x="808.586" y="152.613" width="2.77755" height="2.90588" fill="#E2E2E2"/>
<rect x="975.234" y="152.613" width="2.77755" height="2.90588" fill="#E2E2E2"/>
<rect x="241.977" y="152.613" width="2.77755" height="2.90588" fill="#E2E2E2"/>
<rect x="108.656" y="152.613" width="2.77755" height="2.90588" fill="#E2E2E2"/>
<rect x="508.613" y="152.613" width="2.77755" height="2.90588" fill="#E2E2E2"/>
<rect x="741.926" y="152.613" width="2.77755" height="2.90588" fill="#E2E2E2"/>
<rect x="375.301" y="152.613" width="2.77755" height="2.90588" fill="#E2E2E2"/>
<rect x="641.938" y="152.613" width="2.77755" height="2.90588" fill="#E2E2E2"/>
<rect x="875.242" y="152.613" width="2.77755" height="2.90588" fill="#E2E2E2"/>
<rect x="1041.89" y="152.613" width="2.77755" height="2.90588" fill="#E2E2E2"/>
<rect x="208.645" y="152.613" width="2.77755" height="2.90588" fill="#E2E2E2"/>
<rect x="75.3281" y="152.613" width="2.77755" height="2.90588" fill="#E2E2E2"/>
<rect x="475.289" y="152.613" width="2.77755" height="2.90588" fill="#E2E2E2"/>
<rect x="708.594" y="152.613" width="2.77755" height="2.90588" fill="#E2E2E2"/>
<rect x="341.969" y="152.613" width="2.77755" height="2.90588" fill="#E2E2E2"/>
<rect x="608.605" y="152.613" width="2.77755" height="2.90588" fill="#E2E2E2"/>
<rect x="841.914" y="152.613" width="2.77755" height="2.90588" fill="#E2E2E2"/>
<rect x="1008.57" y="152.613" width="2.77755" height="2.90588" fill="#E2E2E2"/>
<rect x="275.305" y="152.613" width="2.77755" height="2.90588" fill="#E2E2E2"/>
<rect x="141.992" y="152.613" width="2.77755" height="2.90588" fill="#E2E2E2"/>
<rect x="541.945" y="152.613" width="2.77755" height="2.90588" fill="#E2E2E2"/>
<rect x="775.254" y="152.613" width="2.77755" height="2.90588" fill="#E2E2E2"/>
<rect x="941.902" y="152.613" width="2.77755" height="2.90588" fill="#E2E2E2"/>
<rect x="408.629" y="152.613" width="2.77755" height="2.90588" fill="#E2E2E2"/>
<rect x="675.266" y="152.613" width="2.77755" height="2.90588" fill="#E2E2E2"/>
<rect x="908.57" y="152.613" width="2.77755" height="2.90588" fill="#E2E2E2"/>
<rect x="1075.22" y="152.613" width="2.77755" height="2.90588" fill="#E2E2E2"/>
<rect x="175.324" y="82.8672" width="2.77755" height="2.90588" fill="#E2E2E2"/>
<rect x="42" y="82.8672" width="2.77755" height="2.90588" fill="#E2E2E2"/>
<rect x="441.957" y="82.8672" width="2.77755" height="2.90588" fill="#E2E2E2"/>
<rect x="308.637" y="82.8672" width="2.77755" height="2.90588" fill="#E2E2E2"/>
<rect x="575.277" y="82.8672" width="2.77755" height="2.90588" fill="#E2E2E2"/>
<rect x="808.586" y="82.8672" width="2.77755" height="2.90588" fill="#E2E2E2"/>
<rect x="975.234" y="82.8672" width="2.77755" height="2.90588" fill="#E2E2E2"/>
<rect x="241.977" y="82.8672" width="2.77755" height="2.90588" fill="#E2E2E2"/>
<rect x="108.656" y="82.8672" width="2.77755" height="2.90588" fill="#E2E2E2"/>
<rect x="508.613" y="82.8672" width="2.77755" height="2.90588" fill="#E2E2E2"/>
<rect x="741.926" y="82.8672" width="2.77755" height="2.90588" fill="#E2E2E2"/>
<rect x="375.301" y="82.8672" width="2.77755" height="2.90588" fill="#E2E2E2"/>
<rect x="641.938" y="82.8672" width="2.77755" height="2.90588" fill="#E2E2E2"/>
<rect x="875.242" y="82.8672" width="2.77755" height="2.90588" fill="#E2E2E2"/>
<rect x="1041.89" y="82.8672" width="2.77755" height="2.90588" fill="#E2E2E2"/>
<rect x="208.645" y="82.8672" width="2.77755" height="2.90588" fill="#E2E2E2"/>
<rect x="75.3281" y="82.8672" width="2.77755" height="2.90588" fill="#E2E2E2"/>
<rect x="475.289" y="82.8672" width="2.77755" height="2.90588" fill="#E2E2E2"/>
<rect x="708.594" y="82.8672" width="2.77755" height="2.90588" fill="#E2E2E2"/>
<rect x="341.969" y="82.8672" width="2.77755" height="2.90588" fill="#E2E2E2"/>
<rect x="608.605" y="82.8672" width="2.77755" height="2.90588" fill="#E2E2E2"/>
<rect x="841.914" y="82.8672" width="2.77755" height="2.90588" fill="#E2E2E2"/>
<rect x="1008.57" y="82.8672" width="2.77755" height="2.90588" fill="#E2E2E2"/>
<rect x="275.305" y="82.8672" width="2.77755" height="2.90588" fill="#E2E2E2"/>
<rect x="141.992" y="82.8672" width="2.77755" height="2.90588" fill="#E2E2E2"/>
<rect x="541.945" y="82.8672" width="2.77755" height="2.90588" fill="#E2E2E2"/>
<rect x="775.254" y="82.8672" width="2.77755" height="2.90588" fill="#E2E2E2"/>
<rect x="941.902" y="82.8672" width="2.77755" height="2.90588" fill="#E2E2E2"/>
<rect x="408.629" y="82.8672" width="2.77755" height="2.90588" fill="#E2E2E2"/>
<rect x="675.266" y="82.8672" width="2.77755" height="2.90588" fill="#E2E2E2"/>
<rect x="908.57" y="82.8672" width="2.77755" height="2.90588" fill="#E2E2E2"/>
<rect x="1075.22" y="82.8672" width="2.77755" height="2.90588" fill="#E2E2E2"/>
<rect x="175.324" y="187.48" width="2.77755" height="2.90588" fill="#E2E2E2"/>
<rect x="42" y="187.48" width="2.77755" height="2.90588" fill="#E2E2E2"/>
<rect x="441.957" y="187.48" width="2.77755" height="2.90588" fill="#E2E2E2"/>
<rect x="308.637" y="187.48" width="2.77755" height="2.90588" fill="#E2E2E2"/>
<rect x="575.277" y="187.48" width="2.77755" height="2.90588" fill="#E2E2E2"/>
<rect x="808.586" y="187.48" width="2.77755" height="2.90588" fill="#E2E2E2"/>
<rect x="975.234" y="187.48" width="2.77755" height="2.90588" fill="#E2E2E2"/>
<rect x="241.977" y="187.48" width="2.77755" height="2.90588" fill="#E2E2E2"/>
<rect x="108.656" y="187.48" width="2.77755" height="2.90588" fill="#E2E2E2"/>
<rect x="508.613" y="187.48" width="2.77755" height="2.90588" fill="#E2E2E2"/>
<rect x="741.926" y="187.48" width="2.77755" height="2.90588" fill="#E2E2E2"/>
<rect x="375.301" y="187.48" width="2.77755" height="2.90588" fill="#E2E2E2"/>
<rect x="641.938" y="187.48" width="2.77755" height="2.90588" fill="#E2E2E2"/>
<rect x="875.242" y="187.48" width="2.77755" height="2.90588" fill="#E2E2E2"/>
<rect x="1041.89" y="187.48" width="2.77755" height="2.90588" fill="#E2E2E2"/>
<rect x="208.645" y="187.48" width="2.77755" height="2.90588" fill="#E2E2E2"/>
<rect x="75.3281" y="187.48" width="2.77755" height="2.90588" fill="#E2E2E2"/>
<rect x="475.289" y="187.48" width="2.77755" height="2.90588" fill="#E2E2E2"/>
<rect x="708.594" y="187.48" width="2.77755" height="2.90588" fill="#E2E2E2"/>
<rect x="341.969" y="187.48" width="2.77755" height="2.90588" fill="#E2E2E2"/>
<rect x="608.605" y="187.48" width="2.77755" height="2.90588" fill="#E2E2E2"/>
<rect x="841.914" y="187.48" width="2.77755" height="2.90588" fill="#E2E2E2"/>
<rect x="1008.57" y="187.48" width="2.77755" height="2.90588" fill="#E2E2E2"/>
<rect x="275.305" y="187.48" width="2.77755" height="2.90588" fill="#E2E2E2"/>
<rect x="141.992" y="187.48" width="2.77755" height="2.90588" fill="#E2E2E2"/>
<rect x="541.945" y="187.48" width="2.77755" height="2.90588" fill="#E2E2E2"/>
<rect x="775.254" y="187.48" width="2.77755" height="2.90588" fill="#E2E2E2"/>
<rect x="941.902" y="187.48" width="2.77755" height="2.90588" fill="#E2E2E2"/>
<rect x="408.629" y="187.48" width="2.77755" height="2.90588" fill="#E2E2E2"/>
<rect x="675.266" y="187.48" width="2.77755" height="2.90588" fill="#E2E2E2"/>
<rect x="908.57" y="187.48" width="2.77755" height="2.90588" fill="#E2E2E2"/>
<rect x="1075.22" y="187.48" width="2.77755" height="2.90588" fill="#E2E2E2"/>
<rect x="175.324" y="257.219" width="2.77755" height="2.90588" fill="#E2E2E2"/>
<rect x="42" y="257.219" width="2.77755" height="2.90588" fill="#E2E2E2"/>
<rect x="441.957" y="257.219" width="2.77755" height="2.90588" fill="#E2E2E2"/>
<rect x="308.637" y="257.219" width="2.77755" height="2.90588" fill="#E2E2E2"/>
<rect x="575.277" y="257.219" width="2.77755" height="2.90588" fill="#E2E2E2"/>
<rect x="808.586" y="257.219" width="2.77755" height="2.90588" fill="#E2E2E2"/>
<rect x="975.234" y="257.219" width="2.77755" height="2.90588" fill="#E2E2E2"/>
<rect x="241.977" y="257.219" width="2.77755" height="2.90588" fill="#E2E2E2"/>
<rect x="108.656" y="257.219" width="2.77755" height="2.90588" fill="#E2E2E2"/>
<rect x="508.613" y="257.219" width="2.77755" height="2.90588" fill="#E2E2E2"/>
<rect x="741.926" y="257.219" width="2.77755" height="2.90588" fill="#E2E2E2"/>
<rect x="375.301" y="257.219" width="2.77755" height="2.90588" fill="#E2E2E2"/>
<rect x="641.938" y="257.219" width="2.77755" height="2.90588" fill="#E2E2E2"/>
<rect x="875.242" y="257.219" width="2.77755" height="2.90588" fill="#E2E2E2"/>
<rect x="1041.89" y="257.219" width="2.77755" height="2.90588" fill="#E2E2E2"/>
<rect x="208.645" y="257.219" width="2.77755" height="2.90588" fill="#E2E2E2"/>
<rect x="75.3281" y="257.219" width="2.77755" height="2.90588" fill="#E2E2E2"/>
<rect x="475.289" y="257.219" width="2.77755" height="2.90588" fill="#E2E2E2"/>
<rect x="708.594" y="257.219" width="2.77755" height="2.90588" fill="#E2E2E2"/>
<rect x="341.969" y="257.219" width="2.77755" height="2.90588" fill="#E2E2E2"/>
<rect x="608.605" y="257.219" width="2.77755" height="2.90588" fill="#E2E2E2"/>
<rect x="841.914" y="257.219" width="2.77755" height="2.90588" fill="#E2E2E2"/>
<rect x="1008.57" y="257.219" width="2.77755" height="2.90588" fill="#E2E2E2"/>
<rect x="275.305" y="257.219" width="2.77755" height="2.90588" fill="#E2E2E2"/>
<rect x="141.992" y="257.219" width="2.77755" height="2.90588" fill="#E2E2E2"/>
<rect x="541.945" y="257.219" width="2.77755" height="2.90588" fill="#E2E2E2"/>
<rect x="775.254" y="257.219" width="2.77755" height="2.90588" fill="#E2E2E2"/>
<rect x="941.902" y="257.219" width="2.77755" height="2.90588" fill="#E2E2E2"/>
<rect x="408.629" y="257.219" width="2.77755" height="2.90588" fill="#E2E2E2"/>
<rect x="675.266" y="257.219" width="2.77755" height="2.90588" fill="#E2E2E2"/>
<rect x="908.57" y="257.219" width="2.77755" height="2.90588" fill="#E2E2E2"/>
<rect x="1075.22" y="257.219" width="2.77755" height="2.90588" fill="#E2E2E2"/>
<rect x="175.324" y="117.742" width="2.77755" height="2.90588" fill="#E2E2E2"/>
<rect x="42" y="117.742" width="2.77755" height="2.90588" fill="#E2E2E2"/>
<rect x="441.957" y="117.742" width="2.77755" height="2.90588" fill="#E2E2E2"/>
<rect x="308.637" y="117.742" width="2.77755" height="2.90588" fill="#E2E2E2"/>
<rect x="575.277" y="117.742" width="2.77755" height="2.90588" fill="#E2E2E2"/>
<rect x="808.586" y="117.742" width="2.77755" height="2.90588" fill="#E2E2E2"/>
<rect x="975.234" y="117.742" width="2.77755" height="2.90588" fill="#E2E2E2"/>
<rect x="241.977" y="117.742" width="2.77755" height="2.90588" fill="#E2E2E2"/>
<rect x="108.656" y="117.742" width="2.77755" height="2.90588" fill="#E2E2E2"/>
<rect x="508.613" y="117.742" width="2.77755" height="2.90588" fill="#E2E2E2"/>
<rect x="741.926" y="117.742" width="2.77755" height="2.90588" fill="#E2E2E2"/>
<rect x="375.301" y="117.742" width="2.77755" height="2.90588" fill="#E2E2E2"/>
<rect x="641.938" y="117.742" width="2.77755" height="2.90588" fill="#E2E2E2"/>
<rect x="875.242" y="117.742" width="2.77755" height="2.90588" fill="#E2E2E2"/>
<rect x="1041.89" y="117.742" width="2.77755" height="2.90588" fill="#E2E2E2"/>
<rect x="208.645" y="117.742" width="2.77755" height="2.90588" fill="#E2E2E2"/>
<rect x="75.3281" y="117.742" width="2.77755" height="2.90588" fill="#E2E2E2"/>
<rect x="475.289" y="117.742" width="2.77755" height="2.90588" fill="#E2E2E2"/>
<rect x="708.594" y="117.742" width="2.77755" height="2.90588" fill="#E2E2E2"/>
<rect x="341.969" y="117.742" width="2.77755" height="2.90588" fill="#E2E2E2"/>
<rect x="608.605" y="117.742" width="2.77755" height="2.90588" fill="#E2E2E2"/>
<rect x="841.914" y="117.742" width="2.77755" height="2.90588" fill="#E2E2E2"/>
<rect x="1008.57" y="117.742" width="2.77755" height="2.90588" fill="#E2E2E2"/>
<rect x="275.305" y="117.742" width="2.77755" height="2.90588" fill="#E2E2E2"/>
<rect x="141.992" y="117.742" width="2.77755" height="2.90588" fill="#E2E2E2"/>
<rect x="541.945" y="117.742" width="2.77755" height="2.90588" fill="#E2E2E2"/>
<rect x="775.254" y="117.742" width="2.77755" height="2.90588" fill="#E2E2E2"/>
<rect x="941.902" y="117.742" width="2.77755" height="2.90588" fill="#E2E2E2"/>
<rect x="408.629" y="117.742" width="2.77755" height="2.90588" fill="#E2E2E2"/>
<rect x="675.266" y="117.742" width="2.77755" height="2.90588" fill="#E2E2E2"/>
<rect x="908.57" y="117.742" width="2.77755" height="2.90588" fill="#E2E2E2"/>
<rect x="1075.22" y="117.742" width="2.77755" height="2.90588" fill="#E2E2E2"/>
<rect x="175.324" y="222.355" width="2.77755" height="2.90588" fill="#E2E2E2"/>
<rect x="42" y="222.355" width="2.77755" height="2.90588" fill="#E2E2E2"/>
<rect x="441.957" y="222.355" width="2.77755" height="2.90588" fill="#E2E2E2"/>
<rect x="308.637" y="222.355" width="2.77755" height="2.90588" fill="#E2E2E2"/>
<rect x="575.277" y="222.355" width="2.77755" height="2.90588" fill="#E2E2E2"/>
<rect x="808.586" y="222.355" width="2.77755" height="2.90588" fill="#E2E2E2"/>
<rect x="975.234" y="222.355" width="2.77755" height="2.90588" fill="#E2E2E2"/>
<rect x="241.977" y="222.355" width="2.77755" height="2.90588" fill="#E2E2E2"/>
<rect x="108.656" y="222.355" width="2.77755" height="2.90588" fill="#E2E2E2"/>
<rect x="508.613" y="222.355" width="2.77755" height="2.90588" fill="#E2E2E2"/>
<rect x="741.926" y="222.355" width="2.77755" height="2.90588" fill="#E2E2E2"/>
<rect x="375.301" y="222.355" width="2.77755" height="2.90588" fill="#E2E2E2"/>
<rect x="641.938" y="222.355" width="2.77755" height="2.90588" fill="#E2E2E2"/>
<rect x="875.242" y="222.355" width="2.77755" height="2.90588" fill="#E2E2E2"/>
<rect x="1041.89" y="222.355" width="2.77755" height="2.90588" fill="#E2E2E2"/>
<rect x="208.645" y="222.355" width="2.77755" height="2.90588" fill="#E2E2E2"/>
<rect x="75.3281" y="222.355" width="2.77755" height="2.90588" fill="#E2E2E2"/>
<rect x="475.289" y="222.355" width="2.77755" height="2.90588" fill="#E2E2E2"/>
<rect x="708.594" y="222.355" width="2.77755" height="2.90588" fill="#E2E2E2"/>
<rect x="341.969" y="222.355" width="2.77755" height="2.90588" fill="#E2E2E2"/>
<rect x="608.605" y="222.355" width="2.77755" height="2.90588" fill="#E2E2E2"/>
<rect x="841.914" y="222.355" width="2.77755" height="2.90588" fill="#E2E2E2"/>
<rect x="1008.57" y="222.355" width="2.77755" height="2.90588" fill="#E2E2E2"/>
<rect x="275.305" y="222.355" width="2.77755" height="2.90588" fill="#E2E2E2"/>
<rect x="141.992" y="222.355" width="2.77755" height="2.90588" fill="#E2E2E2"/>
<rect x="541.945" y="222.355" width="2.77755" height="2.90588" fill="#E2E2E2"/>
<rect x="775.254" y="222.355" width="2.77755" height="2.90588" fill="#E2E2E2"/>
<rect x="941.902" y="222.355" width="2.77755" height="2.90588" fill="#E2E2E2"/>
<rect x="408.629" y="222.355" width="2.77755" height="2.90588" fill="#E2E2E2"/>
<rect x="675.266" y="222.355" width="2.77755" height="2.90588" fill="#E2E2E2"/>
<rect x="908.57" y="222.355" width="2.77755" height="2.90588" fill="#E2E2E2"/>
<rect x="1075.22" y="222.355" width="2.77755" height="2.90588" fill="#E2E2E2"/>
<rect x="175.324" y="292.094" width="2.77755" height="2.90588" fill="#E2E2E2"/>
<rect x="42" y="292.094" width="2.77755" height="2.90588" fill="#E2E2E2"/>
<rect x="441.957" y="292.094" width="2.77755" height="2.90588" fill="#E2E2E2"/>
<rect x="308.637" y="292.094" width="2.77755" height="2.90588" fill="#E2E2E2"/>
<rect x="575.277" y="292.094" width="2.77755" height="2.90588" fill="#E2E2E2"/>
<rect x="808.586" y="292.094" width="2.77755" height="2.90588" fill="#E2E2E2"/>
<rect x="975.234" y="292.094" width="2.77755" height="2.90588" fill="#E2E2E2"/>
<rect x="241.977" y="292.094" width="2.77755" height="2.90588" fill="#E2E2E2"/>
<rect x="108.656" y="292.094" width="2.77755" height="2.90588" fill="#E2E2E2"/>
<rect x="508.613" y="292.094" width="2.77755" height="2.90588" fill="#E2E2E2"/>
<rect x="741.926" y="292.094" width="2.77755" height="2.90588" fill="#E2E2E2"/>
<rect x="375.301" y="292.094" width="2.77755" height="2.90588" fill="#E2E2E2"/>
<rect x="641.938" y="292.094" width="2.77755" height="2.90588" fill="#E2E2E2"/>
<rect x="875.242" y="292.094" width="2.77755" height="2.90588" fill="#E2E2E2"/>
<rect x="1041.89" y="292.094" width="2.77755" height="2.90588" fill="#E2E2E2"/>
<rect x="208.645" y="292.094" width="2.77755" height="2.90588" fill="#E2E2E2"/>
<rect x="75.3281" y="292.094" width="2.77755" height="2.90588" fill="#E2E2E2"/>
<rect x="475.289" y="292.094" width="2.77755" height="2.90588" fill="#E2E2E2"/>
<rect x="708.594" y="292.094" width="2.77755" height="2.90588" fill="#E2E2E2"/>
<rect x="341.969" y="292.094" width="2.77755" height="2.90588" fill="#E2E2E2"/>
<rect x="608.605" y="292.094" width="2.77755" height="2.90588" fill="#E2E2E2"/>
<rect x="841.914" y="292.094" width="2.77755" height="2.90588" fill="#E2E2E2"/>
<rect x="1008.57" y="292.094" width="2.77755" height="2.90588" fill="#E2E2E2"/>
<rect x="275.305" y="292.094" width="2.77755" height="2.90588" fill="#E2E2E2"/>
<rect x="141.992" y="292.094" width="2.77755" height="2.90588" fill="#E2E2E2"/>
<rect x="541.945" y="292.094" width="2.77755" height="2.90588" fill="#E2E2E2"/>
<rect x="775.254" y="292.094" width="2.77755" height="2.90588" fill="#E2E2E2"/>
<rect x="941.902" y="292.094" width="2.77755" height="2.90588" fill="#E2E2E2"/>
<rect x="408.629" y="292.094" width="2.77755" height="2.90588" fill="#E2E2E2"/>
<rect x="675.266" y="292.094" width="2.77755" height="2.90588" fill="#E2E2E2"/>
<rect x="908.57" y="292.094" width="2.77755" height="2.90588" fill="#E2E2E2"/>
<rect x="1075.22" y="292.094" width="2.77755" height="2.90588" fill="#E2E2E2"/>
<rect x="175.324" y="48" width="2.77755" height="2.90588" fill="#E2E2E2"/>
<rect x="42" y="48" width="2.77755" height="2.90588" fill="#E2E2E2"/>
<rect x="441.957" y="48" width="2.77755" height="2.90588" fill="#E2E2E2"/>
<rect x="308.637" y="48" width="2.77755" height="2.90588" fill="#E2E2E2"/>
<rect x="575.277" y="48" width="2.77755" height="2.90588" fill="#E2E2E2"/>
<rect x="808.586" y="48" width="2.77755" height="2.90588" fill="#E2E2E2"/>
<rect x="975.234" y="48" width="2.77755" height="2.90588" fill="#E2E2E2"/>
<rect x="241.977" y="48" width="2.77755" height="2.90588" fill="#E2E2E2"/>
<rect x="108.656" y="48" width="2.77755" height="2.90588" fill="#E2E2E2"/>
<rect x="508.613" y="48" width="2.77755" height="2.90588" fill="#E2E2E2"/>
<rect x="741.926" y="48" width="2.77755" height="2.90588" fill="#E2E2E2"/>
<rect x="375.301" y="48" width="2.77755" height="2.90588" fill="#E2E2E2"/>
<rect x="641.938" y="48" width="2.77755" height="2.90588" fill="#E2E2E2"/>
<rect x="875.242" y="48" width="2.77755" height="2.90588" fill="#E2E2E2"/>
<rect x="1041.89" y="48" width="2.77755" height="2.90588" fill="#E2E2E2"/>
<rect x="208.645" y="48" width="2.77755" height="2.90588" fill="#E2E2E2"/>
<rect x="75.3281" y="48" width="2.77755" height="2.90588" fill="#E2E2E2"/>
<rect x="475.289" y="48" width="2.77755" height="2.90588" fill="#E2E2E2"/>
<rect x="708.594" y="48" width="2.77755" height="2.90588" fill="#E2E2E2"/>
<rect x="341.969" y="48" width="2.77755" height="2.90588" fill="#E2E2E2"/>
<rect x="608.605" y="48" width="2.77755" height="2.90588" fill="#E2E2E2"/>
<rect x="841.914" y="48" width="2.77755" height="2.90588" fill="#E2E2E2"/>
<rect x="1008.57" y="48" width="2.77755" height="2.90588" fill="#E2E2E2"/>
<rect x="275.305" y="48" width="2.77755" height="2.90588" fill="#E2E2E2"/>
<rect x="141.992" y="48" width="2.77755" height="2.90588" fill="#E2E2E2"/>
<rect x="541.945" y="48" width="2.77755" height="2.90588" fill="#E2E2E2"/>
<rect x="775.254" y="48" width="2.77755" height="2.90588" fill="#E2E2E2"/>
<rect x="941.902" y="48" width="2.77755" height="2.90588" fill="#E2E2E2"/>
<rect x="408.629" y="48" width="2.77755" height="2.90588" fill="#E2E2E2"/>
<rect x="675.266" y="48" width="2.77755" height="2.90588" fill="#E2E2E2"/>
<rect x="908.57" y="48" width="2.77755" height="2.90588" fill="#E2E2E2"/>
<rect x="1075.22" y="48" width="2.77755" height="2.90588" fill="#E2E2E2"/>
<rect x="175.324" y="152.613" width="2.77755" height="2.90588" fill="#E2E2E2"/>
<rect x="42" y="152.613" width="2.77755" height="2.90588" fill="#E2E2E2"/>
<rect x="441.957" y="152.613" width="2.77755" height="2.90588" fill="#E2E2E2"/>
<rect x="308.637" y="152.613" width="2.77755" height="2.90588" fill="#E2E2E2"/>
<rect x="575.277" y="152.613" width="2.77755" height="2.90588" fill="#E2E2E2"/>
<rect x="808.586" y="152.613" width="2.77755" height="2.90588" fill="#E2E2E2"/>
<rect x="975.234" y="152.613" width="2.77755" height="2.90588" fill="#E2E2E2"/>
<rect x="241.977" y="152.613" width="2.77755" height="2.90588" fill="#E2E2E2"/>
<rect x="108.656" y="152.613" width="2.77755" height="2.90588" fill="#E2E2E2"/>
<rect x="508.613" y="152.613" width="2.77755" height="2.90588" fill="#E2E2E2"/>
<rect x="741.926" y="152.613" width="2.77755" height="2.90588" fill="#E2E2E2"/>
<rect x="375.301" y="152.613" width="2.77755" height="2.90588" fill="#E2E2E2"/>
<rect x="641.938" y="152.613" width="2.77755" height="2.90588" fill="#E2E2E2"/>
<rect x="875.242" y="152.613" width="2.77755" height="2.90588" fill="#E2E2E2"/>
<rect x="1041.89" y="152.613" width="2.77755" height="2.90588" fill="#E2E2E2"/>
<rect x="208.645" y="152.613" width="2.77755" height="2.90588" fill="#E2E2E2"/>
<rect x="75.3281" y="152.613" width="2.77755" height="2.90588" fill="#E2E2E2"/>
<rect x="475.289" y="152.613" width="2.77755" height="2.90588" fill="#E2E2E2"/>
<rect x="708.594" y="152.613" width="2.77755" height="2.90588" fill="#E2E2E2"/>
<rect x="341.969" y="152.613" width="2.77755" height="2.90588" fill="#E2E2E2"/>
<rect x="608.605" y="152.613" width="2.77755" height="2.90588" fill="#E2E2E2"/>
<rect x="841.914" y="152.613" width="2.77755" height="2.90588" fill="#E2E2E2"/>
<rect x="1008.57" y="152.613" width="2.77755" height="2.90588" fill="#E2E2E2"/>
<rect x="275.305" y="152.613" width="2.77755" height="2.90588" fill="#E2E2E2"/>
<rect x="141.992" y="152.613" width="2.77755" height="2.90588" fill="#E2E2E2"/>
<rect x="541.945" y="152.613" width="2.77755" height="2.90588" fill="#E2E2E2"/>
<rect x="775.254" y="152.613" width="2.77755" height="2.90588" fill="#E2E2E2"/>
<rect x="941.902" y="152.613" width="2.77755" height="2.90588" fill="#E2E2E2"/>
<rect x="408.629" y="152.613" width="2.77755" height="2.90588" fill="#E2E2E2"/>
<rect x="675.266" y="152.613" width="2.77755" height="2.90588" fill="#E2E2E2"/>
<rect x="908.57" y="152.613" width="2.77755" height="2.90588" fill="#E2E2E2"/>
<rect x="1075.22" y="152.613" width="2.77755" height="2.90588" fill="#E2E2E2"/>
<rect x="175.324" y="82.8672" width="2.77755" height="2.90588" fill="#E2E2E2"/>
<rect x="42" y="82.8672" width="2.77755" height="2.90588" fill="#E2E2E2"/>
<rect x="441.957" y="82.8672" width="2.77755" height="2.90588" fill="#E2E2E2"/>
<rect x="308.637" y="82.8672" width="2.77755" height="2.90588" fill="#E2E2E2"/>
<rect x="575.277" y="82.8672" width="2.77755" height="2.90588" fill="#E2E2E2"/>
<rect x="808.586" y="82.8672" width="2.77755" height="2.90588" fill="#E2E2E2"/>
<rect x="975.234" y="82.8672" width="2.77755" height="2.90588" fill="#E2E2E2"/>
<rect x="241.977" y="82.8672" width="2.77755" height="2.90588" fill="#E2E2E2"/>
<rect x="108.656" y="82.8672" width="2.77755" height="2.90588" fill="#E2E2E2"/>
<rect x="508.613" y="82.8672" width="2.77755" height="2.90588" fill="#E2E2E2"/>
<rect x="741.926" y="82.8672" width="2.77755" height="2.90588" fill="#E2E2E2"/>
<rect x="375.301" y="82.8672" width="2.77755" height="2.90588" fill="#E2E2E2"/>
<rect x="641.938" y="82.8672" width="2.77755" height="2.90588" fill="#E2E2E2"/>
<rect x="875.242" y="82.8672" width="2.77755" height="2.90588" fill="#E2E2E2"/>
<rect x="1041.89" y="82.8672" width="2.77755" height="2.90588" fill="#E2E2E2"/>
<rect x="208.645" y="82.8672" width="2.77755" height="2.90588" fill="#E2E2E2"/>
<rect x="75.3281" y="82.8672" width="2.77755" height="2.90588" fill="#E2E2E2"/>
<rect x="475.289" y="82.8672" width="2.77755" height="2.90588" fill="#E2E2E2"/>
<rect x="708.594" y="82.8672" width="2.77755" height="2.90588" fill="#E2E2E2"/>
<rect x="341.969" y="82.8672" width="2.77755" height="2.90588" fill="#E2E2E2"/>
<rect x="608.605" y="82.8672" width="2.77755" height="2.90588" fill="#E2E2E2"/>
<rect x="841.914" y="82.8672" width="2.77755" height="2.90588" fill="#E2E2E2"/>
<rect x="1008.57" y="82.8672" width="2.77755" height="2.90588" fill="#E2E2E2"/>
<rect x="275.305" y="82.8672" width="2.77755" height="2.90588" fill="#E2E2E2"/>
<rect x="141.992" y="82.8672" width="2.77755" height="2.90588" fill="#E2E2E2"/>
<rect x="541.945" y="82.8672" width="2.77755" height="2.90588" fill="#E2E2E2"/>
<rect x="775.254" y="82.8672" width="2.77755" height="2.90588" fill="#E2E2E2"/>
<rect x="941.902" y="82.8672" width="2.77755" height="2.90588" fill="#E2E2E2"/>
<rect x="408.629" y="82.8672" width="2.77755" height="2.90588" fill="#E2E2E2"/>
<rect x="675.266" y="82.8672" width="2.77755" height="2.90588" fill="#E2E2E2"/>
<rect x="908.57" y="82.8672" width="2.77755" height="2.90588" fill="#E2E2E2"/>
<rect x="1075.22" y="82.8672" width="2.77755" height="2.90588" fill="#E2E2E2"/>
<rect x="175.324" y="187.48" width="2.77755" height="2.90588" fill="#E2E2E2"/>
<rect x="42" y="187.48" width="2.77755" height="2.90588" fill="#E2E2E2"/>
<rect x="441.957" y="187.48" width="2.77755" height="2.90588" fill="#E2E2E2"/>
<rect x="308.637" y="187.48" width="2.77755" height="2.90588" fill="#E2E2E2"/>
<rect x="575.277" y="187.48" width="2.77755" height="2.90588" fill="#E2E2E2"/>
<rect x="808.586" y="187.48" width="2.77755" height="2.90588" fill="#E2E2E2"/>
<rect x="975.234" y="187.48" width="2.77755" height="2.90588" fill="#E2E2E2"/>
<rect x="241.977" y="187.48" width="2.77755" height="2.90588" fill="#E2E2E2"/>
<rect x="108.656" y="187.48" width="2.77755" height="2.90588" fill="#E2E2E2"/>
<rect x="508.613" y="187.48" width="2.77755" height="2.90588" fill="#E2E2E2"/>
<rect x="741.926" y="187.48" width="2.77755" height="2.90588" fill="#E2E2E2"/>
<rect x="375.301" y="187.48" width="2.77755" height="2.90588" fill="#E2E2E2"/>
<rect x="641.938" y="187.48" width="2.77755" height="2.90588" fill="#E2E2E2"/>
<rect x="875.242" y="187.48" width="2.77755" height="2.90588" fill="#E2E2E2"/>
<rect x="1041.89" y="187.48" width="2.77755" height="2.90588" fill="#E2E2E2"/>
<rect x="208.645" y="187.48" width="2.77755" height="2.90588" fill="#E2E2E2"/>
<rect x="75.3281" y="187.48" width="2.77755" height="2.90588" fill="#E2E2E2"/>
<rect x="475.289" y="187.48" width="2.77755" height="2.90588" fill="#E2E2E2"/>
<rect x="708.594" y="187.48" width="2.77755" height="2.90588" fill="#E2E2E2"/>
<rect x="341.969" y="187.48" width="2.77755" height="2.90588" fill="#E2E2E2"/>
<rect x="608.605" y="187.48" width="2.77755" height="2.90588" fill="#E2E2E2"/>
<rect x="841.914" y="187.48" width="2.77755" height="2.90588" fill="#E2E2E2"/>
<rect x="1008.57" y="187.48" width="2.77755" height="2.90588" fill="#E2E2E2"/>
<rect x="275.305" y="187.48" width="2.77755" height="2.90588" fill="#E2E2E2"/>
<rect x="141.992" y="187.48" width="2.77755" height="2.90588" fill="#E2E2E2"/>
<rect x="541.945" y="187.48" width="2.77755" height="2.90588" fill="#E2E2E2"/>
<rect x="775.254" y="187.48" width="2.77755" height="2.90588" fill="#E2E2E2"/>
<rect x="941.902" y="187.48" width="2.77755" height="2.90588" fill="#E2E2E2"/>
<rect x="408.629" y="187.48" width="2.77755" height="2.90588" fill="#E2E2E2"/>
<rect x="675.266" y="187.48" width="2.77755" height="2.90588" fill="#E2E2E2"/>
<rect x="908.57" y="187.48" width="2.77755" height="2.90588" fill="#E2E2E2"/>
<rect x="1075.22" y="187.48" width="2.77755" height="2.90588" fill="#E2E2E2"/>
<rect x="175.324" y="257.219" width="2.77755" height="2.90588" fill="#E2E2E2"/>
<rect x="42" y="257.219" width="2.77755" height="2.90588" fill="#E2E2E2"/>
<rect x="441.957" y="257.219" width="2.77755" height="2.90588" fill="#E2E2E2"/>
<rect x="308.637" y="257.219" width="2.77755" height="2.90588" fill="#E2E2E2"/>
<rect x="575.277" y="257.219" width="2.77755" height="2.90588" fill="#E2E2E2"/>
<rect x="808.586" y="257.219" width="2.77755" height="2.90588" fill="#E2E2E2"/>
<rect x="975.234" y="257.219" width="2.77755" height="2.90588" fill="#E2E2E2"/>
<rect x="241.977" y="257.219" width="2.77755" height="2.90588" fill="#E2E2E2"/>
<rect x="108.656" y="257.219" width="2.77755" height="2.90588" fill="#E2E2E2"/>
<rect x="508.613" y="257.219" width="2.77755" height="2.90588" fill="#E2E2E2"/>
<rect x="741.926" y="257.219" width="2.77755" height="2.90588" fill="#E2E2E2"/>
<rect x="375.301" y="257.219" width="2.77755" height="2.90588" fill="#E2E2E2"/>
<rect x="641.938" y="257.219" width="2.77755" height="2.90588" fill="#E2E2E2"/>
<rect x="875.242" y="257.219" width="2.77755" height="2.90588" fill="#E2E2E2"/>
<rect x="1041.89" y="257.219" width="2.77755" height="2.90588" fill="#E2E2E2"/>
<rect x="208.645" y="257.219" width="2.77755" height="2.90588" fill="#E2E2E2"/>
<rect x="75.3281" y="257.219" width="2.77755" height="2.90588" fill="#E2E2E2"/>
<rect x="475.289" y="257.219" width="2.77755" height="2.90588" fill="#E2E2E2"/>
<rect x="708.594" y="257.219" width="2.77755" height="2.90588" fill="#E2E2E2"/>
<rect x="341.969" y="257.219" width="2.77755" height="2.90588" fill="#E2E2E2"/>
<rect x="608.605" y="257.219" width="2.77755" height="2.90588" fill="#E2E2E2"/>
<rect x="841.914" y="257.219" width="2.77755" height="2.90588" fill="#E2E2E2"/>
<rect x="1008.57" y="257.219" width="2.77755" height="2.90588" fill="#E2E2E2"/>
<rect x="275.305" y="257.219" width="2.77755" height="2.90588" fill="#E2E2E2"/>
<rect x="141.992" y="257.219" width="2.77755" height="2.90588" fill="#E2E2E2"/>
<rect x="541.945" y="257.219" width="2.77755" height="2.90588" fill="#E2E2E2"/>
<rect x="775.254" y="257.219" width="2.77755" height="2.90588" fill="#E2E2E2"/>
<rect x="941.902" y="257.219" width="2.77755" height="2.90588" fill="#E2E2E2"/>
<rect x="408.629" y="257.219" width="2.77755" height="2.90588" fill="#E2E2E2"/>
<rect x="675.266" y="257.219" width="2.77755" height="2.90588" fill="#E2E2E2"/>
<rect x="908.57" y="257.219" width="2.77755" height="2.90588" fill="#E2E2E2"/>
<rect x="1075.22" y="257.219" width="2.77755" height="2.90588" fill="#E2E2E2"/>
<rect x="175.324" y="117.742" width="2.77755" height="2.90588" fill="#E2E2E2"/>
<rect x="42" y="117.742" width="2.77755" height="2.90588" fill="#E2E2E2"/>
<rect x="441.957" y="117.742" width="2.77755" height="2.90588" fill="#E2E2E2"/>
<rect x="308.637" y="117.742" width="2.77755" height="2.90588" fill="#E2E2E2"/>
<rect x="575.277" y="117.742" width="2.77755" height="2.90588" fill="#E2E2E2"/>
<rect x="808.586" y="117.742" width="2.77755" height="2.90588" fill="#E2E2E2"/>
<rect x="975.234" y="117.742" width="2.77755" height="2.90588" fill="#E2E2E2"/>
<rect x="241.977" y="117.742" width="2.77755" height="2.90588" fill="#E2E2E2"/>
<rect x="108.656" y="117.742" width="2.77755" height="2.90588" fill="#E2E2E2"/>
<rect x="508.613" y="117.742" width="2.77755" height="2.90588" fill="#E2E2E2"/>
<rect x="741.926" y="117.742" width="2.77755" height="2.90588" fill="#E2E2E2"/>
<rect x="375.301" y="117.742" width="2.77755" height="2.90588" fill="#E2E2E2"/>
<rect x="641.938" y="117.742" width="2.77755" height="2.90588" fill="#E2E2E2"/>
<rect x="875.242" y="117.742" width="2.77755" height="2.90588" fill="#E2E2E2"/>
<rect x="1041.89" y="117.742" width="2.77755" height="2.90588" fill="#E2E2E2"/>
<rect x="208.645" y="117.742" width="2.77755" height="2.90588" fill="#E2E2E2"/>
<rect x="75.3281" y="117.742" width="2.77755" height="2.90588" fill="#E2E2E2"/>
<rect x="475.289" y="117.742" width="2.77755" height="2.90588" fill="#E2E2E2"/>
<rect x="708.594" y="117.742" width="2.77755" height="2.90588" fill="#E2E2E2"/>
<rect x="341.969" y="117.742" width="2.77755" height="2.90588" fill="#E2E2E2"/>
<rect x="608.605" y="117.742" width="2.77755" height="2.90588" fill="#E2E2E2"/>
<rect x="841.914" y="117.742" width="2.77755" height="2.90588" fill="#E2E2E2"/>
<rect x="1008.57" y="117.742" width="2.77755" height="2.90588" fill="#E2E2E2"/>
<rect x="275.305" y="117.742" width="2.77755" height="2.90588" fill="#E2E2E2"/>
<rect x="141.992" y="117.742" width="2.77755" height="2.90588" fill="#E2E2E2"/>
<rect x="541.945" y="117.742" width="2.77755" height="2.90588" fill="#E2E2E2"/>
<rect x="775.254" y="117.742" width="2.77755" height="2.90588" fill="#E2E2E2"/>
<rect x="941.902" y="117.742" width="2.77755" height="2.90588" fill="#E2E2E2"/>
<rect x="408.629" y="117.742" width="2.77755" height="2.90588" fill="#E2E2E2"/>
<rect x="675.266" y="117.742" width="2.77755" height="2.90588" fill="#E2E2E2"/>
<rect x="908.57" y="117.742" width="2.77755" height="2.90588" fill="#E2E2E2"/>
<rect x="1075.22" y="117.742" width="2.77755" height="2.90588" fill="#E2E2E2"/>
<rect x="175.324" y="222.355" width="2.77755" height="2.90588" fill="#E2E2E2"/>
<rect x="42" y="222.355" width="2.77755" height="2.90588" fill="#E2E2E2"/>
<rect x="441.957" y="222.355" width="2.77755" height="2.90588" fill="#E2E2E2"/>
<rect x="308.637" y="222.355" width="2.77755" height="2.90588" fill="#E2E2E2"/>
<rect x="575.277" y="222.355" width="2.77755" height="2.90588" fill="#E2E2E2"/>
<rect x="808.586" y="222.355" width="2.77755" height="2.90588" fill="#E2E2E2"/>
<rect x="975.234" y="222.355" width="2.77755" height="2.90588" fill="#E2E2E2"/>
<rect x="241.977" y="222.355" width="2.77755" height="2.90588" fill="#E2E2E2"/>
<rect x="108.656" y="222.355" width="2.77755" height="2.90588" fill="#E2E2E2"/>
<rect x="508.613" y="222.355" width="2.77755" height="2.90588" fill="#E2E2E2"/>
<rect x="741.926" y="222.355" width="2.77755" height="2.90588" fill="#E2E2E2"/>
<rect x="375.301" y="222.355" width="2.77755" height="2.90588" fill="#E2E2E2"/>
<rect x="641.938" y="222.355" width="2.77755" height="2.90588" fill="#E2E2E2"/>
<rect x="875.242" y="222.355" width="2.77755" height="2.90588" fill="#E2E2E2"/>
<rect x="1041.89" y="222.355" width="2.77755" height="2.90588" fill="#E2E2E2"/>
<rect x="208.645" y="222.355" width="2.77755" height="2.90588" fill="#E2E2E2"/>
<rect x="75.3281" y="222.355" width="2.77755" height="2.90588" fill="#E2E2E2"/>
<rect x="475.289" y="222.355" width="2.77755" height="2.90588" fill="#E2E2E2"/>
<rect x="708.594" y="222.355" width="2.77755" height="2.90588" fill="#E2E2E2"/>
<rect x="341.969" y="222.355" width="2.77755" height="2.90588" fill="#E2E2E2"/>
<rect x="608.605" y="222.355" width="2.77755" height="2.90588" fill="#E2E2E2"/>
<rect x="841.914" y="222.355" width="2.77755" height="2.90588" fill="#E2E2E2"/>
<rect x="1008.57" y="222.355" width="2.77755" height="2.90588" fill="#E2E2E2"/>
<rect x="275.305" y="222.355" width="2.77755" height="2.90588" fill="#E2E2E2"/>
<rect x="141.992" y="222.355" width="2.77755" height="2.90588" fill="#E2E2E2"/>
<rect x="541.945" y="222.355" width="2.77755" height="2.90588" fill="#E2E2E2"/>
<rect x="775.254" y="222.355" width="2.77755" height="2.90588" fill="#E2E2E2"/>
<rect x="941.902" y="222.355" width="2.77755" height="2.90588" fill="#E2E2E2"/>
<rect x="408.629" y="222.355" width="2.77755" height="2.90588" fill="#E2E2E2"/>
<rect x="675.266" y="222.355" width="2.77755" height="2.90588" fill="#E2E2E2"/>
<rect x="908.57" y="222.355" width="2.77755" height="2.90588" fill="#E2E2E2"/>
<rect x="1075.22" y="222.355" width="2.77755" height="2.90588" fill="#E2E2E2"/>
<rect x="175.324" y="292.094" width="2.77755" height="2.90588" fill="#E2E2E2"/>
<rect x="42" y="292.094" width="2.77755" height="2.90588" fill="#E2E2E2"/>
<rect x="441.957" y="292.094" width="2.77755" height="2.90588" fill="#E2E2E2"/>
<rect x="308.637" y="292.094" width="2.77755" height="2.90588" fill="#E2E2E2"/>
<rect x="575.277" y="292.094" width="2.77755" height="2.90588" fill="#E2E2E2"/>
<rect x="808.586" y="292.094" width="2.77755" height="2.90588" fill="#E2E2E2"/>
<rect x="975.234" y="292.094" width="2.77755" height="2.90588" fill="#E2E2E2"/>
<rect x="241.977" y="292.094" width="2.77755" height="2.90588" fill="#E2E2E2"/>
<rect x="108.656" y="292.094" width="2.77755" height="2.90588" fill="#E2E2E2"/>
<rect x="508.613" y="292.094" width="2.77755" height="2.90588" fill="#E2E2E2"/>
<rect x="741.926" y="292.094" width="2.77755" height="2.90588" fill="#E2E2E2"/>
<rect x="375.301" y="292.094" width="2.77755" height="2.90588" fill="#E2E2E2"/>
<rect x="641.938" y="292.094" width="2.77755" height="2.90588" fill="#E2E2E2"/>
<rect x="875.242" y="292.094" width="2.77755" height="2.90588" fill="#E2E2E2"/>
<rect x="1041.89" y="292.094" width="2.77755" height="2.90588" fill="#E2E2E2"/>
<rect x="208.645" y="292.094" width="2.77755" height="2.90588" fill="#E2E2E2"/>
<rect x="75.3281" y="292.094" width="2.77755" height="2.90588" fill="#E2E2E2"/>
<rect x="475.289" y="292.094" width="2.77755" height="2.90588" fill="#E2E2E2"/>
<rect x="708.594" y="292.094" width="2.77755" height="2.90588" fill="#E2E2E2"/>
<rect x="341.969" y="292.094" width="2.77755" height="2.90588" fill="#E2E2E2"/>
<rect x="608.605" y="292.094" width="2.77755" height="2.90588" fill="#E2E2E2"/>
<rect x="841.914" y="292.094" width="2.77755" height="2.90588" fill="#E2E2E2"/>
<rect x="1008.57" y="292.094" width="2.77755" height="2.90588" fill="#E2E2E2"/>
<rect x="275.305" y="292.094" width="2.77755" height="2.90588" fill="#E2E2E2"/>
<rect x="141.992" y="292.094" width="2.77755" height="2.90588" fill="#E2E2E2"/>
<rect x="541.945" y="292.094" width="2.77755" height="2.90588" fill="#E2E2E2"/>
<rect x="775.254" y="292.094" width="2.77755" height="2.90588" fill="#E2E2E2"/>
<rect x="941.902" y="292.094" width="2.77755" height="2.90588" fill="#E2E2E2"/>
<rect x="408.629" y="292.094" width="2.77755" height="2.90588" fill="#E2E2E2"/>
<rect x="675.266" y="292.094" width="2.77755" height="2.90588" fill="#E2E2E2"/>
<rect x="908.57" y="292.094" width="2.77755" height="2.90588" fill="#E2E2E2"/>
<rect x="1075.22" y="292.094" width="2.77755" height="2.90588" fill="#E2E2E2"/>
</g>
<path d="M32.0347 1L1 31.1351V1H32.0347Z" fill="#FFF8DC" stroke="#FFF8DC" stroke-width="2"/>
<path d="M1087.47 341.5L1118.5 311.365V341.5H1087.47Z" fill="#FFF8DC" stroke="#FFF8DC" stroke-width="2"/>
<path d="M32.9142 342L1 310.086V1H1087.59L1119 32.4143V342H32.9142Z" stroke="#FFF8DC" stroke-width="2"/>
<defs>
<filter id="filter0_f_3824_1045" x="36" y="42" width="1048" height="259" filterUnits="userSpaceOnUse" color-interpolation-filters="sRGB">
<feFlood flood-opacity="0" result="BackgroundImageFix"/>
<feBlend mode="normal" in="SourceGraphic" in2="BackgroundImageFix" result="shape"/>
<feGaussianBlur stdDeviation="3" result="effect1_foregroundBlur_3824_1045"/>
</filter>
</defs>
</svg>
