<svg width="1608" height="446" viewBox="0 0 1608 446" fill="none" xmlns="http://www.w3.org/2000/svg">
<g opacity="0.6" filter="url(#filter0_f_3181_1039)">
<rect x="264.109" y="63.3301" width="3.89812" height="3.88235" fill="#FFFAE6"/>
<rect x="77" y="63.3301" width="3.89812" height="3.88235" fill="#FFFAE6"/>
<rect x="638.328" y="63.3301" width="3.89812" height="3.88235" fill="#FFFAE6"/>
<rect x="451.219" y="63.3301" width="3.89812" height="3.88235" fill="#FFFAE6"/>
<rect x="825.438" y="63.3301" width="3.89812" height="3.88235" fill="#FFFAE6"/>
<rect x="1152.88" y="63.3301" width="3.89812" height="3.88235" fill="#FFFAE6"/>
<rect x="1386.77" y="63.3301" width="3.89812" height="3.88235" fill="#FFFAE6"/>
<rect x="357.664" y="63.3301" width="3.89812" height="3.88235" fill="#FFFAE6"/>
<rect x="170.555" y="63.3301" width="3.89812" height="3.88235" fill="#FFFAE6"/>
<rect x="731.883" y="63.3301" width="3.89812" height="3.88235" fill="#FFFAE6"/>
<rect x="1059.33" y="63.3301" width="3.89812" height="3.88235" fill="#FFFAE6"/>
<rect x="544.773" y="63.3301" width="3.89812" height="3.88235" fill="#FFFAE6"/>
<rect x="918.992" y="63.3301" width="3.89812" height="3.88235" fill="#FFFAE6"/>
<rect x="1246.44" y="63.3301" width="3.89812" height="3.88235" fill="#FFFAE6"/>
<rect x="1480.32" y="63.3301" width="3.89812" height="3.88235" fill="#FFFAE6"/>
<rect x="310.887" y="63.3301" width="3.89812" height="3.88235" fill="#FFFAE6"/>
<rect x="123.777" y="63.3301" width="3.89812" height="3.88235" fill="#FFFAE6"/>
<rect x="685.105" y="63.3301" width="3.89812" height="3.88235" fill="#FFFAE6"/>
<rect x="1012.55" y="63.3301" width="3.89812" height="3.88235" fill="#FFFAE6"/>
<rect x="498" y="63.3301" width="3.89812" height="3.88235" fill="#FFFAE6"/>
<rect x="872.219" y="63.3301" width="3.89812" height="3.88235" fill="#FFFAE6"/>
<rect x="1199.66" y="63.3301" width="3.89812" height="3.88235" fill="#FFFAE6"/>
<rect x="1433.55" y="63.3301" width="3.89812" height="3.88235" fill="#FFFAE6"/>
<rect x="404.441" y="63.3301" width="3.89812" height="3.88235" fill="#FFFAE6"/>
<rect x="217.332" y="63.3301" width="3.89812" height="3.88235" fill="#FFFAE6"/>
<rect x="778.664" y="63.3301" width="3.89812" height="3.88235" fill="#FFFAE6"/>
<rect x="1106.11" y="63.3301" width="3.89812" height="3.88235" fill="#FFFAE6"/>
<rect x="1339.99" y="63.3301" width="3.89812" height="3.88235" fill="#FFFAE6"/>
<rect x="591.555" y="63.3301" width="3.89812" height="3.88235" fill="#FFFAE6"/>
<rect x="965.773" y="63.3301" width="3.89812" height="3.88235" fill="#FFFAE6"/>
<rect x="1293.21" y="63.3301" width="3.89812" height="3.88235" fill="#FFFAE6"/>
<rect x="1527.1" y="63.3301" width="3.89812" height="3.88235" fill="#FFFAE6"/>
<rect x="264.109" y="203.094" width="3.89812" height="3.88235" fill="#FFFAE6"/>
<rect x="77" y="203.094" width="3.89812" height="3.88235" fill="#FFFAE6"/>
<rect x="638.328" y="203.094" width="3.89812" height="3.88235" fill="#FFFAE6"/>
<rect x="451.219" y="203.094" width="3.89812" height="3.88235" fill="#FFFAE6"/>
<rect x="825.438" y="203.094" width="3.89812" height="3.88235" fill="#FFFAE6"/>
<rect x="1152.88" y="203.094" width="3.89812" height="3.88235" fill="#FFFAE6"/>
<rect x="1386.77" y="203.094" width="3.89812" height="3.88235" fill="#FFFAE6"/>
<rect x="357.664" y="203.094" width="3.89812" height="3.88235" fill="#FFFAE6"/>
<rect x="170.555" y="203.094" width="3.89812" height="3.88235" fill="#FFFAE6"/>
<rect x="731.883" y="203.094" width="3.89812" height="3.88235" fill="#FFFAE6"/>
<rect x="1059.33" y="203.094" width="3.89812" height="3.88235" fill="#FFFAE6"/>
<rect x="544.773" y="203.094" width="3.89812" height="3.88235" fill="#FFFAE6"/>
<rect x="918.992" y="203.094" width="3.89812" height="3.88235" fill="#FFFAE6"/>
<rect x="1246.44" y="203.094" width="3.89812" height="3.88235" fill="#FFFAE6"/>
<rect x="1480.32" y="203.094" width="3.89812" height="3.88235" fill="#FFFAE6"/>
<rect x="310.887" y="203.094" width="3.89812" height="3.88235" fill="#FFFAE6"/>
<rect x="123.777" y="203.094" width="3.89812" height="3.88235" fill="#FFFAE6"/>
<rect x="685.109" y="203.094" width="3.89812" height="3.88235" fill="#FFFAE6"/>
<rect x="1012.55" y="203.094" width="3.89812" height="3.88235" fill="#FFFAE6"/>
<rect x="498" y="203.094" width="3.89812" height="3.88235" fill="#FFFAE6"/>
<rect x="872.219" y="203.094" width="3.89812" height="3.88235" fill="#FFFAE6"/>
<rect x="1199.66" y="203.094" width="3.89812" height="3.88235" fill="#FFFAE6"/>
<rect x="1433.55" y="203.094" width="3.89812" height="3.88235" fill="#FFFAE6"/>
<rect x="404.441" y="203.094" width="3.89812" height="3.88235" fill="#FFFAE6"/>
<rect x="217.332" y="203.094" width="3.89812" height="3.88235" fill="#FFFAE6"/>
<rect x="778.664" y="203.094" width="3.89812" height="3.88235" fill="#FFFAE6"/>
<rect x="1106.11" y="203.094" width="3.89812" height="3.88235" fill="#FFFAE6"/>
<rect x="1339.99" y="203.094" width="3.89812" height="3.88235" fill="#FFFAE6"/>
<rect x="591.555" y="203.094" width="3.89812" height="3.88235" fill="#FFFAE6"/>
<rect x="965.773" y="203.094" width="3.89812" height="3.88235" fill="#FFFAE6"/>
<rect x="1293.21" y="203.094" width="3.89812" height="3.88235" fill="#FFFAE6"/>
<rect x="1527.1" y="203.094" width="3.89812" height="3.88235" fill="#FFFAE6"/>
<rect x="264.109" y="109.918" width="3.89812" height="3.88235" fill="#FFFAE6"/>
<rect x="77" y="109.918" width="3.89812" height="3.88235" fill="#FFFAE6"/>
<rect x="638.328" y="109.918" width="3.89812" height="3.88235" fill="#FFFAE6"/>
<rect x="451.219" y="109.918" width="3.89812" height="3.88235" fill="#FFFAE6"/>
<rect x="825.438" y="109.918" width="3.89812" height="3.88235" fill="#FFFAE6"/>
<rect x="1152.88" y="109.918" width="3.89812" height="3.88235" fill="#FFFAE6"/>
<rect x="1386.77" y="109.918" width="3.89812" height="3.88235" fill="#FFFAE6"/>
<rect x="357.664" y="109.918" width="3.89812" height="3.88235" fill="#FFFAE6"/>
<rect x="170.555" y="109.918" width="3.89812" height="3.88235" fill="#FFFAE6"/>
<rect x="731.883" y="109.918" width="3.89812" height="3.88235" fill="#FFFAE6"/>
<rect x="1059.33" y="109.918" width="3.89812" height="3.88235" fill="#FFFAE6"/>
<rect x="544.773" y="109.918" width="3.89812" height="3.88235" fill="#FFFAE6"/>
<rect x="918.992" y="109.918" width="3.89812" height="3.88235" fill="#FFFAE6"/>
<rect x="1246.44" y="109.918" width="3.89812" height="3.88235" fill="#FFFAE6"/>
<rect x="1480.32" y="109.918" width="3.89812" height="3.88235" fill="#FFFAE6"/>
<rect x="310.887" y="109.918" width="3.89812" height="3.88235" fill="#FFFAE6"/>
<rect x="123.777" y="109.918" width="3.89812" height="3.88235" fill="#FFFAE6"/>
<rect x="685.109" y="109.918" width="3.89812" height="3.88235" fill="#FFFAE6"/>
<rect x="1012.55" y="109.918" width="3.89812" height="3.88235" fill="#FFFAE6"/>
<rect x="498" y="109.918" width="3.89812" height="3.88235" fill="#FFFAE6"/>
<rect x="872.219" y="109.918" width="3.89812" height="3.88235" fill="#FFFAE6"/>
<rect x="1199.66" y="109.918" width="3.89812" height="3.88235" fill="#FFFAE6"/>
<rect x="1433.55" y="109.918" width="3.89812" height="3.88235" fill="#FFFAE6"/>
<rect x="404.441" y="109.918" width="3.89812" height="3.88235" fill="#FFFAE6"/>
<rect x="217.332" y="109.918" width="3.89812" height="3.88235" fill="#FFFAE6"/>
<rect x="778.664" y="109.918" width="3.89812" height="3.88235" fill="#FFFAE6"/>
<rect x="1106.11" y="109.918" width="3.89812" height="3.88235" fill="#FFFAE6"/>
<rect x="1339.99" y="109.918" width="3.89812" height="3.88235" fill="#FFFAE6"/>
<rect x="591.555" y="109.918" width="3.89812" height="3.88235" fill="#FFFAE6"/>
<rect x="965.773" y="109.918" width="3.89812" height="3.88235" fill="#FFFAE6"/>
<rect x="1293.21" y="109.918" width="3.89812" height="3.88235" fill="#FFFAE6"/>
<rect x="1527.1" y="109.918" width="3.89812" height="3.88235" fill="#FFFAE6"/>
<rect x="264.109" y="249.682" width="3.89812" height="3.88235" fill="#FFFAE6"/>
<rect x="77" y="249.682" width="3.89812" height="3.88235" fill="#FFFAE6"/>
<rect x="638.328" y="249.682" width="3.89812" height="3.88235" fill="#FFFAE6"/>
<rect x="451.219" y="249.682" width="3.89812" height="3.88235" fill="#FFFAE6"/>
<rect x="825.438" y="249.682" width="3.89812" height="3.88235" fill="#FFFAE6"/>
<rect x="1152.88" y="249.682" width="3.89812" height="3.88235" fill="#FFFAE6"/>
<rect x="1386.77" y="249.682" width="3.89812" height="3.88235" fill="#FFFAE6"/>
<rect x="357.664" y="249.682" width="3.89812" height="3.88235" fill="#FFFAE6"/>
<rect x="170.555" y="249.682" width="3.89812" height="3.88235" fill="#FFFAE6"/>
<rect x="731.883" y="249.682" width="3.89812" height="3.88235" fill="#FFFAE6"/>
<rect x="1059.33" y="249.682" width="3.89812" height="3.88235" fill="#FFFAE6"/>
<rect x="544.773" y="249.682" width="3.89812" height="3.88235" fill="#FFFAE6"/>
<rect x="918.992" y="249.682" width="3.89812" height="3.88235" fill="#FFFAE6"/>
<rect x="1246.44" y="249.682" width="3.89812" height="3.88235" fill="#FFFAE6"/>
<rect x="1480.32" y="249.682" width="3.89812" height="3.88235" fill="#FFFAE6"/>
<rect x="310.887" y="249.682" width="3.89812" height="3.88235" fill="#FFFAE6"/>
<rect x="123.777" y="249.682" width="3.89812" height="3.88235" fill="#FFFAE6"/>
<rect x="685.109" y="249.682" width="3.89812" height="3.88235" fill="#FFFAE6"/>
<rect x="1012.55" y="249.682" width="3.89812" height="3.88235" fill="#FFFAE6"/>
<rect x="498" y="249.682" width="3.89812" height="3.88235" fill="#FFFAE6"/>
<rect x="872.219" y="249.682" width="3.89812" height="3.88235" fill="#FFFAE6"/>
<rect x="1199.66" y="249.682" width="3.89812" height="3.88235" fill="#FFFAE6"/>
<rect x="1433.55" y="249.682" width="3.89812" height="3.88235" fill="#FFFAE6"/>
<rect x="404.441" y="249.682" width="3.89812" height="3.88235" fill="#FFFAE6"/>
<rect x="217.332" y="249.682" width="3.89812" height="3.88235" fill="#FFFAE6"/>
<rect x="778.664" y="249.682" width="3.89812" height="3.88235" fill="#FFFAE6"/>
<rect x="1106.11" y="249.682" width="3.89812" height="3.88235" fill="#FFFAE6"/>
<rect x="1339.99" y="249.682" width="3.89812" height="3.88235" fill="#FFFAE6"/>
<rect x="591.555" y="249.682" width="3.89812" height="3.88235" fill="#FFFAE6"/>
<rect x="965.773" y="249.682" width="3.89812" height="3.88235" fill="#FFFAE6"/>
<rect x="1293.21" y="249.682" width="3.89812" height="3.88235" fill="#FFFAE6"/>
<rect x="1527.1" y="249.682" width="3.89812" height="3.88235" fill="#FFFAE6"/>
<rect x="264.109" y="342.859" width="3.89812" height="3.88235" fill="#FFFAE6"/>
<rect x="77" y="342.859" width="3.89812" height="3.88235" fill="#FFFAE6"/>
<rect x="638.328" y="342.859" width="3.89812" height="3.88235" fill="#FFFAE6"/>
<rect x="451.219" y="342.859" width="3.89812" height="3.88235" fill="#FFFAE6"/>
<rect x="825.438" y="342.859" width="3.89812" height="3.88235" fill="#FFFAE6"/>
<rect x="1152.88" y="342.859" width="3.89812" height="3.88235" fill="#FFFAE6"/>
<rect x="1386.77" y="342.859" width="3.89812" height="3.88235" fill="#FFFAE6"/>
<rect x="357.664" y="342.859" width="3.89812" height="3.88235" fill="#FFFAE6"/>
<rect x="170.555" y="342.859" width="3.89812" height="3.88235" fill="#FFFAE6"/>
<rect x="731.883" y="342.859" width="3.89812" height="3.88235" fill="#FFFAE6"/>
<rect x="1059.33" y="342.859" width="3.89812" height="3.88235" fill="#FFFAE6"/>
<rect x="544.773" y="342.859" width="3.89812" height="3.88235" fill="#FFFAE6"/>
<rect x="918.992" y="342.859" width="3.89812" height="3.88235" fill="#FFFAE6"/>
<rect x="1246.44" y="342.859" width="3.89812" height="3.88235" fill="#FFFAE6"/>
<rect x="1480.32" y="342.859" width="3.89812" height="3.88235" fill="#FFFAE6"/>
<rect x="310.887" y="342.859" width="3.89812" height="3.88235" fill="#FFFAE6"/>
<rect x="123.777" y="342.859" width="3.89812" height="3.88235" fill="#FFFAE6"/>
<rect x="685.109" y="342.859" width="3.89812" height="3.88235" fill="#FFFAE6"/>
<rect x="1012.55" y="342.859" width="3.89812" height="3.88235" fill="#FFFAE6"/>
<rect x="498" y="342.859" width="3.89812" height="3.88235" fill="#FFFAE6"/>
<rect x="872.219" y="342.859" width="3.89812" height="3.88235" fill="#FFFAE6"/>
<rect x="1199.66" y="342.859" width="3.89812" height="3.88235" fill="#FFFAE6"/>
<rect x="1433.55" y="342.859" width="3.89812" height="3.88235" fill="#FFFAE6"/>
<rect x="404.441" y="342.859" width="3.89812" height="3.88235" fill="#FFFAE6"/>
<rect x="217.332" y="342.859" width="3.89812" height="3.88235" fill="#FFFAE6"/>
<rect x="778.664" y="342.859" width="3.89812" height="3.88235" fill="#FFFAE6"/>
<rect x="1106.11" y="342.859" width="3.89812" height="3.88235" fill="#FFFAE6"/>
<rect x="1339.99" y="342.859" width="3.89812" height="3.88235" fill="#FFFAE6"/>
<rect x="591.555" y="342.859" width="3.89812" height="3.88235" fill="#FFFAE6"/>
<rect x="965.773" y="342.859" width="3.89812" height="3.88235" fill="#FFFAE6"/>
<rect x="1293.21" y="342.859" width="3.89812" height="3.88235" fill="#FFFAE6"/>
<rect x="1527.1" y="342.859" width="3.89812" height="3.88235" fill="#FFFAE6"/>
<rect x="264.109" y="156.506" width="3.89812" height="3.88235" fill="#FFFAE6"/>
<rect x="77" y="156.506" width="3.89812" height="3.88235" fill="#FFFAE6"/>
<rect x="638.328" y="156.506" width="3.89812" height="3.88235" fill="#FFFAE6"/>
<rect x="451.219" y="156.506" width="3.89812" height="3.88235" fill="#FFFAE6"/>
<rect x="825.438" y="156.506" width="3.89812" height="3.88235" fill="#FFFAE6"/>
<rect x="1152.88" y="156.506" width="3.89812" height="3.88235" fill="#FFFAE6"/>
<rect x="1386.77" y="156.506" width="3.89812" height="3.88235" fill="#FFFAE6"/>
<rect x="357.664" y="156.506" width="3.89812" height="3.88235" fill="#FFFAE6"/>
<rect x="170.555" y="156.506" width="3.89812" height="3.88235" fill="#FFFAE6"/>
<rect x="731.883" y="156.506" width="3.89812" height="3.88235" fill="#FFFAE6"/>
<rect x="1059.33" y="156.506" width="3.89812" height="3.88235" fill="#FFFAE6"/>
<rect x="544.773" y="156.506" width="3.89812" height="3.88235" fill="#FFFAE6"/>
<rect x="918.992" y="156.506" width="3.89812" height="3.88235" fill="#FFFAE6"/>
<rect x="1246.44" y="156.506" width="3.89812" height="3.88235" fill="#FFFAE6"/>
<rect x="1480.32" y="156.506" width="3.89812" height="3.88235" fill="#FFFAE6"/>
<rect x="310.887" y="156.506" width="3.89812" height="3.88235" fill="#FFFAE6"/>
<rect x="123.777" y="156.506" width="3.89812" height="3.88235" fill="#FFFAE6"/>
<rect x="685.109" y="156.506" width="3.89812" height="3.88235" fill="#FFFAE6"/>
<rect x="1012.55" y="156.506" width="3.89812" height="3.88235" fill="#FFFAE6"/>
<rect x="498" y="156.506" width="3.89812" height="3.88235" fill="#FFFAE6"/>
<rect x="872.219" y="156.506" width="3.89812" height="3.88235" fill="#FFFAE6"/>
<rect x="1199.66" y="156.506" width="3.89812" height="3.88235" fill="#FFFAE6"/>
<rect x="1433.55" y="156.506" width="3.89812" height="3.88235" fill="#FFFAE6"/>
<rect x="404.441" y="156.506" width="3.89812" height="3.88235" fill="#FFFAE6"/>
<rect x="217.332" y="156.506" width="3.89812" height="3.88235" fill="#FFFAE6"/>
<rect x="778.664" y="156.506" width="3.89812" height="3.88235" fill="#FFFAE6"/>
<rect x="1106.11" y="156.506" width="3.89812" height="3.88235" fill="#FFFAE6"/>
<rect x="1339.99" y="156.506" width="3.89812" height="3.88235" fill="#FFFAE6"/>
<rect x="591.555" y="156.506" width="3.89812" height="3.88235" fill="#FFFAE6"/>
<rect x="965.773" y="156.506" width="3.89812" height="3.88235" fill="#FFFAE6"/>
<rect x="1293.21" y="156.506" width="3.89812" height="3.88235" fill="#FFFAE6"/>
<rect x="1527.1" y="156.506" width="3.89812" height="3.88235" fill="#FFFAE6"/>
<rect x="264.109" y="296.271" width="3.89812" height="3.88235" fill="#FFFAE6"/>
<rect x="77" y="296.271" width="3.89812" height="3.88235" fill="#FFFAE6"/>
<rect x="638.328" y="296.271" width="3.89812" height="3.88235" fill="#FFFAE6"/>
<rect x="451.219" y="296.271" width="3.89812" height="3.88235" fill="#FFFAE6"/>
<rect x="825.438" y="296.271" width="3.89812" height="3.88235" fill="#FFFAE6"/>
<rect x="1152.88" y="296.271" width="3.89812" height="3.88235" fill="#FFFAE6"/>
<rect x="1386.77" y="296.271" width="3.89812" height="3.88235" fill="#FFFAE6"/>
<rect x="357.664" y="296.271" width="3.89812" height="3.88235" fill="#FFFAE6"/>
<rect x="170.555" y="296.271" width="3.89812" height="3.88235" fill="#FFFAE6"/>
<rect x="731.883" y="296.271" width="3.89812" height="3.88235" fill="#FFFAE6"/>
<rect x="1059.33" y="296.271" width="3.89812" height="3.88235" fill="#FFFAE6"/>
<rect x="544.773" y="296.271" width="3.89812" height="3.88235" fill="#FFFAE6"/>
<rect x="918.992" y="296.271" width="3.89812" height="3.88235" fill="#FFFAE6"/>
<rect x="1246.44" y="296.271" width="3.89812" height="3.88235" fill="#FFFAE6"/>
<rect x="1480.32" y="296.271" width="3.89812" height="3.88235" fill="#FFFAE6"/>
<rect x="310.887" y="296.271" width="3.89812" height="3.88235" fill="#FFFAE6"/>
<rect x="123.777" y="296.271" width="3.89812" height="3.88235" fill="#FFFAE6"/>
<rect x="685.109" y="296.271" width="3.89812" height="3.88235" fill="#FFFAE6"/>
<rect x="1012.55" y="296.271" width="3.89812" height="3.88235" fill="#FFFAE6"/>
<rect x="498" y="296.271" width="3.89812" height="3.88235" fill="#FFFAE6"/>
<rect x="872.219" y="296.271" width="3.89812" height="3.88235" fill="#FFFAE6"/>
<rect x="1199.66" y="296.271" width="3.89812" height="3.88235" fill="#FFFAE6"/>
<rect x="1433.55" y="296.271" width="3.89812" height="3.88235" fill="#FFFAE6"/>
<rect x="404.441" y="296.271" width="3.89812" height="3.88235" fill="#FFFAE6"/>
<rect x="217.332" y="296.271" width="3.89812" height="3.88235" fill="#FFFAE6"/>
<rect x="778.664" y="296.271" width="3.89812" height="3.88235" fill="#FFFAE6"/>
<rect x="1106.11" y="296.271" width="3.89812" height="3.88235" fill="#FFFAE6"/>
<rect x="1339.99" y="296.271" width="3.89812" height="3.88235" fill="#FFFAE6"/>
<rect x="591.555" y="296.271" width="3.89812" height="3.88235" fill="#FFFAE6"/>
<rect x="965.773" y="296.271" width="3.89812" height="3.88235" fill="#FFFAE6"/>
<rect x="1293.21" y="296.271" width="3.89812" height="3.88235" fill="#FFFAE6"/>
<rect x="1527.1" y="296.271" width="3.89812" height="3.88235" fill="#FFFAE6"/>
<rect x="264.109" y="389.447" width="3.89812" height="3.88235" fill="#FFFAE6"/>
<rect x="77" y="389.447" width="3.89812" height="3.88235" fill="#FFFAE6"/>
<rect x="638.328" y="389.447" width="3.89812" height="3.88235" fill="#FFFAE6"/>
<rect x="451.219" y="389.447" width="3.89812" height="3.88235" fill="#FFFAE6"/>
<rect x="825.438" y="389.447" width="3.89812" height="3.88235" fill="#FFFAE6"/>
<rect x="1152.88" y="389.447" width="3.89812" height="3.88235" fill="#FFFAE6"/>
<rect x="1386.77" y="389.447" width="3.89812" height="3.88235" fill="#FFFAE6"/>
<rect x="357.664" y="389.447" width="3.89812" height="3.88235" fill="#FFFAE6"/>
<rect x="170.555" y="389.447" width="3.89812" height="3.88235" fill="#FFFAE6"/>
<rect x="731.883" y="389.447" width="3.89812" height="3.88235" fill="#FFFAE6"/>
<rect x="1059.33" y="389.447" width="3.89812" height="3.88235" fill="#FFFAE6"/>
<rect x="544.773" y="389.447" width="3.89812" height="3.88235" fill="#FFFAE6"/>
<rect x="918.992" y="389.447" width="3.89812" height="3.88235" fill="#FFFAE6"/>
<rect x="1246.44" y="389.447" width="3.89812" height="3.88235" fill="#FFFAE6"/>
<rect x="1480.32" y="389.447" width="3.89812" height="3.88235" fill="#FFFAE6"/>
<rect x="310.887" y="389.447" width="3.89812" height="3.88235" fill="#FFFAE6"/>
<rect x="123.777" y="389.447" width="3.89812" height="3.88235" fill="#FFFAE6"/>
<rect x="685.109" y="389.447" width="3.89812" height="3.88235" fill="#FFFAE6"/>
<rect x="1012.55" y="389.447" width="3.89812" height="3.88235" fill="#FFFAE6"/>
<rect x="498" y="389.447" width="3.89812" height="3.88235" fill="#FFFAE6"/>
<rect x="872.219" y="389.447" width="3.89812" height="3.88235" fill="#FFFAE6"/>
<rect x="1199.66" y="389.447" width="3.89812" height="3.88235" fill="#FFFAE6"/>
<rect x="1433.55" y="389.447" width="3.89812" height="3.88235" fill="#FFFAE6"/>
<rect x="404.441" y="389.447" width="3.89812" height="3.88235" fill="#FFFAE6"/>
<rect x="217.332" y="389.447" width="3.89812" height="3.88235" fill="#FFFAE6"/>
<rect x="778.664" y="389.447" width="3.89812" height="3.88235" fill="#FFFAE6"/>
<rect x="1106.11" y="389.447" width="3.89812" height="3.88235" fill="#FFFAE6"/>
<rect x="1339.99" y="389.447" width="3.89812" height="3.88235" fill="#FFFAE6"/>
<rect x="591.555" y="389.447" width="3.89812" height="3.88235" fill="#FFFAE6"/>
<rect x="965.773" y="389.447" width="3.89812" height="3.88235" fill="#FFFAE6"/>
<rect x="1293.21" y="389.447" width="3.89812" height="3.88235" fill="#FFFAE6"/>
<rect x="1527.1" y="389.447" width="3.89812" height="3.88235" fill="#FFFAE6"/>
<rect x="264.109" y="63.3301" width="3.89812" height="3.88235" fill="#FFFAE6"/>
<rect x="77" y="63.3301" width="3.89812" height="3.88235" fill="#FFFAE6"/>
<rect x="638.328" y="63.3301" width="3.89812" height="3.88235" fill="#FFFAE6"/>
<rect x="451.219" y="63.3301" width="3.89812" height="3.88235" fill="#FFFAE6"/>
<rect x="825.438" y="63.3301" width="3.89812" height="3.88235" fill="#FFFAE6"/>
<rect x="1152.88" y="63.3301" width="3.89812" height="3.88235" fill="#FFFAE6"/>
<rect x="1386.77" y="63.3301" width="3.89812" height="3.88235" fill="#FFFAE6"/>
<rect x="357.664" y="63.3301" width="3.89812" height="3.88235" fill="#FFFAE6"/>
<rect x="170.555" y="63.3301" width="3.89812" height="3.88235" fill="#FFFAE6"/>
<rect x="731.883" y="63.3301" width="3.89812" height="3.88235" fill="#FFFAE6"/>
<rect x="1059.33" y="63.3301" width="3.89812" height="3.88235" fill="#FFFAE6"/>
<rect x="544.773" y="63.3301" width="3.89812" height="3.88235" fill="#FFFAE6"/>
<rect x="918.992" y="63.3301" width="3.89812" height="3.88235" fill="#FFFAE6"/>
<rect x="1246.44" y="63.3301" width="3.89812" height="3.88235" fill="#FFFAE6"/>
<rect x="1480.32" y="63.3301" width="3.89812" height="3.88235" fill="#FFFAE6"/>
<rect x="310.887" y="63.3301" width="3.89812" height="3.88235" fill="#FFFAE6"/>
<rect x="123.777" y="63.3301" width="3.89812" height="3.88235" fill="#FFFAE6"/>
<rect x="685.105" y="63.3301" width="3.89812" height="3.88235" fill="#FFFAE6"/>
<rect x="1012.55" y="63.3301" width="3.89812" height="3.88235" fill="#FFFAE6"/>
<rect x="498" y="63.3301" width="3.89812" height="3.88235" fill="#FFFAE6"/>
<rect x="872.219" y="63.3301" width="3.89812" height="3.88235" fill="#FFFAE6"/>
<rect x="1199.66" y="63.3301" width="3.89812" height="3.88235" fill="#FFFAE6"/>
<rect x="1433.55" y="63.3301" width="3.89812" height="3.88235" fill="#FFFAE6"/>
<rect x="404.441" y="63.3301" width="3.89812" height="3.88235" fill="#FFFAE6"/>
<rect x="217.332" y="63.3301" width="3.89812" height="3.88235" fill="#FFFAE6"/>
<rect x="778.664" y="63.3301" width="3.89812" height="3.88235" fill="#FFFAE6"/>
<rect x="1106.11" y="63.3301" width="3.89812" height="3.88235" fill="#FFFAE6"/>
<rect x="1339.99" y="63.3301" width="3.89812" height="3.88235" fill="#FFFAE6"/>
<rect x="591.555" y="63.3301" width="3.89812" height="3.88235" fill="#FFFAE6"/>
<rect x="965.773" y="63.3301" width="3.89812" height="3.88235" fill="#FFFAE6"/>
<rect x="1293.21" y="63.3301" width="3.89812" height="3.88235" fill="#FFFAE6"/>
<rect x="1527.1" y="63.3301" width="3.89812" height="3.88235" fill="#FFFAE6"/>
<rect x="264.109" y="203.094" width="3.89812" height="3.88235" fill="#FFFAE6"/>
<rect x="77" y="203.094" width="3.89812" height="3.88235" fill="#FFFAE6"/>
<rect x="638.328" y="203.094" width="3.89812" height="3.88235" fill="#FFFAE6"/>
<rect x="451.219" y="203.094" width="3.89812" height="3.88235" fill="#FFFAE6"/>
<rect x="825.438" y="203.094" width="3.89812" height="3.88235" fill="#FFFAE6"/>
<rect x="1152.88" y="203.094" width="3.89812" height="3.88235" fill="#FFFAE6"/>
<rect x="1386.77" y="203.094" width="3.89812" height="3.88235" fill="#FFFAE6"/>
<rect x="357.664" y="203.094" width="3.89812" height="3.88235" fill="#FFFAE6"/>
<rect x="170.555" y="203.094" width="3.89812" height="3.88235" fill="#FFFAE6"/>
<rect x="731.883" y="203.094" width="3.89812" height="3.88235" fill="#FFFAE6"/>
<rect x="1059.33" y="203.094" width="3.89812" height="3.88235" fill="#FFFAE6"/>
<rect x="544.773" y="203.094" width="3.89812" height="3.88235" fill="#FFFAE6"/>
<rect x="918.992" y="203.094" width="3.89812" height="3.88235" fill="#FFFAE6"/>
<rect x="1246.44" y="203.094" width="3.89812" height="3.88235" fill="#FFFAE6"/>
<rect x="1480.32" y="203.094" width="3.89812" height="3.88235" fill="#FFFAE6"/>
<rect x="310.887" y="203.094" width="3.89812" height="3.88235" fill="#FFFAE6"/>
<rect x="123.777" y="203.094" width="3.89812" height="3.88235" fill="#FFFAE6"/>
<rect x="685.109" y="203.094" width="3.89812" height="3.88235" fill="#FFFAE6"/>
<rect x="1012.55" y="203.094" width="3.89812" height="3.88235" fill="#FFFAE6"/>
<rect x="498" y="203.094" width="3.89812" height="3.88235" fill="#FFFAE6"/>
<rect x="872.219" y="203.094" width="3.89812" height="3.88235" fill="#FFFAE6"/>
<rect x="1199.66" y="203.094" width="3.89812" height="3.88235" fill="#FFFAE6"/>
<rect x="1433.55" y="203.094" width="3.89812" height="3.88235" fill="#FFFAE6"/>
<rect x="404.441" y="203.094" width="3.89812" height="3.88235" fill="#FFFAE6"/>
<rect x="217.332" y="203.094" width="3.89812" height="3.88235" fill="#FFFAE6"/>
<rect x="778.664" y="203.094" width="3.89812" height="3.88235" fill="#FFFAE6"/>
<rect x="1106.11" y="203.094" width="3.89812" height="3.88235" fill="#FFFAE6"/>
<rect x="1339.99" y="203.094" width="3.89812" height="3.88235" fill="#FFFAE6"/>
<rect x="591.555" y="203.094" width="3.89812" height="3.88235" fill="#FFFAE6"/>
<rect x="965.773" y="203.094" width="3.89812" height="3.88235" fill="#FFFAE6"/>
<rect x="1293.21" y="203.094" width="3.89812" height="3.88235" fill="#FFFAE6"/>
<rect x="1527.1" y="203.094" width="3.89812" height="3.88235" fill="#FFFAE6"/>
<rect x="264.109" y="109.918" width="3.89812" height="3.88235" fill="#FFFAE6"/>
<rect x="77" y="109.918" width="3.89812" height="3.88235" fill="#FFFAE6"/>
<rect x="638.328" y="109.918" width="3.89812" height="3.88235" fill="#FFFAE6"/>
<rect x="451.219" y="109.918" width="3.89812" height="3.88235" fill="#FFFAE6"/>
<rect x="825.438" y="109.918" width="3.89812" height="3.88235" fill="#FFFAE6"/>
<rect x="1152.88" y="109.918" width="3.89812" height="3.88235" fill="#FFFAE6"/>
<rect x="1386.77" y="109.918" width="3.89812" height="3.88235" fill="#FFFAE6"/>
<rect x="357.664" y="109.918" width="3.89812" height="3.88235" fill="#FFFAE6"/>
<rect x="170.555" y="109.918" width="3.89812" height="3.88235" fill="#FFFAE6"/>
<rect x="731.883" y="109.918" width="3.89812" height="3.88235" fill="#FFFAE6"/>
<rect x="1059.33" y="109.918" width="3.89812" height="3.88235" fill="#FFFAE6"/>
<rect x="544.773" y="109.918" width="3.89812" height="3.88235" fill="#FFFAE6"/>
<rect x="918.992" y="109.918" width="3.89812" height="3.88235" fill="#FFFAE6"/>
<rect x="1246.44" y="109.918" width="3.89812" height="3.88235" fill="#FFFAE6"/>
<rect x="1480.32" y="109.918" width="3.89812" height="3.88235" fill="#FFFAE6"/>
<rect x="310.887" y="109.918" width="3.89812" height="3.88235" fill="#FFFAE6"/>
<rect x="123.777" y="109.918" width="3.89812" height="3.88235" fill="#FFFAE6"/>
<rect x="685.109" y="109.918" width="3.89812" height="3.88235" fill="#FFFAE6"/>
<rect x="1012.55" y="109.918" width="3.89812" height="3.88235" fill="#FFFAE6"/>
<rect x="498" y="109.918" width="3.89812" height="3.88235" fill="#FFFAE6"/>
<rect x="872.219" y="109.918" width="3.89812" height="3.88235" fill="#FFFAE6"/>
<rect x="1199.66" y="109.918" width="3.89812" height="3.88235" fill="#FFFAE6"/>
<rect x="1433.55" y="109.918" width="3.89812" height="3.88235" fill="#FFFAE6"/>
<rect x="404.441" y="109.918" width="3.89812" height="3.88235" fill="#FFFAE6"/>
<rect x="217.332" y="109.918" width="3.89812" height="3.88235" fill="#FFFAE6"/>
<rect x="778.664" y="109.918" width="3.89812" height="3.88235" fill="#FFFAE6"/>
<rect x="1106.11" y="109.918" width="3.89812" height="3.88235" fill="#FFFAE6"/>
<rect x="1339.99" y="109.918" width="3.89812" height="3.88235" fill="#FFFAE6"/>
<rect x="591.555" y="109.918" width="3.89812" height="3.88235" fill="#FFFAE6"/>
<rect x="965.773" y="109.918" width="3.89812" height="3.88235" fill="#FFFAE6"/>
<rect x="1293.21" y="109.918" width="3.89812" height="3.88235" fill="#FFFAE6"/>
<rect x="1527.1" y="109.918" width="3.89812" height="3.88235" fill="#FFFAE6"/>
<rect x="264.109" y="249.682" width="3.89812" height="3.88235" fill="#FFFAE6"/>
<rect x="77" y="249.682" width="3.89812" height="3.88235" fill="#FFFAE6"/>
<rect x="638.328" y="249.682" width="3.89812" height="3.88235" fill="#FFFAE6"/>
<rect x="451.219" y="249.682" width="3.89812" height="3.88235" fill="#FFFAE6"/>
<rect x="825.438" y="249.682" width="3.89812" height="3.88235" fill="#FFFAE6"/>
<rect x="1152.88" y="249.682" width="3.89812" height="3.88235" fill="#FFFAE6"/>
<rect x="1386.77" y="249.682" width="3.89812" height="3.88235" fill="#FFFAE6"/>
<rect x="357.664" y="249.682" width="3.89812" height="3.88235" fill="#FFFAE6"/>
<rect x="170.555" y="249.682" width="3.89812" height="3.88235" fill="#FFFAE6"/>
<rect x="731.883" y="249.682" width="3.89812" height="3.88235" fill="#FFFAE6"/>
<rect x="1059.33" y="249.682" width="3.89812" height="3.88235" fill="#FFFAE6"/>
<rect x="544.773" y="249.682" width="3.89812" height="3.88235" fill="#FFFAE6"/>
<rect x="918.992" y="249.682" width="3.89812" height="3.88235" fill="#FFFAE6"/>
<rect x="1246.44" y="249.682" width="3.89812" height="3.88235" fill="#FFFAE6"/>
<rect x="1480.32" y="249.682" width="3.89812" height="3.88235" fill="#FFFAE6"/>
<rect x="310.887" y="249.682" width="3.89812" height="3.88235" fill="#FFFAE6"/>
<rect x="123.777" y="249.682" width="3.89812" height="3.88235" fill="#FFFAE6"/>
<rect x="685.109" y="249.682" width="3.89812" height="3.88235" fill="#FFFAE6"/>
<rect x="1012.55" y="249.682" width="3.89812" height="3.88235" fill="#FFFAE6"/>
<rect x="498" y="249.682" width="3.89812" height="3.88235" fill="#FFFAE6"/>
<rect x="872.219" y="249.682" width="3.89812" height="3.88235" fill="#FFFAE6"/>
<rect x="1199.66" y="249.682" width="3.89812" height="3.88235" fill="#FFFAE6"/>
<rect x="1433.55" y="249.682" width="3.89812" height="3.88235" fill="#FFFAE6"/>
<rect x="404.441" y="249.682" width="3.89812" height="3.88235" fill="#FFFAE6"/>
<rect x="217.332" y="249.682" width="3.89812" height="3.88235" fill="#FFFAE6"/>
<rect x="778.664" y="249.682" width="3.89812" height="3.88235" fill="#FFFAE6"/>
<rect x="1106.11" y="249.682" width="3.89812" height="3.88235" fill="#FFFAE6"/>
<rect x="1339.99" y="249.682" width="3.89812" height="3.88235" fill="#FFFAE6"/>
<rect x="591.555" y="249.682" width="3.89812" height="3.88235" fill="#FFFAE6"/>
<rect x="965.773" y="249.682" width="3.89812" height="3.88235" fill="#FFFAE6"/>
<rect x="1293.21" y="249.682" width="3.89812" height="3.88235" fill="#FFFAE6"/>
<rect x="1527.1" y="249.682" width="3.89812" height="3.88235" fill="#FFFAE6"/>
<rect x="264.109" y="342.859" width="3.89812" height="3.88235" fill="#FFFAE6"/>
<rect x="77" y="342.859" width="3.89812" height="3.88235" fill="#FFFAE6"/>
<rect x="638.328" y="342.859" width="3.89812" height="3.88235" fill="#FFFAE6"/>
<rect x="451.219" y="342.859" width="3.89812" height="3.88235" fill="#FFFAE6"/>
<rect x="825.438" y="342.859" width="3.89812" height="3.88235" fill="#FFFAE6"/>
<rect x="1152.88" y="342.859" width="3.89812" height="3.88235" fill="#FFFAE6"/>
<rect x="1386.77" y="342.859" width="3.89812" height="3.88235" fill="#FFFAE6"/>
<rect x="357.664" y="342.859" width="3.89812" height="3.88235" fill="#FFFAE6"/>
<rect x="170.555" y="342.859" width="3.89812" height="3.88235" fill="#FFFAE6"/>
<rect x="731.883" y="342.859" width="3.89812" height="3.88235" fill="#FFFAE6"/>
<rect x="1059.33" y="342.859" width="3.89812" height="3.88235" fill="#FFFAE6"/>
<rect x="544.773" y="342.859" width="3.89812" height="3.88235" fill="#FFFAE6"/>
<rect x="918.992" y="342.859" width="3.89812" height="3.88235" fill="#FFFAE6"/>
<rect x="1246.44" y="342.859" width="3.89812" height="3.88235" fill="#FFFAE6"/>
<rect x="1480.32" y="342.859" width="3.89812" height="3.88235" fill="#FFFAE6"/>
<rect x="310.887" y="342.859" width="3.89812" height="3.88235" fill="#FFFAE6"/>
<rect x="123.777" y="342.859" width="3.89812" height="3.88235" fill="#FFFAE6"/>
<rect x="685.109" y="342.859" width="3.89812" height="3.88235" fill="#FFFAE6"/>
<rect x="1012.55" y="342.859" width="3.89812" height="3.88235" fill="#FFFAE6"/>
<rect x="498" y="342.859" width="3.89812" height="3.88235" fill="#FFFAE6"/>
<rect x="872.219" y="342.859" width="3.89812" height="3.88235" fill="#FFFAE6"/>
<rect x="1199.66" y="342.859" width="3.89812" height="3.88235" fill="#FFFAE6"/>
<rect x="1433.55" y="342.859" width="3.89812" height="3.88235" fill="#FFFAE6"/>
<rect x="404.441" y="342.859" width="3.89812" height="3.88235" fill="#FFFAE6"/>
<rect x="217.332" y="342.859" width="3.89812" height="3.88235" fill="#FFFAE6"/>
<rect x="778.664" y="342.859" width="3.89812" height="3.88235" fill="#FFFAE6"/>
<rect x="1106.11" y="342.859" width="3.89812" height="3.88235" fill="#FFFAE6"/>
<rect x="1339.99" y="342.859" width="3.89812" height="3.88235" fill="#FFFAE6"/>
<rect x="591.555" y="342.859" width="3.89812" height="3.88235" fill="#FFFAE6"/>
<rect x="965.773" y="342.859" width="3.89812" height="3.88235" fill="#FFFAE6"/>
<rect x="1293.21" y="342.859" width="3.89812" height="3.88235" fill="#FFFAE6"/>
<rect x="1527.1" y="342.859" width="3.89812" height="3.88235" fill="#FFFAE6"/>
<rect x="264.109" y="156.506" width="3.89812" height="3.88235" fill="#FFFAE6"/>
<rect x="77" y="156.506" width="3.89812" height="3.88235" fill="#FFFAE6"/>
<rect x="638.328" y="156.506" width="3.89812" height="3.88235" fill="#FFFAE6"/>
<rect x="451.219" y="156.506" width="3.89812" height="3.88235" fill="#FFFAE6"/>
<rect x="825.438" y="156.506" width="3.89812" height="3.88235" fill="#FFFAE6"/>
<rect x="1152.88" y="156.506" width="3.89812" height="3.88235" fill="#FFFAE6"/>
<rect x="1386.77" y="156.506" width="3.89812" height="3.88235" fill="#FFFAE6"/>
<rect x="357.664" y="156.506" width="3.89812" height="3.88235" fill="#FFFAE6"/>
<rect x="170.555" y="156.506" width="3.89812" height="3.88235" fill="#FFFAE6"/>
<rect x="731.883" y="156.506" width="3.89812" height="3.88235" fill="#FFFAE6"/>
<rect x="1059.33" y="156.506" width="3.89812" height="3.88235" fill="#FFFAE6"/>
<rect x="544.773" y="156.506" width="3.89812" height="3.88235" fill="#FFFAE6"/>
<rect x="918.992" y="156.506" width="3.89812" height="3.88235" fill="#FFFAE6"/>
<rect x="1246.44" y="156.506" width="3.89812" height="3.88235" fill="#FFFAE6"/>
<rect x="1480.32" y="156.506" width="3.89812" height="3.88235" fill="#FFFAE6"/>
<rect x="310.887" y="156.506" width="3.89812" height="3.88235" fill="#FFFAE6"/>
<rect x="123.777" y="156.506" width="3.89812" height="3.88235" fill="#FFFAE6"/>
<rect x="685.109" y="156.506" width="3.89812" height="3.88235" fill="#FFFAE6"/>
<rect x="1012.55" y="156.506" width="3.89812" height="3.88235" fill="#FFFAE6"/>
<rect x="498" y="156.506" width="3.89812" height="3.88235" fill="#FFFAE6"/>
<rect x="872.219" y="156.506" width="3.89812" height="3.88235" fill="#FFFAE6"/>
<rect x="1199.66" y="156.506" width="3.89812" height="3.88235" fill="#FFFAE6"/>
<rect x="1433.55" y="156.506" width="3.89812" height="3.88235" fill="#FFFAE6"/>
<rect x="404.441" y="156.506" width="3.89812" height="3.88235" fill="#FFFAE6"/>
<rect x="217.332" y="156.506" width="3.89812" height="3.88235" fill="#FFFAE6"/>
<rect x="778.664" y="156.506" width="3.89812" height="3.88235" fill="#FFFAE6"/>
<rect x="1106.11" y="156.506" width="3.89812" height="3.88235" fill="#FFFAE6"/>
<rect x="1339.99" y="156.506" width="3.89812" height="3.88235" fill="#FFFAE6"/>
<rect x="591.555" y="156.506" width="3.89812" height="3.88235" fill="#FFFAE6"/>
<rect x="965.773" y="156.506" width="3.89812" height="3.88235" fill="#FFFAE6"/>
<rect x="1293.21" y="156.506" width="3.89812" height="3.88235" fill="#FFFAE6"/>
<rect x="1527.1" y="156.506" width="3.89812" height="3.88235" fill="#FFFAE6"/>
<rect x="264.109" y="296.271" width="3.89812" height="3.88235" fill="#FFFAE6"/>
<rect x="77" y="296.271" width="3.89812" height="3.88235" fill="#FFFAE6"/>
<rect x="638.328" y="296.271" width="3.89812" height="3.88235" fill="#FFFAE6"/>
<rect x="451.219" y="296.271" width="3.89812" height="3.88235" fill="#FFFAE6"/>
<rect x="825.438" y="296.271" width="3.89812" height="3.88235" fill="#FFFAE6"/>
<rect x="1152.88" y="296.271" width="3.89812" height="3.88235" fill="#FFFAE6"/>
<rect x="1386.77" y="296.271" width="3.89812" height="3.88235" fill="#FFFAE6"/>
<rect x="357.664" y="296.271" width="3.89812" height="3.88235" fill="#FFFAE6"/>
<rect x="170.555" y="296.271" width="3.89812" height="3.88235" fill="#FFFAE6"/>
<rect x="731.883" y="296.271" width="3.89812" height="3.88235" fill="#FFFAE6"/>
<rect x="1059.33" y="296.271" width="3.89812" height="3.88235" fill="#FFFAE6"/>
<rect x="544.773" y="296.271" width="3.89812" height="3.88235" fill="#FFFAE6"/>
<rect x="918.992" y="296.271" width="3.89812" height="3.88235" fill="#FFFAE6"/>
<rect x="1246.44" y="296.271" width="3.89812" height="3.88235" fill="#FFFAE6"/>
<rect x="1480.32" y="296.271" width="3.89812" height="3.88235" fill="#FFFAE6"/>
<rect x="310.887" y="296.271" width="3.89812" height="3.88235" fill="#FFFAE6"/>
<rect x="123.777" y="296.271" width="3.89812" height="3.88235" fill="#FFFAE6"/>
<rect x="685.109" y="296.271" width="3.89812" height="3.88235" fill="#FFFAE6"/>
<rect x="1012.55" y="296.271" width="3.89812" height="3.88235" fill="#FFFAE6"/>
<rect x="498" y="296.271" width="3.89812" height="3.88235" fill="#FFFAE6"/>
<rect x="872.219" y="296.271" width="3.89812" height="3.88235" fill="#FFFAE6"/>
<rect x="1199.66" y="296.271" width="3.89812" height="3.88235" fill="#FFFAE6"/>
<rect x="1433.55" y="296.271" width="3.89812" height="3.88235" fill="#FFFAE6"/>
<rect x="404.441" y="296.271" width="3.89812" height="3.88235" fill="#FFFAE6"/>
<rect x="217.332" y="296.271" width="3.89812" height="3.88235" fill="#FFFAE6"/>
<rect x="778.664" y="296.271" width="3.89812" height="3.88235" fill="#FFFAE6"/>
<rect x="1106.11" y="296.271" width="3.89812" height="3.88235" fill="#FFFAE6"/>
<rect x="1339.99" y="296.271" width="3.89812" height="3.88235" fill="#FFFAE6"/>
<rect x="591.555" y="296.271" width="3.89812" height="3.88235" fill="#FFFAE6"/>
<rect x="965.773" y="296.271" width="3.89812" height="3.88235" fill="#FFFAE6"/>
<rect x="1293.21" y="296.271" width="3.89812" height="3.88235" fill="#FFFAE6"/>
<rect x="1527.1" y="296.271" width="3.89812" height="3.88235" fill="#FFFAE6"/>
<rect x="264.109" y="389.447" width="3.89812" height="3.88235" fill="#FFFAE6"/>
<rect x="77" y="389.447" width="3.89812" height="3.88235" fill="#FFFAE6"/>
<rect x="638.328" y="389.447" width="3.89812" height="3.88235" fill="#FFFAE6"/>
<rect x="451.219" y="389.447" width="3.89812" height="3.88235" fill="#FFFAE6"/>
<rect x="825.438" y="389.447" width="3.89812" height="3.88235" fill="#FFFAE6"/>
<rect x="1152.88" y="389.447" width="3.89812" height="3.88235" fill="#FFFAE6"/>
<rect x="1386.77" y="389.447" width="3.89812" height="3.88235" fill="#FFFAE6"/>
<rect x="357.664" y="389.447" width="3.89812" height="3.88235" fill="#FFFAE6"/>
<rect x="170.555" y="389.447" width="3.89812" height="3.88235" fill="#FFFAE6"/>
<rect x="731.883" y="389.447" width="3.89812" height="3.88235" fill="#FFFAE6"/>
<rect x="1059.33" y="389.447" width="3.89812" height="3.88235" fill="#FFFAE6"/>
<rect x="544.773" y="389.447" width="3.89812" height="3.88235" fill="#FFFAE6"/>
<rect x="918.992" y="389.447" width="3.89812" height="3.88235" fill="#FFFAE6"/>
<rect x="1246.44" y="389.447" width="3.89812" height="3.88235" fill="#FFFAE6"/>
<rect x="1480.32" y="389.447" width="3.89812" height="3.88235" fill="#FFFAE6"/>
<rect x="310.887" y="389.447" width="3.89812" height="3.88235" fill="#FFFAE6"/>
<rect x="123.777" y="389.447" width="3.89812" height="3.88235" fill="#FFFAE6"/>
<rect x="685.109" y="389.447" width="3.89812" height="3.88235" fill="#FFFAE6"/>
<rect x="1012.55" y="389.447" width="3.89812" height="3.88235" fill="#FFFAE6"/>
<rect x="498" y="389.447" width="3.89812" height="3.88235" fill="#FFFAE6"/>
<rect x="872.219" y="389.447" width="3.89812" height="3.88235" fill="#FFFAE6"/>
<rect x="1199.66" y="389.447" width="3.89812" height="3.88235" fill="#FFFAE6"/>
<rect x="1433.55" y="389.447" width="3.89812" height="3.88235" fill="#FFFAE6"/>
<rect x="404.441" y="389.447" width="3.89812" height="3.88235" fill="#FFFAE6"/>
<rect x="217.332" y="389.447" width="3.89812" height="3.88235" fill="#FFFAE6"/>
<rect x="778.664" y="389.447" width="3.89812" height="3.88235" fill="#FFFAE6"/>
<rect x="1106.11" y="389.447" width="3.89812" height="3.88235" fill="#FFFAE6"/>
<rect x="1339.99" y="389.447" width="3.89812" height="3.88235" fill="#FFFAE6"/>
<rect x="591.555" y="389.447" width="3.89812" height="3.88235" fill="#FFFAE6"/>
<rect x="965.773" y="389.447" width="3.89812" height="3.88235" fill="#FFFAE6"/>
<rect x="1293.21" y="389.447" width="3.89812" height="3.88235" fill="#FFFAE6"/>
<rect x="1527.1" y="389.447" width="3.89812" height="3.88235" fill="#FFFAE6"/>
</g>
<g opacity="0.6" filter="url(#filter1_f_3181_1039)">
<path d="M4 413.303V4H1565.18L1604 32.1931V442H43.8236L4 413.303Z" stroke="#FFFAE6" stroke-width="3"/>
<path d="M4 4V52L52 4H4Z" fill="#FFFAE6" stroke="#FFFAE6" stroke-width="3"/>
<path d="M1604 442V394L1556 442H1604Z" fill="#FFFAE6" stroke="#FFFAE6" stroke-width="3"/>
</g>
<defs>
<filter id="filter0_f_3181_1039" x="71" y="57.3301" width="1466" height="342" filterUnits="userSpaceOnUse" color-interpolation-filters="sRGB">
<feFlood flood-opacity="0" result="BackgroundImageFix"/>
<feBlend mode="normal" in="SourceGraphic" in2="BackgroundImageFix" result="shape"/>
<feGaussianBlur stdDeviation="3" result="effect1_foregroundBlur_3181_1039"/>
</filter>
<filter id="filter1_f_3181_1039" x="0.5" y="0.5" width="1607" height="445" filterUnits="userSpaceOnUse" color-interpolation-filters="sRGB">
<feFlood flood-opacity="0" result="BackgroundImageFix"/>
<feBlend mode="normal" in="SourceGraphic" in2="BackgroundImageFix" result="shape"/>
<feGaussianBlur stdDeviation="1" result="effect1_foregroundBlur_3181_1039"/>
</filter>
</defs>
</svg>
