<svg width="1368" height="720" viewBox="0 0 1368 720" fill="none" xmlns="http://www.w3.org/2000/svg">
<g filter="url(#filter0_bi_3868_1044)">
<path d="M24.3594 651.568V24.4648H1311.64L1343.64 67.6601V695.534H57.1959L24.3594 651.568Z" fill="#FFF8DC" fill-opacity="0.05"/>
<path d="M58.1985 693.534L26.3594 650.903V26.4648H1310.63L1341.64 68.3203V693.534H58.1985Z" stroke="url(#paint0_radial_3868_1044)" stroke-width="4"/>
</g>
<g filter="url(#filter1_f_3868_1044)">
<rect x="4.96094" y="11.6758" width="19.4012" height="5.11616" fill="#FFF8DC"/>
<rect x="12.2344" y="24.4648" width="20.4646" height="4.8503" transform="rotate(-90 12.2344 24.4648)" fill="#FFF8DC"/>
</g>
<rect x="4.96094" y="11.6758" width="19.4012" height="5.11616" fill="#FFF8DC"/>
<rect x="12.2344" y="24.4648" width="20.4646" height="4.8503" transform="rotate(-90 12.2344 24.4648)" fill="#FFF8DC"/>
<rect x="4.96094" y="703.199" width="19.4012" height="5.11616" fill="#FFFAE6"/>
<rect x="12.2344" y="715.996" width="20.4646" height="4.8503" transform="rotate(-90 12.2344 715.996)" fill="#FFFAE6"/>
<g filter="url(#filter2_f_3868_1044)">
<rect x="4.96094" y="703.199" width="19.4012" height="5.11616" fill="#FFF8DC"/>
<rect x="12.2344" y="715.996" width="20.4646" height="4.8503" transform="rotate(-90 12.2344 715.996)" fill="#FFF8DC"/>
</g>
<g opacity="0.5" filter="url(#filter3_f_3868_1044)">
<rect x="1343.64" y="11.6758" width="19.4012" height="5.11616" fill="#FFF8DC"/>
<rect x="1350.91" y="24.4648" width="20.4646" height="4.8503" transform="rotate(-90 1350.91 24.4648)" fill="#FFF8DC"/>
</g>
<rect x="1343.64" y="11.6758" width="19.4012" height="5.11616" fill="#FFF8DC"/>
<rect x="1350.91" y="24.4648" width="20.4646" height="4.8503" transform="rotate(-90 1350.91 24.4648)" fill="#FFF8DC"/>
<g filter="url(#filter4_f_3868_1044)">
<rect x="1343.64" y="703.199" width="19.4012" height="5.11616" fill="#FFF8DC"/>
<rect x="1350.91" y="715.996" width="20.4646" height="4.8503" transform="rotate(-90 1350.91 715.996)" fill="#FFF8DC"/>
</g>
<rect x="1343.64" y="703.199" width="19.4012" height="5.11616" fill="#FFF8DC"/>
<rect x="1350.91" y="715.996" width="20.4646" height="4.8503" transform="rotate(-90 1350.91 715.996)" fill="#FFF8DC"/>
<defs>
<filter id="filter0_bi_3868_1044" x="4.35938" y="4.46484" width="1359.28" height="711.07" filterUnits="userSpaceOnUse" color-interpolation-filters="sRGB">
<feFlood flood-opacity="0" result="BackgroundImageFix"/>
<feGaussianBlur in="BackgroundImageFix" stdDeviation="10"/>
<feComposite in2="SourceAlpha" operator="in" result="effect1_backgroundBlur_3868_1044"/>
<feBlend mode="normal" in="SourceGraphic" in2="effect1_backgroundBlur_3868_1044" result="shape"/>
<feColorMatrix in="SourceAlpha" type="matrix" values="0 0 0 0 0 0 0 0 0 0 0 0 0 0 0 0 0 0 127 0" result="hardAlpha"/>
<feOffset dy="4"/>
<feGaussianBlur stdDeviation="50"/>
<feComposite in2="hardAlpha" operator="arithmetic" k2="-1" k3="1"/>
<feColorMatrix type="matrix" values="0 0 0 0 1 0 0 0 0 0.972549 0 0 0 0 0.862745 0 0 0 0.32 0"/>
<feBlend mode="normal" in2="shape" result="effect2_innerShadow_3868_1044"/>
</filter>
<filter id="filter1_f_3868_1044" x="0.960938" y="0" width="27.4023" height="28.4648" filterUnits="userSpaceOnUse" color-interpolation-filters="sRGB">
<feFlood flood-opacity="0" result="BackgroundImageFix"/>
<feBlend mode="normal" in="SourceGraphic" in2="BackgroundImageFix" result="shape"/>
<feGaussianBlur stdDeviation="2" result="effect1_foregroundBlur_3868_1044"/>
</filter>
<filter id="filter2_f_3868_1044" x="0.960938" y="691.531" width="27.4023" height="28.4648" filterUnits="userSpaceOnUse" color-interpolation-filters="sRGB">
<feFlood flood-opacity="0" result="BackgroundImageFix"/>
<feBlend mode="normal" in="SourceGraphic" in2="BackgroundImageFix" result="shape"/>
<feGaussianBlur stdDeviation="2" result="effect1_foregroundBlur_3868_1044"/>
</filter>
<filter id="filter3_f_3868_1044" x="1339.64" y="0" width="27.4023" height="28.4648" filterUnits="userSpaceOnUse" color-interpolation-filters="sRGB">
<feFlood flood-opacity="0" result="BackgroundImageFix"/>
<feBlend mode="normal" in="SourceGraphic" in2="BackgroundImageFix" result="shape"/>
<feGaussianBlur stdDeviation="2" result="effect1_foregroundBlur_3868_1044"/>
</filter>
<filter id="filter4_f_3868_1044" x="1339.64" y="691.531" width="27.4023" height="28.4648" filterUnits="userSpaceOnUse" color-interpolation-filters="sRGB">
<feFlood flood-opacity="0" result="BackgroundImageFix"/>
<feBlend mode="normal" in="SourceGraphic" in2="BackgroundImageFix" result="shape"/>
<feGaussianBlur stdDeviation="2" result="effect1_foregroundBlur_3868_1044"/>
</filter>
<radialGradient id="paint0_radial_3868_1044" cx="0" cy="0" r="1" gradientUnits="userSpaceOnUse" gradientTransform="translate(99.9432 417.556) rotate(-9.38234) scale(1260.56 2749.89)">
<stop stop-color="#999584" stop-opacity="0.8"/>
<stop offset="0.276942" stop-color="#CCC6B0" stop-opacity="0.8"/>
<stop offset="0.50578" stop-color="#FFF8DC" stop-opacity="0.8"/>
<stop offset="0.75" stop-color="#CCC6B0" stop-opacity="0.8"/>
<stop offset="1" stop-color="#999584" stop-opacity="0.8"/>
</radialGradient>
</defs>
</svg>
