<svg width="1368" height="446" viewBox="0 0 1368 446" fill="none" xmlns="http://www.w3.org/2000/svg">
<g opacity="0.6" filter="url(#filter0_f_3824_1044)">
<rect x="193.867" y="63.3281" width="3.53887" height="3.88235" fill="#FFFAE6"/>
<rect x="24" y="63.3281" width="3.53887" height="3.88235" fill="#FFFAE6"/>
<rect x="533.594" y="63.3281" width="3.53887" height="3.88235" fill="#FFFAE6"/>
<rect x="363.734" y="63.3281" width="3.53887" height="3.88235" fill="#FFFAE6"/>
<rect x="703.461" y="63.3281" width="3.53887" height="3.88235" fill="#FFFAE6"/>
<rect x="1000.73" y="63.3281" width="3.53887" height="3.88235" fill="#FFFAE6"/>
<rect x="1213.06" y="63.3281" width="3.53887" height="3.88235" fill="#FFFAE6"/>
<rect x="278.797" y="63.3281" width="3.53887" height="3.88235" fill="#FFFAE6"/>
<rect x="108.93" y="63.3281" width="3.53887" height="3.88235" fill="#FFFAE6"/>
<rect x="618.531" y="63.3281" width="3.53887" height="3.88235" fill="#FFFAE6"/>
<rect x="915.797" y="63.3281" width="3.53887" height="3.88235" fill="#FFFAE6"/>
<rect x="448.664" y="63.3281" width="3.53887" height="3.88235" fill="#FFFAE6"/>
<rect x="788.398" y="63.3281" width="3.53887" height="3.88235" fill="#FFFAE6"/>
<rect x="1085.66" y="63.3281" width="3.53887" height="3.88235" fill="#FFFAE6"/>
<rect x="1298" y="63.3281" width="3.53887" height="3.88235" fill="#FFFAE6"/>
<rect x="236.332" y="63.3281" width="3.53887" height="3.88235" fill="#FFFAE6"/>
<rect x="66.4648" y="63.3281" width="3.53887" height="3.88235" fill="#FFFAE6"/>
<rect x="576.066" y="63.3281" width="3.53887" height="3.88235" fill="#FFFAE6"/>
<rect x="873.328" y="63.3281" width="3.53887" height="3.88235" fill="#FFFAE6"/>
<rect x="406.203" y="63.3281" width="3.53887" height="3.88235" fill="#FFFAE6"/>
<rect x="745.93" y="63.3281" width="3.53887" height="3.88235" fill="#FFFAE6"/>
<rect x="1043.2" y="63.3281" width="3.53887" height="3.88235" fill="#FFFAE6"/>
<rect x="1255.53" y="63.3281" width="3.53887" height="3.88235" fill="#FFFAE6"/>
<rect x="321.262" y="63.3281" width="3.53887" height="3.88235" fill="#FFFAE6"/>
<rect x="151.402" y="63.3281" width="3.53887" height="3.88235" fill="#FFFAE6"/>
<rect x="661" y="63.3281" width="3.53887" height="3.88235" fill="#FFFAE6"/>
<rect x="958.262" y="63.3281" width="3.53887" height="3.88235" fill="#FFFAE6"/>
<rect x="1170.59" y="63.3281" width="3.53887" height="3.88235" fill="#FFFAE6"/>
<rect x="491.133" y="63.3281" width="3.53887" height="3.88235" fill="#FFFAE6"/>
<rect x="830.867" y="63.3281" width="3.53887" height="3.88235" fill="#FFFAE6"/>
<rect x="1128.13" y="63.3281" width="3.53887" height="3.88235" fill="#FFFAE6"/>
<rect x="1340.46" y="63.3281" width="3.53887" height="3.88235" fill="#FFFAE6"/>
<rect x="193.867" y="203.094" width="3.53887" height="3.88235" fill="#FFFAE6"/>
<rect x="24" y="203.094" width="3.53887" height="3.88235" fill="#FFFAE6"/>
<rect x="533.594" y="203.094" width="3.53887" height="3.88235" fill="#FFFAE6"/>
<rect x="363.734" y="203.094" width="3.53887" height="3.88235" fill="#FFFAE6"/>
<rect x="703.461" y="203.094" width="3.53887" height="3.88235" fill="#FFFAE6"/>
<rect x="1000.73" y="203.094" width="3.53887" height="3.88235" fill="#FFFAE6"/>
<rect x="1213.06" y="203.094" width="3.53887" height="3.88235" fill="#FFFAE6"/>
<rect x="278.797" y="203.094" width="3.53887" height="3.88235" fill="#FFFAE6"/>
<rect x="108.93" y="203.094" width="3.53887" height="3.88235" fill="#FFFAE6"/>
<rect x="618.531" y="203.094" width="3.53887" height="3.88235" fill="#FFFAE6"/>
<rect x="915.797" y="203.094" width="3.53887" height="3.88235" fill="#FFFAE6"/>
<rect x="448.664" y="203.094" width="3.53887" height="3.88235" fill="#FFFAE6"/>
<rect x="788.398" y="203.094" width="3.53887" height="3.88235" fill="#FFFAE6"/>
<rect x="1085.66" y="203.094" width="3.53887" height="3.88235" fill="#FFFAE6"/>
<rect x="1298" y="203.094" width="3.53887" height="3.88235" fill="#FFFAE6"/>
<rect x="236.332" y="203.094" width="3.53887" height="3.88235" fill="#FFFAE6"/>
<rect x="66.4648" y="203.094" width="3.53887" height="3.88235" fill="#FFFAE6"/>
<rect x="576.066" y="203.094" width="3.53887" height="3.88235" fill="#FFFAE6"/>
<rect x="873.328" y="203.094" width="3.53887" height="3.88235" fill="#FFFAE6"/>
<rect x="406.203" y="203.094" width="3.53887" height="3.88235" fill="#FFFAE6"/>
<rect x="745.93" y="203.094" width="3.53887" height="3.88235" fill="#FFFAE6"/>
<rect x="1043.2" y="203.094" width="3.53887" height="3.88235" fill="#FFFAE6"/>
<rect x="1255.53" y="203.094" width="3.53887" height="3.88235" fill="#FFFAE6"/>
<rect x="321.262" y="203.094" width="3.53887" height="3.88235" fill="#FFFAE6"/>
<rect x="151.402" y="203.094" width="3.53887" height="3.88235" fill="#FFFAE6"/>
<rect x="661" y="203.094" width="3.53887" height="3.88235" fill="#FFFAE6"/>
<rect x="958.262" y="203.094" width="3.53887" height="3.88235" fill="#FFFAE6"/>
<rect x="1170.59" y="203.094" width="3.53887" height="3.88235" fill="#FFFAE6"/>
<rect x="491.133" y="203.094" width="3.53887" height="3.88235" fill="#FFFAE6"/>
<rect x="830.867" y="203.094" width="3.53887" height="3.88235" fill="#FFFAE6"/>
<rect x="1128.13" y="203.094" width="3.53887" height="3.88235" fill="#FFFAE6"/>
<rect x="1340.46" y="203.094" width="3.53887" height="3.88235" fill="#FFFAE6"/>
<rect x="193.867" y="109.918" width="3.53887" height="3.88235" fill="#FFFAE6"/>
<rect x="24" y="109.918" width="3.53887" height="3.88235" fill="#FFFAE6"/>
<rect x="533.594" y="109.918" width="3.53887" height="3.88235" fill="#FFFAE6"/>
<rect x="363.734" y="109.918" width="3.53887" height="3.88235" fill="#FFFAE6"/>
<rect x="703.461" y="109.918" width="3.53887" height="3.88235" fill="#FFFAE6"/>
<rect x="1000.73" y="109.918" width="3.53887" height="3.88235" fill="#FFFAE6"/>
<rect x="1213.06" y="109.918" width="3.53887" height="3.88235" fill="#FFFAE6"/>
<rect x="278.797" y="109.918" width="3.53887" height="3.88235" fill="#FFFAE6"/>
<rect x="108.93" y="109.918" width="3.53887" height="3.88235" fill="#FFFAE6"/>
<rect x="618.531" y="109.918" width="3.53887" height="3.88235" fill="#FFFAE6"/>
<rect x="915.797" y="109.918" width="3.53887" height="3.88235" fill="#FFFAE6"/>
<rect x="448.664" y="109.918" width="3.53887" height="3.88235" fill="#FFFAE6"/>
<rect x="788.398" y="109.918" width="3.53887" height="3.88235" fill="#FFFAE6"/>
<rect x="1085.66" y="109.918" width="3.53887" height="3.88235" fill="#FFFAE6"/>
<rect x="1298" y="109.918" width="3.53887" height="3.88235" fill="#FFFAE6"/>
<rect x="236.332" y="109.918" width="3.53887" height="3.88235" fill="#FFFAE6"/>
<rect x="66.4648" y="109.918" width="3.53887" height="3.88235" fill="#FFFAE6"/>
<rect x="576.066" y="109.918" width="3.53887" height="3.88235" fill="#FFFAE6"/>
<rect x="873.328" y="109.918" width="3.53887" height="3.88235" fill="#FFFAE6"/>
<rect x="406.203" y="109.918" width="3.53887" height="3.88235" fill="#FFFAE6"/>
<rect x="745.93" y="109.918" width="3.53887" height="3.88235" fill="#FFFAE6"/>
<rect x="1043.2" y="109.918" width="3.53887" height="3.88235" fill="#FFFAE6"/>
<rect x="1255.53" y="109.918" width="3.53887" height="3.88235" fill="#FFFAE6"/>
<rect x="321.262" y="109.918" width="3.53887" height="3.88235" fill="#FFFAE6"/>
<rect x="151.402" y="109.918" width="3.53887" height="3.88235" fill="#FFFAE6"/>
<rect x="661" y="109.918" width="3.53887" height="3.88235" fill="#FFFAE6"/>
<rect x="958.262" y="109.918" width="3.53887" height="3.88235" fill="#FFFAE6"/>
<rect x="1170.59" y="109.918" width="3.53887" height="3.88235" fill="#FFFAE6"/>
<rect x="491.133" y="109.918" width="3.53887" height="3.88235" fill="#FFFAE6"/>
<rect x="830.867" y="109.918" width="3.53887" height="3.88235" fill="#FFFAE6"/>
<rect x="1128.13" y="109.918" width="3.53887" height="3.88235" fill="#FFFAE6"/>
<rect x="1340.46" y="109.918" width="3.53887" height="3.88235" fill="#FFFAE6"/>
<rect x="193.867" y="249.68" width="3.53887" height="3.88235" fill="#FFFAE6"/>
<rect x="24" y="249.68" width="3.53887" height="3.88235" fill="#FFFAE6"/>
<rect x="533.594" y="249.68" width="3.53887" height="3.88235" fill="#FFFAE6"/>
<rect x="363.734" y="249.68" width="3.53887" height="3.88235" fill="#FFFAE6"/>
<rect x="703.461" y="249.68" width="3.53887" height="3.88235" fill="#FFFAE6"/>
<rect x="1000.73" y="249.68" width="3.53887" height="3.88235" fill="#FFFAE6"/>
<rect x="1213.06" y="249.68" width="3.53887" height="3.88235" fill="#FFFAE6"/>
<rect x="278.797" y="249.68" width="3.53887" height="3.88235" fill="#FFFAE6"/>
<rect x="108.93" y="249.68" width="3.53887" height="3.88235" fill="#FFFAE6"/>
<rect x="618.531" y="249.68" width="3.53887" height="3.88235" fill="#FFFAE6"/>
<rect x="915.797" y="249.68" width="3.53887" height="3.88235" fill="#FFFAE6"/>
<rect x="448.664" y="249.68" width="3.53887" height="3.88235" fill="#FFFAE6"/>
<rect x="788.398" y="249.68" width="3.53887" height="3.88235" fill="#FFFAE6"/>
<rect x="1085.66" y="249.68" width="3.53887" height="3.88235" fill="#FFFAE6"/>
<rect x="1298" y="249.68" width="3.53887" height="3.88235" fill="#FFFAE6"/>
<rect x="236.332" y="249.68" width="3.53887" height="3.88235" fill="#FFFAE6"/>
<rect x="66.4648" y="249.68" width="3.53887" height="3.88235" fill="#FFFAE6"/>
<rect x="576.066" y="249.68" width="3.53887" height="3.88235" fill="#FFFAE6"/>
<rect x="873.328" y="249.68" width="3.53887" height="3.88235" fill="#FFFAE6"/>
<rect x="406.203" y="249.68" width="3.53887" height="3.88235" fill="#FFFAE6"/>
<rect x="745.93" y="249.68" width="3.53887" height="3.88235" fill="#FFFAE6"/>
<rect x="1043.2" y="249.68" width="3.53887" height="3.88235" fill="#FFFAE6"/>
<rect x="1255.53" y="249.68" width="3.53887" height="3.88235" fill="#FFFAE6"/>
<rect x="321.262" y="249.68" width="3.53887" height="3.88235" fill="#FFFAE6"/>
<rect x="151.402" y="249.68" width="3.53887" height="3.88235" fill="#FFFAE6"/>
<rect x="661" y="249.68" width="3.53887" height="3.88235" fill="#FFFAE6"/>
<rect x="958.262" y="249.68" width="3.53887" height="3.88235" fill="#FFFAE6"/>
<rect x="1170.59" y="249.68" width="3.53887" height="3.88235" fill="#FFFAE6"/>
<rect x="491.133" y="249.68" width="3.53887" height="3.88235" fill="#FFFAE6"/>
<rect x="830.867" y="249.68" width="3.53887" height="3.88235" fill="#FFFAE6"/>
<rect x="1128.13" y="249.68" width="3.53887" height="3.88235" fill="#FFFAE6"/>
<rect x="1340.46" y="249.68" width="3.53887" height="3.88235" fill="#FFFAE6"/>
<rect x="193.867" y="342.855" width="3.53887" height="3.88235" fill="#FFFAE6"/>
<rect x="24" y="342.855" width="3.53887" height="3.88235" fill="#FFFAE6"/>
<rect x="533.594" y="342.855" width="3.53887" height="3.88235" fill="#FFFAE6"/>
<rect x="363.734" y="342.855" width="3.53887" height="3.88235" fill="#FFFAE6"/>
<rect x="703.461" y="342.855" width="3.53887" height="3.88235" fill="#FFFAE6"/>
<rect x="1000.73" y="342.855" width="3.53887" height="3.88235" fill="#FFFAE6"/>
<rect x="1213.06" y="342.855" width="3.53887" height="3.88235" fill="#FFFAE6"/>
<rect x="278.797" y="342.855" width="3.53887" height="3.88235" fill="#FFFAE6"/>
<rect x="108.93" y="342.855" width="3.53887" height="3.88235" fill="#FFFAE6"/>
<rect x="618.531" y="342.855" width="3.53887" height="3.88235" fill="#FFFAE6"/>
<rect x="915.797" y="342.855" width="3.53887" height="3.88235" fill="#FFFAE6"/>
<rect x="448.664" y="342.855" width="3.53887" height="3.88235" fill="#FFFAE6"/>
<rect x="788.398" y="342.855" width="3.53887" height="3.88235" fill="#FFFAE6"/>
<rect x="1085.66" y="342.855" width="3.53887" height="3.88235" fill="#FFFAE6"/>
<rect x="1298" y="342.855" width="3.53887" height="3.88235" fill="#FFFAE6"/>
<rect x="236.332" y="342.855" width="3.53887" height="3.88235" fill="#FFFAE6"/>
<rect x="66.4648" y="342.855" width="3.53887" height="3.88235" fill="#FFFAE6"/>
<rect x="576.066" y="342.855" width="3.53887" height="3.88235" fill="#FFFAE6"/>
<rect x="873.328" y="342.855" width="3.53887" height="3.88235" fill="#FFFAE6"/>
<rect x="406.203" y="342.855" width="3.53887" height="3.88235" fill="#FFFAE6"/>
<rect x="745.93" y="342.855" width="3.53887" height="3.88235" fill="#FFFAE6"/>
<rect x="1043.2" y="342.855" width="3.53887" height="3.88235" fill="#FFFAE6"/>
<rect x="1255.53" y="342.855" width="3.53887" height="3.88235" fill="#FFFAE6"/>
<rect x="321.262" y="342.855" width="3.53887" height="3.88235" fill="#FFFAE6"/>
<rect x="151.402" y="342.855" width="3.53887" height="3.88235" fill="#FFFAE6"/>
<rect x="661" y="342.855" width="3.53887" height="3.88235" fill="#FFFAE6"/>
<rect x="958.262" y="342.855" width="3.53887" height="3.88235" fill="#FFFAE6"/>
<rect x="1170.59" y="342.855" width="3.53887" height="3.88235" fill="#FFFAE6"/>
<rect x="491.133" y="342.855" width="3.53887" height="3.88235" fill="#FFFAE6"/>
<rect x="830.867" y="342.855" width="3.53887" height="3.88235" fill="#FFFAE6"/>
<rect x="1128.13" y="342.855" width="3.53887" height="3.88235" fill="#FFFAE6"/>
<rect x="1340.46" y="342.855" width="3.53887" height="3.88235" fill="#FFFAE6"/>
<rect x="193.867" y="156.504" width="3.53887" height="3.88235" fill="#FFFAE6"/>
<rect x="24" y="156.504" width="3.53887" height="3.88235" fill="#FFFAE6"/>
<rect x="533.594" y="156.504" width="3.53887" height="3.88235" fill="#FFFAE6"/>
<rect x="363.734" y="156.504" width="3.53887" height="3.88235" fill="#FFFAE6"/>
<rect x="703.461" y="156.504" width="3.53887" height="3.88235" fill="#FFFAE6"/>
<rect x="1000.73" y="156.504" width="3.53887" height="3.88235" fill="#FFFAE6"/>
<rect x="1213.06" y="156.504" width="3.53887" height="3.88235" fill="#FFFAE6"/>
<rect x="278.797" y="156.504" width="3.53887" height="3.88235" fill="#FFFAE6"/>
<rect x="108.93" y="156.504" width="3.53887" height="3.88235" fill="#FFFAE6"/>
<rect x="618.531" y="156.504" width="3.53887" height="3.88235" fill="#FFFAE6"/>
<rect x="915.797" y="156.504" width="3.53887" height="3.88235" fill="#FFFAE6"/>
<rect x="448.664" y="156.504" width="3.53887" height="3.88235" fill="#FFFAE6"/>
<rect x="788.398" y="156.504" width="3.53887" height="3.88235" fill="#FFFAE6"/>
<rect x="1085.66" y="156.504" width="3.53887" height="3.88235" fill="#FFFAE6"/>
<rect x="1298" y="156.504" width="3.53887" height="3.88235" fill="#FFFAE6"/>
<rect x="236.332" y="156.504" width="3.53887" height="3.88235" fill="#FFFAE6"/>
<rect x="66.4648" y="156.504" width="3.53887" height="3.88235" fill="#FFFAE6"/>
<rect x="576.066" y="156.504" width="3.53887" height="3.88235" fill="#FFFAE6"/>
<rect x="873.328" y="156.504" width="3.53887" height="3.88235" fill="#FFFAE6"/>
<rect x="406.203" y="156.504" width="3.53887" height="3.88235" fill="#FFFAE6"/>
<rect x="745.93" y="156.504" width="3.53887" height="3.88235" fill="#FFFAE6"/>
<rect x="1043.2" y="156.504" width="3.53887" height="3.88235" fill="#FFFAE6"/>
<rect x="1255.53" y="156.504" width="3.53887" height="3.88235" fill="#FFFAE6"/>
<rect x="321.262" y="156.504" width="3.53887" height="3.88235" fill="#FFFAE6"/>
<rect x="151.402" y="156.504" width="3.53887" height="3.88235" fill="#FFFAE6"/>
<rect x="661" y="156.504" width="3.53887" height="3.88235" fill="#FFFAE6"/>
<rect x="958.262" y="156.504" width="3.53887" height="3.88235" fill="#FFFAE6"/>
<rect x="1170.59" y="156.504" width="3.53887" height="3.88235" fill="#FFFAE6"/>
<rect x="491.133" y="156.504" width="3.53887" height="3.88235" fill="#FFFAE6"/>
<rect x="830.867" y="156.504" width="3.53887" height="3.88235" fill="#FFFAE6"/>
<rect x="1128.13" y="156.504" width="3.53887" height="3.88235" fill="#FFFAE6"/>
<rect x="1340.46" y="156.504" width="3.53887" height="3.88235" fill="#FFFAE6"/>
<rect x="193.867" y="296.27" width="3.53887" height="3.88235" fill="#FFFAE6"/>
<rect x="24" y="296.27" width="3.53887" height="3.88235" fill="#FFFAE6"/>
<rect x="533.594" y="296.27" width="3.53887" height="3.88235" fill="#FFFAE6"/>
<rect x="363.734" y="296.27" width="3.53887" height="3.88235" fill="#FFFAE6"/>
<rect x="703.461" y="296.27" width="3.53887" height="3.88235" fill="#FFFAE6"/>
<rect x="1000.73" y="296.27" width="3.53887" height="3.88235" fill="#FFFAE6"/>
<rect x="1213.06" y="296.27" width="3.53887" height="3.88235" fill="#FFFAE6"/>
<rect x="278.797" y="296.27" width="3.53887" height="3.88235" fill="#FFFAE6"/>
<rect x="108.93" y="296.27" width="3.53887" height="3.88235" fill="#FFFAE6"/>
<rect x="618.531" y="296.27" width="3.53887" height="3.88235" fill="#FFFAE6"/>
<rect x="915.797" y="296.27" width="3.53887" height="3.88235" fill="#FFFAE6"/>
<rect x="448.664" y="296.27" width="3.53887" height="3.88235" fill="#FFFAE6"/>
<rect x="788.398" y="296.27" width="3.53887" height="3.88235" fill="#FFFAE6"/>
<rect x="1085.66" y="296.27" width="3.53887" height="3.88235" fill="#FFFAE6"/>
<rect x="1298" y="296.27" width="3.53887" height="3.88235" fill="#FFFAE6"/>
<rect x="236.332" y="296.27" width="3.53887" height="3.88235" fill="#FFFAE6"/>
<rect x="66.4648" y="296.27" width="3.53887" height="3.88235" fill="#FFFAE6"/>
<rect x="576.066" y="296.27" width="3.53887" height="3.88235" fill="#FFFAE6"/>
<rect x="873.328" y="296.27" width="3.53887" height="3.88235" fill="#FFFAE6"/>
<rect x="406.203" y="296.27" width="3.53887" height="3.88235" fill="#FFFAE6"/>
<rect x="745.93" y="296.27" width="3.53887" height="3.88235" fill="#FFFAE6"/>
<rect x="1043.2" y="296.27" width="3.53887" height="3.88235" fill="#FFFAE6"/>
<rect x="1255.53" y="296.27" width="3.53887" height="3.88235" fill="#FFFAE6"/>
<rect x="321.262" y="296.27" width="3.53887" height="3.88235" fill="#FFFAE6"/>
<rect x="151.402" y="296.27" width="3.53887" height="3.88235" fill="#FFFAE6"/>
<rect x="661" y="296.27" width="3.53887" height="3.88235" fill="#FFFAE6"/>
<rect x="958.262" y="296.27" width="3.53887" height="3.88235" fill="#FFFAE6"/>
<rect x="1170.59" y="296.27" width="3.53887" height="3.88235" fill="#FFFAE6"/>
<rect x="491.133" y="296.27" width="3.53887" height="3.88235" fill="#FFFAE6"/>
<rect x="830.867" y="296.27" width="3.53887" height="3.88235" fill="#FFFAE6"/>
<rect x="1128.13" y="296.27" width="3.53887" height="3.88235" fill="#FFFAE6"/>
<rect x="1340.46" y="296.27" width="3.53887" height="3.88235" fill="#FFFAE6"/>
<rect x="193.867" y="389.445" width="3.53887" height="3.88235" fill="#FFFAE6"/>
<rect x="24" y="389.445" width="3.53887" height="3.88235" fill="#FFFAE6"/>
<rect x="533.594" y="389.445" width="3.53887" height="3.88235" fill="#FFFAE6"/>
<rect x="363.734" y="389.445" width="3.53887" height="3.88235" fill="#FFFAE6"/>
<rect x="703.461" y="389.445" width="3.53887" height="3.88235" fill="#FFFAE6"/>
<rect x="1000.73" y="389.445" width="3.53887" height="3.88235" fill="#FFFAE6"/>
<rect x="1213.06" y="389.445" width="3.53887" height="3.88235" fill="#FFFAE6"/>
<rect x="278.797" y="389.445" width="3.53887" height="3.88235" fill="#FFFAE6"/>
<rect x="108.93" y="389.445" width="3.53887" height="3.88235" fill="#FFFAE6"/>
<rect x="618.531" y="389.445" width="3.53887" height="3.88235" fill="#FFFAE6"/>
<rect x="915.797" y="389.445" width="3.53887" height="3.88235" fill="#FFFAE6"/>
<rect x="448.664" y="389.445" width="3.53887" height="3.88235" fill="#FFFAE6"/>
<rect x="788.398" y="389.445" width="3.53887" height="3.88235" fill="#FFFAE6"/>
<rect x="1085.66" y="389.445" width="3.53887" height="3.88235" fill="#FFFAE6"/>
<rect x="1298" y="389.445" width="3.53887" height="3.88235" fill="#FFFAE6"/>
<rect x="236.332" y="389.445" width="3.53887" height="3.88235" fill="#FFFAE6"/>
<rect x="66.4648" y="389.445" width="3.53887" height="3.88235" fill="#FFFAE6"/>
<rect x="576.066" y="389.445" width="3.53887" height="3.88235" fill="#FFFAE6"/>
<rect x="873.328" y="389.445" width="3.53887" height="3.88235" fill="#FFFAE6"/>
<rect x="406.203" y="389.445" width="3.53887" height="3.88235" fill="#FFFAE6"/>
<rect x="745.93" y="389.445" width="3.53887" height="3.88235" fill="#FFFAE6"/>
<rect x="1043.2" y="389.445" width="3.53887" height="3.88235" fill="#FFFAE6"/>
<rect x="1255.53" y="389.445" width="3.53887" height="3.88235" fill="#FFFAE6"/>
<rect x="321.262" y="389.445" width="3.53887" height="3.88235" fill="#FFFAE6"/>
<rect x="151.402" y="389.445" width="3.53887" height="3.88235" fill="#FFFAE6"/>
<rect x="661" y="389.445" width="3.53887" height="3.88235" fill="#FFFAE6"/>
<rect x="958.262" y="389.445" width="3.53887" height="3.88235" fill="#FFFAE6"/>
<rect x="1170.59" y="389.445" width="3.53887" height="3.88235" fill="#FFFAE6"/>
<rect x="491.133" y="389.445" width="3.53887" height="3.88235" fill="#FFFAE6"/>
<rect x="830.867" y="389.445" width="3.53887" height="3.88235" fill="#FFFAE6"/>
<rect x="1128.13" y="389.445" width="3.53887" height="3.88235" fill="#FFFAE6"/>
<rect x="1340.46" y="389.445" width="3.53887" height="3.88235" fill="#FFFAE6"/>
<rect x="193.867" y="63.3281" width="3.53887" height="3.88235" fill="#FFFAE6"/>
<rect x="24" y="63.3281" width="3.53887" height="3.88235" fill="#FFFAE6"/>
<rect x="533.594" y="63.3281" width="3.53887" height="3.88235" fill="#FFFAE6"/>
<rect x="363.734" y="63.3281" width="3.53887" height="3.88235" fill="#FFFAE6"/>
<rect x="703.461" y="63.3281" width="3.53887" height="3.88235" fill="#FFFAE6"/>
<rect x="1000.73" y="63.3281" width="3.53887" height="3.88235" fill="#FFFAE6"/>
<rect x="1213.06" y="63.3281" width="3.53887" height="3.88235" fill="#FFFAE6"/>
<rect x="278.797" y="63.3281" width="3.53887" height="3.88235" fill="#FFFAE6"/>
<rect x="108.93" y="63.3281" width="3.53887" height="3.88235" fill="#FFFAE6"/>
<rect x="618.531" y="63.3281" width="3.53887" height="3.88235" fill="#FFFAE6"/>
<rect x="915.797" y="63.3281" width="3.53887" height="3.88235" fill="#FFFAE6"/>
<rect x="448.664" y="63.3281" width="3.53887" height="3.88235" fill="#FFFAE6"/>
<rect x="788.398" y="63.3281" width="3.53887" height="3.88235" fill="#FFFAE6"/>
<rect x="1085.66" y="63.3281" width="3.53887" height="3.88235" fill="#FFFAE6"/>
<rect x="1298" y="63.3281" width="3.53887" height="3.88235" fill="#FFFAE6"/>
<rect x="236.332" y="63.3281" width="3.53887" height="3.88235" fill="#FFFAE6"/>
<rect x="66.4648" y="63.3281" width="3.53887" height="3.88235" fill="#FFFAE6"/>
<rect x="576.066" y="63.3281" width="3.53887" height="3.88235" fill="#FFFAE6"/>
<rect x="873.328" y="63.3281" width="3.53887" height="3.88235" fill="#FFFAE6"/>
<rect x="406.203" y="63.3281" width="3.53887" height="3.88235" fill="#FFFAE6"/>
<rect x="745.93" y="63.3281" width="3.53887" height="3.88235" fill="#FFFAE6"/>
<rect x="1043.2" y="63.3281" width="3.53887" height="3.88235" fill="#FFFAE6"/>
<rect x="1255.53" y="63.3281" width="3.53887" height="3.88235" fill="#FFFAE6"/>
<rect x="321.262" y="63.3281" width="3.53887" height="3.88235" fill="#FFFAE6"/>
<rect x="151.402" y="63.3281" width="3.53887" height="3.88235" fill="#FFFAE6"/>
<rect x="661" y="63.3281" width="3.53887" height="3.88235" fill="#FFFAE6"/>
<rect x="958.262" y="63.3281" width="3.53887" height="3.88235" fill="#FFFAE6"/>
<rect x="1170.59" y="63.3281" width="3.53887" height="3.88235" fill="#FFFAE6"/>
<rect x="491.133" y="63.3281" width="3.53887" height="3.88235" fill="#FFFAE6"/>
<rect x="830.867" y="63.3281" width="3.53887" height="3.88235" fill="#FFFAE6"/>
<rect x="1128.13" y="63.3281" width="3.53887" height="3.88235" fill="#FFFAE6"/>
<rect x="1340.46" y="63.3281" width="3.53887" height="3.88235" fill="#FFFAE6"/>
<rect x="193.867" y="203.094" width="3.53887" height="3.88235" fill="#FFFAE6"/>
<rect x="24" y="203.094" width="3.53887" height="3.88235" fill="#FFFAE6"/>
<rect x="533.594" y="203.094" width="3.53887" height="3.88235" fill="#FFFAE6"/>
<rect x="363.734" y="203.094" width="3.53887" height="3.88235" fill="#FFFAE6"/>
<rect x="703.461" y="203.094" width="3.53887" height="3.88235" fill="#FFFAE6"/>
<rect x="1000.73" y="203.094" width="3.53887" height="3.88235" fill="#FFFAE6"/>
<rect x="1213.06" y="203.094" width="3.53887" height="3.88235" fill="#FFFAE6"/>
<rect x="278.797" y="203.094" width="3.53887" height="3.88235" fill="#FFFAE6"/>
<rect x="108.93" y="203.094" width="3.53887" height="3.88235" fill="#FFFAE6"/>
<rect x="618.531" y="203.094" width="3.53887" height="3.88235" fill="#FFFAE6"/>
<rect x="915.797" y="203.094" width="3.53887" height="3.88235" fill="#FFFAE6"/>
<rect x="448.664" y="203.094" width="3.53887" height="3.88235" fill="#FFFAE6"/>
<rect x="788.398" y="203.094" width="3.53887" height="3.88235" fill="#FFFAE6"/>
<rect x="1085.66" y="203.094" width="3.53887" height="3.88235" fill="#FFFAE6"/>
<rect x="1298" y="203.094" width="3.53887" height="3.88235" fill="#FFFAE6"/>
<rect x="236.332" y="203.094" width="3.53887" height="3.88235" fill="#FFFAE6"/>
<rect x="66.4648" y="203.094" width="3.53887" height="3.88235" fill="#FFFAE6"/>
<rect x="576.066" y="203.094" width="3.53887" height="3.88235" fill="#FFFAE6"/>
<rect x="873.328" y="203.094" width="3.53887" height="3.88235" fill="#FFFAE6"/>
<rect x="406.203" y="203.094" width="3.53887" height="3.88235" fill="#FFFAE6"/>
<rect x="745.93" y="203.094" width="3.53887" height="3.88235" fill="#FFFAE6"/>
<rect x="1043.2" y="203.094" width="3.53887" height="3.88235" fill="#FFFAE6"/>
<rect x="1255.53" y="203.094" width="3.53887" height="3.88235" fill="#FFFAE6"/>
<rect x="321.262" y="203.094" width="3.53887" height="3.88235" fill="#FFFAE6"/>
<rect x="151.402" y="203.094" width="3.53887" height="3.88235" fill="#FFFAE6"/>
<rect x="661" y="203.094" width="3.53887" height="3.88235" fill="#FFFAE6"/>
<rect x="958.262" y="203.094" width="3.53887" height="3.88235" fill="#FFFAE6"/>
<rect x="1170.59" y="203.094" width="3.53887" height="3.88235" fill="#FFFAE6"/>
<rect x="491.133" y="203.094" width="3.53887" height="3.88235" fill="#FFFAE6"/>
<rect x="830.867" y="203.094" width="3.53887" height="3.88235" fill="#FFFAE6"/>
<rect x="1128.13" y="203.094" width="3.53887" height="3.88235" fill="#FFFAE6"/>
<rect x="1340.46" y="203.094" width="3.53887" height="3.88235" fill="#FFFAE6"/>
<rect x="193.867" y="109.918" width="3.53887" height="3.88235" fill="#FFFAE6"/>
<rect x="24" y="109.918" width="3.53887" height="3.88235" fill="#FFFAE6"/>
<rect x="533.594" y="109.918" width="3.53887" height="3.88235" fill="#FFFAE6"/>
<rect x="363.734" y="109.918" width="3.53887" height="3.88235" fill="#FFFAE6"/>
<rect x="703.461" y="109.918" width="3.53887" height="3.88235" fill="#FFFAE6"/>
<rect x="1000.73" y="109.918" width="3.53887" height="3.88235" fill="#FFFAE6"/>
<rect x="1213.06" y="109.918" width="3.53887" height="3.88235" fill="#FFFAE6"/>
<rect x="278.797" y="109.918" width="3.53887" height="3.88235" fill="#FFFAE6"/>
<rect x="108.93" y="109.918" width="3.53887" height="3.88235" fill="#FFFAE6"/>
<rect x="618.531" y="109.918" width="3.53887" height="3.88235" fill="#FFFAE6"/>
<rect x="915.797" y="109.918" width="3.53887" height="3.88235" fill="#FFFAE6"/>
<rect x="448.664" y="109.918" width="3.53887" height="3.88235" fill="#FFFAE6"/>
<rect x="788.398" y="109.918" width="3.53887" height="3.88235" fill="#FFFAE6"/>
<rect x="1085.66" y="109.918" width="3.53887" height="3.88235" fill="#FFFAE6"/>
<rect x="1298" y="109.918" width="3.53887" height="3.88235" fill="#FFFAE6"/>
<rect x="236.332" y="109.918" width="3.53887" height="3.88235" fill="#FFFAE6"/>
<rect x="66.4648" y="109.918" width="3.53887" height="3.88235" fill="#FFFAE6"/>
<rect x="576.066" y="109.918" width="3.53887" height="3.88235" fill="#FFFAE6"/>
<rect x="873.328" y="109.918" width="3.53887" height="3.88235" fill="#FFFAE6"/>
<rect x="406.203" y="109.918" width="3.53887" height="3.88235" fill="#FFFAE6"/>
<rect x="745.93" y="109.918" width="3.53887" height="3.88235" fill="#FFFAE6"/>
<rect x="1043.2" y="109.918" width="3.53887" height="3.88235" fill="#FFFAE6"/>
<rect x="1255.53" y="109.918" width="3.53887" height="3.88235" fill="#FFFAE6"/>
<rect x="321.262" y="109.918" width="3.53887" height="3.88235" fill="#FFFAE6"/>
<rect x="151.402" y="109.918" width="3.53887" height="3.88235" fill="#FFFAE6"/>
<rect x="661" y="109.918" width="3.53887" height="3.88235" fill="#FFFAE6"/>
<rect x="958.262" y="109.918" width="3.53887" height="3.88235" fill="#FFFAE6"/>
<rect x="1170.59" y="109.918" width="3.53887" height="3.88235" fill="#FFFAE6"/>
<rect x="491.133" y="109.918" width="3.53887" height="3.88235" fill="#FFFAE6"/>
<rect x="830.867" y="109.918" width="3.53887" height="3.88235" fill="#FFFAE6"/>
<rect x="1128.13" y="109.918" width="3.53887" height="3.88235" fill="#FFFAE6"/>
<rect x="1340.46" y="109.918" width="3.53887" height="3.88235" fill="#FFFAE6"/>
<rect x="193.867" y="249.68" width="3.53887" height="3.88235" fill="#FFFAE6"/>
<rect x="24" y="249.68" width="3.53887" height="3.88235" fill="#FFFAE6"/>
<rect x="533.594" y="249.68" width="3.53887" height="3.88235" fill="#FFFAE6"/>
<rect x="363.734" y="249.68" width="3.53887" height="3.88235" fill="#FFFAE6"/>
<rect x="703.461" y="249.68" width="3.53887" height="3.88235" fill="#FFFAE6"/>
<rect x="1000.73" y="249.68" width="3.53887" height="3.88235" fill="#FFFAE6"/>
<rect x="1213.06" y="249.68" width="3.53887" height="3.88235" fill="#FFFAE6"/>
<rect x="278.797" y="249.68" width="3.53887" height="3.88235" fill="#FFFAE6"/>
<rect x="108.93" y="249.68" width="3.53887" height="3.88235" fill="#FFFAE6"/>
<rect x="618.531" y="249.68" width="3.53887" height="3.88235" fill="#FFFAE6"/>
<rect x="915.797" y="249.68" width="3.53887" height="3.88235" fill="#FFFAE6"/>
<rect x="448.664" y="249.68" width="3.53887" height="3.88235" fill="#FFFAE6"/>
<rect x="788.398" y="249.68" width="3.53887" height="3.88235" fill="#FFFAE6"/>
<rect x="1085.66" y="249.68" width="3.53887" height="3.88235" fill="#FFFAE6"/>
<rect x="1298" y="249.68" width="3.53887" height="3.88235" fill="#FFFAE6"/>
<rect x="236.332" y="249.68" width="3.53887" height="3.88235" fill="#FFFAE6"/>
<rect x="66.4648" y="249.68" width="3.53887" height="3.88235" fill="#FFFAE6"/>
<rect x="576.066" y="249.68" width="3.53887" height="3.88235" fill="#FFFAE6"/>
<rect x="873.328" y="249.68" width="3.53887" height="3.88235" fill="#FFFAE6"/>
<rect x="406.203" y="249.68" width="3.53887" height="3.88235" fill="#FFFAE6"/>
<rect x="745.93" y="249.68" width="3.53887" height="3.88235" fill="#FFFAE6"/>
<rect x="1043.2" y="249.68" width="3.53887" height="3.88235" fill="#FFFAE6"/>
<rect x="1255.53" y="249.68" width="3.53887" height="3.88235" fill="#FFFAE6"/>
<rect x="321.262" y="249.68" width="3.53887" height="3.88235" fill="#FFFAE6"/>
<rect x="151.402" y="249.68" width="3.53887" height="3.88235" fill="#FFFAE6"/>
<rect x="661" y="249.68" width="3.53887" height="3.88235" fill="#FFFAE6"/>
<rect x="958.262" y="249.68" width="3.53887" height="3.88235" fill="#FFFAE6"/>
<rect x="1170.59" y="249.68" width="3.53887" height="3.88235" fill="#FFFAE6"/>
<rect x="491.133" y="249.68" width="3.53887" height="3.88235" fill="#FFFAE6"/>
<rect x="830.867" y="249.68" width="3.53887" height="3.88235" fill="#FFFAE6"/>
<rect x="1128.13" y="249.68" width="3.53887" height="3.88235" fill="#FFFAE6"/>
<rect x="1340.46" y="249.68" width="3.53887" height="3.88235" fill="#FFFAE6"/>
<rect x="193.867" y="342.855" width="3.53887" height="3.88235" fill="#FFFAE6"/>
<rect x="24" y="342.855" width="3.53887" height="3.88235" fill="#FFFAE6"/>
<rect x="533.594" y="342.855" width="3.53887" height="3.88235" fill="#FFFAE6"/>
<rect x="363.734" y="342.855" width="3.53887" height="3.88235" fill="#FFFAE6"/>
<rect x="703.461" y="342.855" width="3.53887" height="3.88235" fill="#FFFAE6"/>
<rect x="1000.73" y="342.855" width="3.53887" height="3.88235" fill="#FFFAE6"/>
<rect x="1213.06" y="342.855" width="3.53887" height="3.88235" fill="#FFFAE6"/>
<rect x="278.797" y="342.855" width="3.53887" height="3.88235" fill="#FFFAE6"/>
<rect x="108.93" y="342.855" width="3.53887" height="3.88235" fill="#FFFAE6"/>
<rect x="618.531" y="342.855" width="3.53887" height="3.88235" fill="#FFFAE6"/>
<rect x="915.797" y="342.855" width="3.53887" height="3.88235" fill="#FFFAE6"/>
<rect x="448.664" y="342.855" width="3.53887" height="3.88235" fill="#FFFAE6"/>
<rect x="788.398" y="342.855" width="3.53887" height="3.88235" fill="#FFFAE6"/>
<rect x="1085.66" y="342.855" width="3.53887" height="3.88235" fill="#FFFAE6"/>
<rect x="1298" y="342.855" width="3.53887" height="3.88235" fill="#FFFAE6"/>
<rect x="236.332" y="342.855" width="3.53887" height="3.88235" fill="#FFFAE6"/>
<rect x="66.4648" y="342.855" width="3.53887" height="3.88235" fill="#FFFAE6"/>
<rect x="576.066" y="342.855" width="3.53887" height="3.88235" fill="#FFFAE6"/>
<rect x="873.328" y="342.855" width="3.53887" height="3.88235" fill="#FFFAE6"/>
<rect x="406.203" y="342.855" width="3.53887" height="3.88235" fill="#FFFAE6"/>
<rect x="745.93" y="342.855" width="3.53887" height="3.88235" fill="#FFFAE6"/>
<rect x="1043.2" y="342.855" width="3.53887" height="3.88235" fill="#FFFAE6"/>
<rect x="1255.53" y="342.855" width="3.53887" height="3.88235" fill="#FFFAE6"/>
<rect x="321.262" y="342.855" width="3.53887" height="3.88235" fill="#FFFAE6"/>
<rect x="151.402" y="342.855" width="3.53887" height="3.88235" fill="#FFFAE6"/>
<rect x="661" y="342.855" width="3.53887" height="3.88235" fill="#FFFAE6"/>
<rect x="958.262" y="342.855" width="3.53887" height="3.88235" fill="#FFFAE6"/>
<rect x="1170.59" y="342.855" width="3.53887" height="3.88235" fill="#FFFAE6"/>
<rect x="491.133" y="342.855" width="3.53887" height="3.88235" fill="#FFFAE6"/>
<rect x="830.867" y="342.855" width="3.53887" height="3.88235" fill="#FFFAE6"/>
<rect x="1128.13" y="342.855" width="3.53887" height="3.88235" fill="#FFFAE6"/>
<rect x="1340.46" y="342.855" width="3.53887" height="3.88235" fill="#FFFAE6"/>
<rect x="193.867" y="156.504" width="3.53887" height="3.88235" fill="#FFFAE6"/>
<rect x="24" y="156.504" width="3.53887" height="3.88235" fill="#FFFAE6"/>
<rect x="533.594" y="156.504" width="3.53887" height="3.88235" fill="#FFFAE6"/>
<rect x="363.734" y="156.504" width="3.53887" height="3.88235" fill="#FFFAE6"/>
<rect x="703.461" y="156.504" width="3.53887" height="3.88235" fill="#FFFAE6"/>
<rect x="1000.73" y="156.504" width="3.53887" height="3.88235" fill="#FFFAE6"/>
<rect x="1213.06" y="156.504" width="3.53887" height="3.88235" fill="#FFFAE6"/>
<rect x="278.797" y="156.504" width="3.53887" height="3.88235" fill="#FFFAE6"/>
<rect x="108.93" y="156.504" width="3.53887" height="3.88235" fill="#FFFAE6"/>
<rect x="618.531" y="156.504" width="3.53887" height="3.88235" fill="#FFFAE6"/>
<rect x="915.797" y="156.504" width="3.53887" height="3.88235" fill="#FFFAE6"/>
<rect x="448.664" y="156.504" width="3.53887" height="3.88235" fill="#FFFAE6"/>
<rect x="788.398" y="156.504" width="3.53887" height="3.88235" fill="#FFFAE6"/>
<rect x="1085.66" y="156.504" width="3.53887" height="3.88235" fill="#FFFAE6"/>
<rect x="1298" y="156.504" width="3.53887" height="3.88235" fill="#FFFAE6"/>
<rect x="236.332" y="156.504" width="3.53887" height="3.88235" fill="#FFFAE6"/>
<rect x="66.4648" y="156.504" width="3.53887" height="3.88235" fill="#FFFAE6"/>
<rect x="576.066" y="156.504" width="3.53887" height="3.88235" fill="#FFFAE6"/>
<rect x="873.328" y="156.504" width="3.53887" height="3.88235" fill="#FFFAE6"/>
<rect x="406.203" y="156.504" width="3.53887" height="3.88235" fill="#FFFAE6"/>
<rect x="745.93" y="156.504" width="3.53887" height="3.88235" fill="#FFFAE6"/>
<rect x="1043.2" y="156.504" width="3.53887" height="3.88235" fill="#FFFAE6"/>
<rect x="1255.53" y="156.504" width="3.53887" height="3.88235" fill="#FFFAE6"/>
<rect x="321.262" y="156.504" width="3.53887" height="3.88235" fill="#FFFAE6"/>
<rect x="151.402" y="156.504" width="3.53887" height="3.88235" fill="#FFFAE6"/>
<rect x="661" y="156.504" width="3.53887" height="3.88235" fill="#FFFAE6"/>
<rect x="958.262" y="156.504" width="3.53887" height="3.88235" fill="#FFFAE6"/>
<rect x="1170.59" y="156.504" width="3.53887" height="3.88235" fill="#FFFAE6"/>
<rect x="491.133" y="156.504" width="3.53887" height="3.88235" fill="#FFFAE6"/>
<rect x="830.867" y="156.504" width="3.53887" height="3.88235" fill="#FFFAE6"/>
<rect x="1128.13" y="156.504" width="3.53887" height="3.88235" fill="#FFFAE6"/>
<rect x="1340.46" y="156.504" width="3.53887" height="3.88235" fill="#FFFAE6"/>
<rect x="193.867" y="296.27" width="3.53887" height="3.88235" fill="#FFFAE6"/>
<rect x="24" y="296.27" width="3.53887" height="3.88235" fill="#FFFAE6"/>
<rect x="533.594" y="296.27" width="3.53887" height="3.88235" fill="#FFFAE6"/>
<rect x="363.734" y="296.27" width="3.53887" height="3.88235" fill="#FFFAE6"/>
<rect x="703.461" y="296.27" width="3.53887" height="3.88235" fill="#FFFAE6"/>
<rect x="1000.73" y="296.27" width="3.53887" height="3.88235" fill="#FFFAE6"/>
<rect x="1213.06" y="296.27" width="3.53887" height="3.88235" fill="#FFFAE6"/>
<rect x="278.797" y="296.27" width="3.53887" height="3.88235" fill="#FFFAE6"/>
<rect x="108.93" y="296.27" width="3.53887" height="3.88235" fill="#FFFAE6"/>
<rect x="618.531" y="296.27" width="3.53887" height="3.88235" fill="#FFFAE6"/>
<rect x="915.797" y="296.27" width="3.53887" height="3.88235" fill="#FFFAE6"/>
<rect x="448.664" y="296.27" width="3.53887" height="3.88235" fill="#FFFAE6"/>
<rect x="788.398" y="296.27" width="3.53887" height="3.88235" fill="#FFFAE6"/>
<rect x="1085.66" y="296.27" width="3.53887" height="3.88235" fill="#FFFAE6"/>
<rect x="1298" y="296.27" width="3.53887" height="3.88235" fill="#FFFAE6"/>
<rect x="236.332" y="296.27" width="3.53887" height="3.88235" fill="#FFFAE6"/>
<rect x="66.4648" y="296.27" width="3.53887" height="3.88235" fill="#FFFAE6"/>
<rect x="576.066" y="296.27" width="3.53887" height="3.88235" fill="#FFFAE6"/>
<rect x="873.328" y="296.27" width="3.53887" height="3.88235" fill="#FFFAE6"/>
<rect x="406.203" y="296.27" width="3.53887" height="3.88235" fill="#FFFAE6"/>
<rect x="745.93" y="296.27" width="3.53887" height="3.88235" fill="#FFFAE6"/>
<rect x="1043.2" y="296.27" width="3.53887" height="3.88235" fill="#FFFAE6"/>
<rect x="1255.53" y="296.27" width="3.53887" height="3.88235" fill="#FFFAE6"/>
<rect x="321.262" y="296.27" width="3.53887" height="3.88235" fill="#FFFAE6"/>
<rect x="151.402" y="296.27" width="3.53887" height="3.88235" fill="#FFFAE6"/>
<rect x="661" y="296.27" width="3.53887" height="3.88235" fill="#FFFAE6"/>
<rect x="958.262" y="296.27" width="3.53887" height="3.88235" fill="#FFFAE6"/>
<rect x="1170.59" y="296.27" width="3.53887" height="3.88235" fill="#FFFAE6"/>
<rect x="491.133" y="296.27" width="3.53887" height="3.88235" fill="#FFFAE6"/>
<rect x="830.867" y="296.27" width="3.53887" height="3.88235" fill="#FFFAE6"/>
<rect x="1128.13" y="296.27" width="3.53887" height="3.88235" fill="#FFFAE6"/>
<rect x="1340.46" y="296.27" width="3.53887" height="3.88235" fill="#FFFAE6"/>
<rect x="193.867" y="389.445" width="3.53887" height="3.88235" fill="#FFFAE6"/>
<rect x="24" y="389.445" width="3.53887" height="3.88235" fill="#FFFAE6"/>
<rect x="533.594" y="389.445" width="3.53887" height="3.88235" fill="#FFFAE6"/>
<rect x="363.734" y="389.445" width="3.53887" height="3.88235" fill="#FFFAE6"/>
<rect x="703.461" y="389.445" width="3.53887" height="3.88235" fill="#FFFAE6"/>
<rect x="1000.73" y="389.445" width="3.53887" height="3.88235" fill="#FFFAE6"/>
<rect x="1213.06" y="389.445" width="3.53887" height="3.88235" fill="#FFFAE6"/>
<rect x="278.797" y="389.445" width="3.53887" height="3.88235" fill="#FFFAE6"/>
<rect x="108.93" y="389.445" width="3.53887" height="3.88235" fill="#FFFAE6"/>
<rect x="618.531" y="389.445" width="3.53887" height="3.88235" fill="#FFFAE6"/>
<rect x="915.797" y="389.445" width="3.53887" height="3.88235" fill="#FFFAE6"/>
<rect x="448.664" y="389.445" width="3.53887" height="3.88235" fill="#FFFAE6"/>
<rect x="788.398" y="389.445" width="3.53887" height="3.88235" fill="#FFFAE6"/>
<rect x="1085.66" y="389.445" width="3.53887" height="3.88235" fill="#FFFAE6"/>
<rect x="1298" y="389.445" width="3.53887" height="3.88235" fill="#FFFAE6"/>
<rect x="236.332" y="389.445" width="3.53887" height="3.88235" fill="#FFFAE6"/>
<rect x="66.4648" y="389.445" width="3.53887" height="3.88235" fill="#FFFAE6"/>
<rect x="576.066" y="389.445" width="3.53887" height="3.88235" fill="#FFFAE6"/>
<rect x="873.328" y="389.445" width="3.53887" height="3.88235" fill="#FFFAE6"/>
<rect x="406.203" y="389.445" width="3.53887" height="3.88235" fill="#FFFAE6"/>
<rect x="745.93" y="389.445" width="3.53887" height="3.88235" fill="#FFFAE6"/>
<rect x="1043.2" y="389.445" width="3.53887" height="3.88235" fill="#FFFAE6"/>
<rect x="1255.53" y="389.445" width="3.53887" height="3.88235" fill="#FFFAE6"/>
<rect x="321.262" y="389.445" width="3.53887" height="3.88235" fill="#FFFAE6"/>
<rect x="151.402" y="389.445" width="3.53887" height="3.88235" fill="#FFFAE6"/>
<rect x="661" y="389.445" width="3.53887" height="3.88235" fill="#FFFAE6"/>
<rect x="958.262" y="389.445" width="3.53887" height="3.88235" fill="#FFFAE6"/>
<rect x="1170.59" y="389.445" width="3.53887" height="3.88235" fill="#FFFAE6"/>
<rect x="491.133" y="389.445" width="3.53887" height="3.88235" fill="#FFFAE6"/>
<rect x="830.867" y="389.445" width="3.53887" height="3.88235" fill="#FFFAE6"/>
<rect x="1128.13" y="389.445" width="3.53887" height="3.88235" fill="#FFFAE6"/>
<rect x="1340.46" y="389.445" width="3.53887" height="3.88235" fill="#FFFAE6"/>
</g>
<g opacity="0.6" filter="url(#filter1_f_3824_1044)">
<path d="M4 413.303V4H1331.01L1364 32.1931V442H37.85L4 413.303Z" stroke="#FFFAE6" stroke-width="3"/>
<path d="M4 4V52L44.8 4H4Z" fill="#FFFAE6" stroke="#FFFAE6" stroke-width="3"/>
<path d="M1364 442V394L1323.2 442H1364Z" fill="#FFFAE6" stroke="#FFFAE6" stroke-width="3"/>
</g>
<defs>
<filter id="filter0_f_3824_1044" x="18" y="57.3281" width="1332" height="342" filterUnits="userSpaceOnUse" color-interpolation-filters="sRGB">
<feFlood flood-opacity="0" result="BackgroundImageFix"/>
<feBlend mode="normal" in="SourceGraphic" in2="BackgroundImageFix" result="shape"/>
<feGaussianBlur stdDeviation="3" result="effect1_foregroundBlur_3824_1044"/>
</filter>
<filter id="filter1_f_3824_1044" x="0.5" y="0.5" width="1367" height="445" filterUnits="userSpaceOnUse" color-interpolation-filters="sRGB">
<feFlood flood-opacity="0" result="BackgroundImageFix"/>
<feBlend mode="normal" in="SourceGraphic" in2="BackgroundImageFix" result="shape"/>
<feGaussianBlur stdDeviation="1" result="effect1_foregroundBlur_3824_1044"/>
</filter>
</defs>
</svg>
