<svg width="1368" height="720" viewBox="0 0 1368 720" fill="none" xmlns="http://www.w3.org/2000/svg">
<g filter="url(#filter0_b_3585_1054)">
<path d="M24.3594 651.568V24.4648H1311.64L1343.64 67.6601V695.534H57.1959L24.3594 651.568Z" fill="#FFF8DC" fill-opacity="0.1"/>
<path d="M24.3594 651.568V24.4648H1311.64L1343.64 67.6601V695.534H57.1959L24.3594 651.568Z" stroke="url(#paint0_radial_3585_1054)" stroke-width="4"/>
</g>
<g filter="url(#filter1_f_3585_1054)">
<rect x="4.96094" y="11.6758" width="19.4012" height="5.11616" fill="#FFF8DC"/>
<rect x="12.2344" y="24.4648" width="20.4646" height="4.8503" transform="rotate(-90 12.2344 24.4648)" fill="#FFF8DC"/>
</g>
<rect x="4.96094" y="11.6758" width="19.4012" height="5.11616" fill="#FFF8DC"/>
<rect x="12.2344" y="24.4648" width="20.4646" height="4.8503" transform="rotate(-90 12.2344 24.4648)" fill="#FFF8DC"/>
<rect x="4.96094" y="703.199" width="19.4012" height="5.11616" fill="#FFFAE6"/>
<rect x="12.2344" y="715.996" width="20.4646" height="4.8503" transform="rotate(-90 12.2344 715.996)" fill="#FFFAE6"/>
<g filter="url(#filter2_f_3585_1054)">
<rect x="4.96094" y="703.199" width="19.4012" height="5.11616" fill="#FFF8DC"/>
<rect x="12.2344" y="715.996" width="20.4646" height="4.8503" transform="rotate(-90 12.2344 715.996)" fill="#FFF8DC"/>
</g>
<g opacity="0.5" filter="url(#filter3_f_3585_1054)">
<rect x="1343.64" y="11.6758" width="19.4012" height="5.11616" fill="#FFF8DC"/>
<rect x="1350.91" y="24.4648" width="20.4646" height="4.8503" transform="rotate(-90 1350.91 24.4648)" fill="#FFF8DC"/>
</g>
<rect x="1343.64" y="11.6758" width="19.4012" height="5.11616" fill="#FFF8DC"/>
<rect x="1350.91" y="24.4648" width="20.4646" height="4.8503" transform="rotate(-90 1350.91 24.4648)" fill="#FFF8DC"/>
<g filter="url(#filter4_f_3585_1054)">
<rect x="1343.64" y="703.199" width="19.4012" height="5.11616" fill="#FFF8DC"/>
<rect x="1350.91" y="715.996" width="20.4646" height="4.8503" transform="rotate(-90 1350.91 715.996)" fill="#FFF8DC"/>
</g>
<rect x="1343.64" y="703.199" width="19.4012" height="5.11616" fill="#FFF8DC"/>
<rect x="1350.91" y="715.996" width="20.4646" height="4.8503" transform="rotate(-90 1350.91 715.996)" fill="#FFF8DC"/>
<defs>
<filter id="filter0_b_3585_1054" x="-777.641" y="-777.535" width="2923.28" height="2275.07" filterUnits="userSpaceOnUse" color-interpolation-filters="sRGB">
<feFlood flood-opacity="0" result="BackgroundImageFix"/>
<feGaussianBlur in="BackgroundImageFix" stdDeviation="400"/>
<feComposite in2="SourceAlpha" operator="in" result="effect1_backgroundBlur_3585_1054"/>
<feBlend mode="normal" in="SourceGraphic" in2="effect1_backgroundBlur_3585_1054" result="shape"/>
</filter>
<filter id="filter1_f_3585_1054" x="0.960938" y="0" width="27.4023" height="28.4648" filterUnits="userSpaceOnUse" color-interpolation-filters="sRGB">
<feFlood flood-opacity="0" result="BackgroundImageFix"/>
<feBlend mode="normal" in="SourceGraphic" in2="BackgroundImageFix" result="shape"/>
<feGaussianBlur stdDeviation="2" result="effect1_foregroundBlur_3585_1054"/>
</filter>
<filter id="filter2_f_3585_1054" x="0.960938" y="691.531" width="27.4023" height="28.4648" filterUnits="userSpaceOnUse" color-interpolation-filters="sRGB">
<feFlood flood-opacity="0" result="BackgroundImageFix"/>
<feBlend mode="normal" in="SourceGraphic" in2="BackgroundImageFix" result="shape"/>
<feGaussianBlur stdDeviation="2" result="effect1_foregroundBlur_3585_1054"/>
</filter>
<filter id="filter3_f_3585_1054" x="1339.64" y="0" width="27.4023" height="28.4648" filterUnits="userSpaceOnUse" color-interpolation-filters="sRGB">
<feFlood flood-opacity="0" result="BackgroundImageFix"/>
<feBlend mode="normal" in="SourceGraphic" in2="BackgroundImageFix" result="shape"/>
<feGaussianBlur stdDeviation="2" result="effect1_foregroundBlur_3585_1054"/>
</filter>
<filter id="filter4_f_3585_1054" x="1339.64" y="691.531" width="27.4023" height="28.4648" filterUnits="userSpaceOnUse" color-interpolation-filters="sRGB">
<feFlood flood-opacity="0" result="BackgroundImageFix"/>
<feBlend mode="normal" in="SourceGraphic" in2="BackgroundImageFix" result="shape"/>
<feGaussianBlur stdDeviation="2" result="effect1_foregroundBlur_3585_1054"/>
</filter>
<radialGradient id="paint0_radial_3585_1054" cx="0" cy="0" r="1" gradientUnits="userSpaceOnUse" gradientTransform="translate(99.9432 417.556) rotate(-9.38234) scale(1260.56 2749.89)">
<stop stop-color="#999584" stop-opacity="0.8"/>
<stop offset="0.276942" stop-color="#CCC6B0" stop-opacity="0.8"/>
<stop offset="0.50578" stop-color="#FFF8DC" stop-opacity="0.8"/>
<stop offset="0.75" stop-color="#CCC6B0" stop-opacity="0.8"/>
<stop offset="1" stop-color="#999584" stop-opacity="0.8"/>
</radialGradient>
</defs>
</svg>
