<svg width="54" height="48" viewBox="0 0 54 48" fill="none" xmlns="http://www.w3.org/2000/svg">
<path d="M14.015 0C10.2328 0 6.92331 1.41271 4.08663 4.24455C1.36653 6.94154 0 10.2807 0 14.2555V33.7445C0 37.7193 1.36653 41.052 4.08663 43.749C6.92331 46.5809 10.2328 48 14.015 48H39.1824C42.9711 48 46.2806 46.5809 49.1108 43.749C51.8374 41.052 53.1974 37.7193 53.1974 33.7445V0H14.015ZM43.4051 30.1549C43.4051 32.6657 42.5437 34.7719 40.821 36.48C39.0335 38.2652 36.9416 39.1641 34.5453 39.1641H18.6457C16.2559 39.1641 14.164 38.2652 12.37 36.48C10.6537 34.7719 9.79237 32.6657 9.79237 30.1549V17.8387C9.79237 15.3279 10.6537 13.2217 12.37 11.5136C14.164 9.72843 16.2559 8.83585 18.6457 8.83585H43.4051V30.1549Z" fill="#FFF8DC"/>
<path d="M33.6301 23.845C33.6301 27.7282 30.4847 30.8801 26.6015 30.8801C22.7183 30.8801 19.5664 27.7282 19.5664 23.845C19.5664 19.9618 22.7183 16.8164 26.6015 16.8164C30.4847 16.8164 33.6301 19.9618 33.6301 23.845Z" fill="#FFF8DC"/>
</svg>
