<svg width="1515" height="193" viewBox="0 0 1515 193" fill="none" xmlns="http://www.w3.org/2000/svg">
<path d="M378.659 0V136.785C378.659 139.486 377.511 141.957 375.242 144.225C373.253 146.136 370.499 147.105 367.005 147.105H253.403V0H209.875V190.474H367.005C381.923 190.474 394.953 184.843 406.096 173.605C416.832 162.903 422.187 149.653 422.187 133.905V0H378.659Z" fill="#020101"/>
<path d="M503.051 0C487.68 0 474.659 5.40207 463.91 16.1807C453.085 26.9084 447.672 39.9295 447.672 55.2439V190.474H491.536V54.989C491.536 51.8548 492.659 49.1538 494.931 46.8859C497.204 44.6181 499.91 43.4969 503.051 43.4969H612.48V190.474H656.344V0H503.051Z" fill="#020101"/>
<path d="M987.551 94.6176C987.551 79.2082 1000.06 66.7266 1015.47 66.7266C1030.88 66.7266 1043.36 79.2082 1043.36 94.6176C1043.36 110.027 1030.88 122.534 1015.47 122.534C1000.06 122.534 987.551 110.027 987.551 94.6176Z" fill="#020101"/>
<path d="M965.517 0C950.508 0 937.375 5.60593 926.119 16.8433C915.325 27.5455 909.902 40.7958 909.902 56.5689V133.905C909.902 149.678 915.325 162.903 926.119 173.605C937.375 184.843 950.508 190.474 965.517 190.474H1065.39C1080.42 190.474 1093.55 184.843 1104.78 173.605C1115.6 162.903 1121 149.678 1121 133.905V0H965.517ZM1082.14 119.661C1082.14 129.624 1078.72 137.982 1071.89 144.76C1064.8 151.844 1056.49 155.412 1046.99 155.412H983.892C974.409 155.412 966.108 151.844 958.989 144.76C952.179 137.982 948.761 129.624 948.761 119.661V70.7876C948.761 60.8243 952.179 52.4664 958.989 45.6883C966.108 38.6044 974.409 35.0625 983.892 35.0625H1082.14V119.661Z" fill="#020101"/>
<path d="M1043.36 94.6176C1043.36 110.027 1030.88 122.534 1015.47 122.534C1000.06 122.534 987.551 110.027 987.551 94.6176C987.551 79.2082 1000.06 66.7266 1015.47 66.7266C1030.88 66.7266 1043.36 79.2082 1043.36 94.6176Z" fill="#020101"/>
<path d="M139.674 0V43.5049L139.623 43.5559V136.806C139.623 139.404 138.5 141.9 136.228 144.244C134.135 146.154 131.379 147.122 127.984 147.122H0V190.474H127.984C142.89 190.474 155.934 184.87 167.114 173.638C177.835 162.914 183.195 149.695 183.195 133.928V0.0764138L139.674 0Z" fill="#020101"/>
<path d="M123.756 0H35.1914V43.6756H123.756V0Z" fill="#020101"/>
<path d="M1043.36 94.6176C1043.36 110.027 1030.88 122.534 1015.47 122.534C1000.06 122.534 987.551 110.027 987.551 94.6176C987.551 79.2082 1000.06 66.7266 1015.47 66.7266C1030.88 66.7266 1043.36 79.2082 1043.36 94.6176Z" fill="#020101"/>
<path d="M880.801 85.0572V190.474H678.195V56.0593C678.195 40.643 683.709 27.4436 694.763 16.461C705.791 5.504 718.999 0 734.335 0H872.672V43.4969H734.335C731.181 43.4969 728.334 44.8219 725.795 47.421C723.256 49.8673 721.974 52.7467 721.974 56.0593V147.105H837.023V127.407H789.783V85.0572H880.801Z" fill="#020101"/>
<path d="M1238.27 42.2031H1301.67V63.346H1322.8V84.4888H1343.93V190.203H1301.67V147.917H1238.27V190.203H1196V84.4888H1217.13V63.346H1238.27V42.2031ZM1280.53 63.346H1259.4V84.4888H1238.27V126.775H1301.67V84.4888H1280.53V63.346ZM1386.2 42.2031H1513V63.346H1470.73V169.06H1513V190.203H1386.2V169.06H1428.47V63.346H1386.2V42.2031Z" stroke="#020101" stroke-width="4"/>
</svg>
